<svg width="32" height="32" viewBox="0 0 32 32" fill="none" xmlns="http://www.w3.org/2000/svg">
<path d="M21.3763 8.61953H3.32763C3.07954 8.61953 2.83537 8.70956 2.65026 8.87926C2.46399 9.05002 2.35195 9.28945 2.35195 9.54728C2.35195 9.80511 2.46399 10.0445 2.65026 10.2153C2.83537 10.385 3.07954 10.475 3.32763 10.475H21.3763C21.6244 10.475 21.8685 10.385 22.0536 10.2153C22.2399 10.0445 22.352 9.80511 22.352 9.54728C22.352 9.28945 22.2399 9.05002 22.0536 8.87926C21.8685 8.70956 21.6244 8.61953 21.3763 8.61953Z" fill="#0B0B0B" stroke="black" stroke-width="0.8"/>
<path d="M21.3763 15.0723H3.32763C3.07954 15.0723 2.83537 15.1623 2.65026 15.332C2.46399 15.5028 2.35195 15.7422 2.35195 16C2.35195 16.2579 2.46399 16.4973 2.65026 16.6681C2.83537 16.8378 3.07954 16.9278 3.32763 16.9278H21.3763C21.6244 16.9278 21.8685 16.8378 22.0536 16.6681C22.2399 16.4973 22.352 16.2579 22.352 16C22.352 15.7422 22.2399 15.5028 22.0536 15.332C21.8685 15.1623 21.6244 15.0723 21.3763 15.0723Z" fill="#0B0B0B" stroke="black" stroke-width="0.8"/>
<path d="M21.3763 21.525H3.32763C3.07954 21.525 2.83537 21.6151 2.65026 21.7848C2.46399 21.9555 2.35195 22.195 2.35195 22.4528C2.35195 22.7106 2.46399 22.9501 2.65026 23.1208C2.83537 23.2905 3.07955 23.3805 3.32763 23.3805H21.3763C21.6244 23.3805 21.8685 23.2905 22.0536 23.1208C22.2399 22.9501 22.352 22.7106 22.352 22.4528C22.352 22.195 22.2399 21.9555 22.0536 21.7848C21.8685 21.6151 21.6244 21.525 21.3763 21.525Z" fill="#0B0B0B" stroke="black" stroke-width="0.8"/>
</svg>
