<svg width="32" height="32" viewBox="0 0 32 32" fill="none" xmlns="http://www.w3.org/2000/svg">
<path d="M15.9999 29.556C15.7372 29.5564 15.4771 29.505 15.2345 29.4046C14.9918 29.3042 14.7714 29.1568 14.5859 28.971L4.29386 18.679C1.05786 15.444 0.512857 10.456 2.99886 6.82297C4.34786 4.84997 6.28886 3.69297 8.61186 3.47697C11.1499 3.24197 13.8519 4.16897 15.9999 5.98597C18.1479 4.16997 20.8519 3.24197 23.3879 3.47697C25.7109 3.69297 27.6519 4.84997 29.0009 6.82297C31.4869 10.457 30.9419 15.444 27.7059 18.679L17.4139 28.971C17.0239 29.36 16.5119 29.556 15.9999 29.556ZM9.38086 5.44097C9.1859 5.44106 8.99105 5.44973 8.79686 5.46697C7.08586 5.62697 5.65186 6.48497 4.64886 7.95097C2.70686 10.792 3.15186 14.709 5.70786 17.264L15.9999 27.557L26.2919 17.265C28.8479 14.709 29.2929 10.792 27.3509 7.95197C26.3489 6.48597 24.9139 5.62797 23.2039 5.46897C20.9929 5.26797 18.5059 6.25197 16.7079 8.05097C16.6151 8.14392 16.5049 8.21765 16.3835 8.26796C16.2622 8.31828 16.1322 8.34417 16.0009 8.34417C15.8695 8.34417 15.7395 8.31828 15.6182 8.26796C15.4968 8.21765 15.3866 8.14392 15.2939 8.05097C13.6519 6.40797 11.4349 5.44097 9.38086 5.44097Z" fill="#0B0B0B"/>
<path d="M7.83019 16.1439C7.69886 16.1441 7.56879 16.1183 7.44746 16.068C7.32613 16.0177 7.21593 15.9439 7.12319 15.8509C5.27719 14.0049 4.92419 11.0939 6.30019 9.07994C7.04419 7.99194 8.08219 7.43994 9.38619 7.43994C9.65141 7.43994 9.90576 7.5453 10.0933 7.73283C10.2808 7.92037 10.3862 8.17472 10.3862 8.43994C10.3862 8.70516 10.2808 8.95951 10.0933 9.14705C9.90576 9.33458 9.65141 9.43994 9.38619 9.43994C8.74019 9.43994 8.32419 9.66294 7.95119 10.2089C7.10819 11.4419 7.35919 13.2599 8.53619 14.4369C8.67643 14.5765 8.77205 14.7547 8.81093 14.9487C8.8498 15.1427 8.83018 15.3439 8.75456 15.5268C8.67893 15.7096 8.5507 15.8659 8.38613 15.9758C8.22156 16.0856 8.02807 16.1442 7.83019 16.1439Z" fill="#FFB22C"/>
</svg>
