<svg width="111" height="40" viewBox="0 0 111 40" fill="none" xmlns="http://www.w3.org/2000/svg">
<path d="M16.0876 34.5764C11.5342 34.5764 7.09373 34.5789 2.65331 34.5752C0.776639 34.5737 0.0447637 33.8543 0.0438482 31.9982C0.0399885 24.171 0.0402917 16.3439 0.0434374 8.51667C0.0442157 6.57993 0.754916 5.87679 2.7038 5.87637C12.0738 5.87436 21.4439 5.87438 30.8139 5.87644C32.7681 5.87687 33.4827 6.58011 33.4835 8.51056C33.4866 16.3377 33.4869 24.1649 33.4833 31.9921C33.4825 33.8464 32.7462 34.574 30.8765 34.5754C25.9845 34.5791 21.0925 34.5765 16.0876 34.5764ZM6.09445 9.76519C5.81355 9.95784 5.29418 10.1437 5.28848 10.3442C5.22891 12.4385 5.25173 14.5351 5.25173 16.6762C5.63934 16.6956 5.89599 16.7196 6.15265 16.7197C11.3503 16.7218 16.548 16.7158 21.7456 16.7263C22.5787 16.728 23.3113 16.6025 23.3212 15.5765C23.3312 14.5337 22.5879 14.426 21.7582 14.4281C17.4645 14.4391 13.1708 14.4328 8.87704 14.4325C8.47811 14.4325 8.07917 14.4325 7.61641 14.4325C7.61641 13.6154 7.61641 12.9581 7.61641 12.3242C7.72841 12.2624 7.79188 12.1968 7.85542 12.1968C12.8256 12.1911 17.7961 12.165 22.7659 12.2075C24.0126 12.2181 25.2058 13.312 25.5595 14.5106C26.265 16.9015 24.6314 19.0163 22.0035 19.0256C16.8437 19.0439 11.6836 19.0167 6.5236 19.0086C6.12519 19.0079 5.72678 19.0085 5.32114 19.0085C5.32114 22.9517 5.32114 26.7351 5.32114 30.5711C7.62985 30.5711 9.86681 30.5711 12.2356 30.5711C12.2356 29.0062 12.2356 27.5225 12.2356 25.957C13.8671 25.957 15.3688 25.9197 16.8657 25.9872C17.1809 26.0014 17.5788 26.3365 17.7666 26.6327C18.451 27.7122 19.013 28.8715 19.7293 29.9272C19.9702 30.2823 20.5275 30.6084 20.9511 30.6225C23.0579 30.6927 25.1684 30.6584 27.2776 30.6486C27.5099 30.6475 27.7419 30.5677 28.0764 30.5053C27.0073 28.6742 25.9929 26.9601 25.0015 25.2328C23.9319 23.3692 23.8855 23.339 21.4911 23.7531C22.3214 25.2373 23.132 26.6863 23.963 28.1717C21.5097 28.4339 21.5101 28.4337 20.3525 26.4379C19.975 25.787 19.5488 25.1593 19.2291 24.4813C18.9137 23.8123 18.4786 23.5696 17.7301 23.5861C15.509 23.6349 13.2861 23.6002 11.0639 23.6069C10.7078 23.608 10.3518 23.6539 9.89165 23.6865C9.89165 25.2584 9.89165 26.7123 9.89165 28.2061C9.0781 28.2061 8.37942 28.2061 7.55092 28.2061C7.55092 26.2791 7.60388 24.4039 7.52907 22.5338C7.49037 21.5663 7.82688 21.3401 8.74377 21.3515C13.0369 21.4051 17.331 21.3901 21.6247 21.4016C23.9118 21.4078 25.859 20.6798 27.1337 18.6856C28.3512 16.7809 28.4047 14.766 27.3229 12.7918C26.2136 10.7672 24.4105 9.78578 22.1264 9.77421C16.8536 9.74748 11.5805 9.76531 6.09445 9.76519Z" fill="#FFB22C"/>
<path d="M61.099 23.4453C60.2078 22.5189 59.3913 21.5454 58.5963 20.5545C58.5539 20.5017 58.6989 20.1895 58.7473 20.1918C58.9441 20.2014 59.2017 20.2272 59.3193 20.3552C59.6475 20.7125 59.9172 21.1237 60.3421 21.6895C60.4008 21.2597 60.4664 20.9984 60.4675 20.7368C60.476 18.7039 60.4622 16.6709 60.4756 14.638C60.4843 13.3093 61.0524 12.6181 62.0784 12.6298C63.1015 12.6415 63.6688 13.3264 63.6738 14.6633C63.6887 18.5786 63.6789 22.494 63.6793 26.4094C63.6794 27.2997 63.4646 28.069 62.4979 28.3623C61.5687 28.6442 61.0139 28.1009 60.5265 27.424C58.8125 25.0436 57.0955 22.6654 55.3783 20.2874C55.1471 19.9673 54.9079 19.6529 54.5006 19.1046C54.5006 21.6358 54.5067 23.877 54.4951 26.1181C54.493 26.5268 54.4858 26.9566 54.3635 27.3391C54.1166 28.1106 53.4675 28.631 52.7387 28.3811C52.1785 28.189 51.4291 27.5195 51.3908 27.0147C51.2344 24.9558 51.3091 22.8784 51.3314 20.8082C51.3335 20.6141 51.5659 20.4224 51.6914 20.2296C51.8175 20.4224 52.0431 20.6105 52.0524 20.8087C52.0929 21.6727 52.0705 22.5397 52.0708 23.4056C52.0713 24.4221 51.9969 25.4469 52.1086 26.451C52.1537 26.857 52.5535 27.481 52.882 27.5453C53.593 27.6844 53.6536 27.0346 53.6534 26.477C53.6523 23.8417 53.6464 21.2063 53.6594 18.5711C53.6613 18.1871 53.7564 17.8035 53.8531 17.0884C54.3284 17.6105 54.6155 17.872 54.839 18.1798C56.916 21.0404 58.967 23.92 61.0697 26.7614C61.3421 27.1294 61.8651 27.312 62.2719 27.5805C62.4672 27.1052 62.8258 26.6321 62.8317 26.1545C62.8783 22.3903 62.8576 18.6253 62.8575 14.8605C62.8575 14.7476 62.9024 14.6039 62.8498 14.5269C62.589 14.1453 62.3024 13.7813 62.0248 13.4112C61.7817 13.7724 61.3387 14.1278 61.3281 14.4958C61.2628 16.7527 61.3045 19.0126 61.2899 21.2713C61.2854 21.9793 61.2172 22.6868 61.099 23.4453Z" fill="black"/>
<path d="M90.8433 19.759C90.5982 19.8565 90.4006 19.8874 90.203 19.9183C90.1895 19.7239 90.093 19.4774 90.1768 19.3442C90.5365 18.7722 90.9291 18.2171 91.3542 17.6919C91.4947 17.5184 91.7692 17.4534 91.9824 17.3388C92.074 17.5633 92.2405 17.7864 92.2448 18.0127C92.2701 19.3302 92.2572 20.6484 92.2573 21.9664C92.2574 23.5103 92.2099 25.0569 92.2938 26.5962C92.3129 26.9454 92.788 27.2698 93.0533 27.6055C93.3185 27.268 93.8099 26.9333 93.8144 26.5924C93.8677 22.4885 93.8616 18.3835 93.8257 14.2792C93.8228 13.9419 93.5227 13.3581 93.3026 13.3291C92.9577 13.2837 92.432 13.5134 92.2117 13.8015C90.9555 15.4443 89.7696 17.1407 88.5537 18.8144C88.319 19.1374 88.057 19.4406 87.7028 19.8843C87.2479 19.2965 86.8792 18.8435 86.5359 18.372C85.4512 16.8817 84.4029 15.3637 83.2761 13.9062C83.026 13.5826 82.512 13.463 82.1195 13.2495C81.9252 13.6566 81.6036 14.0514 81.5629 14.4734C81.4763 15.3688 81.5495 16.2787 81.529 17.182C81.5211 17.5299 81.4368 17.876 81.3873 18.223C81.2728 18.2411 81.1584 18.2593 81.0439 18.2775C80.937 17.9903 80.7475 17.7058 80.7378 17.4153C80.7014 16.3245 80.5985 15.2113 80.7725 14.1477C80.871 13.5462 81.3405 12.8162 81.8581 12.5187C82.5585 12.1163 83.2996 12.4956 83.7985 13.1935C85.0627 14.9616 86.34 16.7204 87.6954 18.5985C88.9386 16.8862 90.1403 15.2644 91.3029 13.6152C91.8547 12.8325 92.4402 12.1409 93.5098 12.4804C94.5647 12.8153 94.696 13.6932 94.6911 14.6646C94.6713 18.5808 94.6881 22.4972 94.6796 26.4135C94.6768 27.6684 94.0455 28.4387 93.0581 28.4494C92.0746 28.4602 91.4664 27.7079 91.4305 26.4234C91.419 26.0095 91.4292 25.595 91.4287 25.1808C91.4263 23.298 91.4244 21.4152 91.4186 19.5324C91.4183 19.4637 91.3791 19.3951 91.3209 19.2057C91.1488 19.4005 91.0199 19.5465 90.8433 19.759Z" fill="black"/>
<path d="M47.6308 21.6079C46.7231 21.7786 45.8844 21.9406 45.0392 21.9876C44.0339 22.0436 43.023 22.0008 41.9566 22.0008C41.9566 23.1088 41.9566 24.105 41.9566 25.232C43.6048 25.232 45.2121 25.2191 46.8189 25.2404C47.2619 25.2463 47.7479 25.2568 48.1373 25.4341C49.1352 25.8883 49.3031 27.2428 48.5081 27.9905C47.8595 28.6005 45.6701 28.6572 44.8014 27.8084C45.371 27.7482 45.9421 27.6997 46.5097 27.6246C47.1507 27.5398 48.1573 27.9518 48.1592 26.8365C48.1611 25.752 47.1825 26.0294 46.5164 26.0203C44.7553 25.9964 42.9937 26.0122 41.1802 26.0122C41.1802 24.3903 41.1802 22.8957 41.1802 21.2194C42.6264 21.2194 44.0394 21.2196 45.4523 21.2193C45.791 21.2193 46.176 21.3195 46.4567 21.1914C46.809 21.0307 47.0759 20.6825 47.3796 20.4152C47.0791 20.147 46.7913 19.6661 46.4757 19.6471C45.0508 19.5611 43.616 19.5606 42.1886 19.6206C41.3341 19.6566 41.0633 19.3645 41.1088 18.5231C41.1734 17.3305 41.1252 16.1317 41.1252 14.9757C42.1239 14.9757 42.985 14.9757 43.8461 14.9757C43.8621 15.1235 43.8781 15.2714 43.8941 15.4192C43.2705 15.5098 42.6469 15.6005 41.9553 15.701C41.9553 16.6613 41.9553 17.6585 41.9553 18.7867C43.3639 18.7867 44.7905 18.6976 46.1969 18.8275C46.8195 18.8851 47.6348 19.2443 47.9293 19.7295C48.1774 20.1382 47.7984 20.9275 47.6308 21.6079Z" fill="black"/>
<path d="M104.724 21.9958C103.167 21.999 101.706 21.999 100.204 21.999C100.204 23.0854 100.204 24.0925 100.204 25.2361C101.971 25.2361 103.721 25.2352 105.471 25.2364C106.42 25.2371 107.145 25.6431 107.198 26.6238C107.224 27.105 106.938 27.7176 106.592 28.0784C106.039 28.6558 103.918 28.5965 103.059 27.8214C103.581 27.7573 104.104 27.7049 104.624 27.6262C105.298 27.5241 106.398 27.9939 106.42 26.8701C106.443 25.6581 105.308 26.0411 104.592 26.0243C102.905 25.9845 101.216 26.0115 99.4637 26.0115C99.4637 24.3812 99.4637 22.8544 99.4637 21.2203C101.102 21.2203 102.677 21.2197 104.252 21.2206C104.859 21.2209 105.572 21.297 105.604 20.4354C105.637 19.5467 104.918 19.6061 104.31 19.6042C102.955 19.5999 101.6 19.5814 100.246 19.6121C99.6155 19.6264 99.3702 19.4048 99.3881 18.7622C99.4227 17.5229 99.3982 16.2819 99.3982 14.9835C100.334 14.9835 101.21 14.9835 102.085 14.9835C102.102 15.1319 102.118 15.2802 102.135 15.4285C101.514 15.5131 100.892 15.5976 100.213 15.69C100.213 16.6589 100.213 17.6588 100.213 18.7879C101.674 18.7879 103.127 18.773 104.579 18.7927C105.692 18.8077 106.457 19.4191 106.439 20.3362C106.42 21.3478 105.854 21.9223 104.724 21.9958Z" fill="black"/>
<path d="M67.699 13.1078C67.3284 13.4738 67.0417 13.8039 66.755 14.1341C67.1388 14.3662 67.5034 14.7463 67.9106 14.7991C68.7244 14.9048 69.5646 14.876 70.3881 14.8188C71.18 14.7638 71.4273 15.0496 71.4183 15.8424C71.3807 19.1519 71.4023 22.4621 71.4025 25.772C71.4025 26.0729 71.3124 26.4171 71.4281 26.6643C71.592 27.0144 71.9086 27.2929 72.1599 27.602C72.4425 27.2811 72.955 26.9703 72.9695 26.6379C73.0496 24.7983 73.0083 22.9534 73.0088 21.1104C73.0089 20.8471 72.9655 20.5729 73.0264 20.3243C73.0687 20.152 73.2553 20.0151 73.3775 19.8624C73.5043 20.009 73.7406 20.1549 73.7417 20.3024C73.758 22.596 73.792 24.8916 73.7108 27.1828C73.6821 27.9949 72.9567 28.5424 72.2213 28.3881C71.6389 28.2658 71.0357 27.711 70.6873 27.1855C70.4389 26.8109 70.5792 26.1661 70.5783 25.6419C70.5723 22.3373 70.5752 19.0327 70.5752 15.5985C69.5185 15.5985 68.5135 15.6389 67.5133 15.5866C66.6119 15.5395 66.0562 15.0318 65.9842 14.0985C65.921 13.2782 66.3078 12.7078 67.0806 12.4716C67.5248 12.3358 68.0695 12.2667 67.699 13.1078Z" fill="black"/>
<path d="M83.8833 27.2615C83.4869 28.1592 82.8723 28.604 81.9719 28.3782C81.0218 28.14 80.7121 27.4191 80.7219 26.4883C80.7405 24.7192 80.703 22.9492 80.7468 21.1811C80.756 20.8114 81.016 20.4479 81.1604 20.0816C81.2829 20.4323 81.5039 20.7809 81.5113 21.1341C81.5499 22.9778 81.4982 24.8241 81.5717 26.6658C81.5845 26.9869 82.045 27.2902 82.2988 27.6017C82.592 27.2869 82.9234 26.9979 83.1608 26.6456C83.2657 26.4899 83.1803 26.2057 83.1803 25.9798C83.1805 23.4954 83.1805 21.0109 83.1805 18.5265C83.1805 18.1584 83.1805 17.7903 83.1805 17.0504C83.6946 17.4772 84.0178 17.6576 84.2197 17.9285C85.0509 19.0437 85.839 20.1908 86.6549 21.3175C87.4613 22.4311 87.8749 22.4304 88.696 21.3534C88.9138 21.0677 89.1605 20.8041 89.5588 20.3372C89.9799 21.5665 89.2057 22.0971 88.688 22.5494C87.9882 23.1607 87.1103 23.08 86.4708 22.3556C85.9012 21.7103 85.4429 20.9671 84.9309 20.2705C84.6963 19.9513 84.4508 19.6401 84.2103 19.3252C84.1068 19.3426 84.0033 19.36 83.8998 19.3774C83.8998 21.9756 83.8998 24.5738 83.8833 27.2615Z" fill="black"/>
<path d="M44.5609 12.4057C45.5774 12.4068 46.4815 12.397 47.3851 12.412C48.379 12.4286 48.9193 12.9957 49.0154 13.938C49.1043 14.8081 48.3584 15.5585 47.3862 15.5858C46.6154 15.6074 45.8418 15.5279 45.0695 15.4933C45.0601 15.3521 45.0507 15.2109 45.0414 15.0697C45.2878 14.9921 45.5305 14.8666 45.7814 14.847C46.2682 14.809 46.7991 14.9444 47.2371 14.7927C47.6106 14.6634 47.8796 14.2322 48.1948 13.9346C47.8785 13.6764 47.578 13.2226 47.2429 13.1955C46.0829 13.1017 44.9109 13.1557 43.7434 13.1547C42.7643 13.1539 41.784 13.1833 40.8062 13.147C39.8315 13.1108 39.4283 13.5454 39.4849 14.5031C39.5204 15.1035 39.5293 15.7117 39.4704 16.3085C39.4477 16.5382 39.2039 16.7462 39.0609 16.9641C38.9392 16.7654 38.7221 16.5711 38.7126 16.3671C38.6739 15.5405 38.6397 14.7054 38.7159 13.8838C38.805 12.9247 39.3987 12.4134 40.3809 12.4092C41.7367 12.4036 43.0925 12.4065 44.5609 12.4057Z" fill="black"/>
<path d="M73.0174 16.7201C73.0173 16.0604 73.0173 15.5064 73.0173 14.8434C74.1072 14.8434 75.0782 14.8554 76.0487 14.8392C76.7058 14.8282 77.5805 14.9805 77.6075 14.0142C77.6353 13.0226 76.7613 13.1551 76.1 13.1516C74.1845 13.1415 72.269 13.1516 70.3535 13.1448C69.9994 13.1436 69.6455 13.1007 69.2916 13.0771C69.2644 12.9692 69.2372 12.8612 69.21 12.7532C69.4477 12.6392 69.6844 12.4287 69.9232 12.4263C72.2516 12.4032 74.5806 12.3941 76.9088 12.427C77.8348 12.4401 78.3495 13.0184 78.4389 13.9152C78.5225 14.7541 77.8497 15.5246 76.9529 15.5745C75.9429 15.6306 74.9273 15.5874 73.6803 15.5874C73.6803 16.5808 73.6803 17.5356 73.6803 18.4905C73.5057 18.4986 73.3312 18.5068 73.1567 18.5149C73.1103 17.9518 73.0638 17.3888 73.0174 16.7201Z" fill="black"/>
<path d="M106.401 15.3945C105.303 15.6211 104.287 15.8225 103.341 15.3237C103.344 15.1634 103.347 15.0032 103.35 14.843C103.984 14.843 104.619 14.8511 105.253 14.8407C105.846 14.8309 106.537 14.7209 106.415 13.9964C106.358 13.6574 105.66 13.203 105.237 13.1863C103.136 13.1033 101.03 13.1571 98.9254 13.1447C98.0713 13.1397 97.6892 13.5398 97.7061 14.384C97.723 15.2347 97.7098 16.086 97.7098 17.0119C97.392 16.9409 97.1339 16.9105 97.1338 16.8794C97.1303 15.6649 97.0303 14.429 97.2399 13.2487C97.3035 12.8907 98.2228 12.4712 98.7653 12.449C100.979 12.3585 103.202 12.3436 105.413 12.4556C106.006 12.4857 106.78 12.9289 107.097 13.4225C107.532 14.0998 107.216 14.873 106.401 15.3945Z" fill="black"/>
<path d="M38.6909 26.9736C38.6851 23.8747 38.6851 20.8747 38.6851 17.8746C38.8721 17.8576 39.0591 17.8405 39.2461 17.8235C39.3346 18.1958 39.4961 18.5675 39.4996 18.9406C39.5227 21.3795 39.544 23.8193 39.4961 26.2575C39.476 27.281 39.845 27.7067 40.8746 27.6218C41.5455 27.5665 42.226 27.5866 42.8995 27.6227C43.2271 27.6403 43.5486 27.7718 43.8728 27.8518C43.8806 27.9543 43.8883 28.0568 43.8961 28.1593C43.6584 28.259 43.4234 28.436 43.1824 28.4446C42.2455 28.4781 41.3062 28.4761 40.3687 28.453C39.4661 28.4307 38.9114 27.9478 38.6909 26.9736Z" fill="black"/>
<path d="M57.5916 17.9308C57.8017 18.4631 57.9608 18.9317 58.1198 19.4003C57.7502 19.0945 57.3059 18.8451 57.024 18.4729C55.9147 17.0083 54.8783 15.4883 53.7618 14.0294C53.5252 13.7203 53.0654 13.582 52.7084 13.365C52.4935 13.7555 52.1228 14.1346 52.0933 14.5386C52.0087 15.6963 52.0796 16.8645 52.0454 18.0273C52.0395 18.2279 51.8184 18.4222 51.6966 18.6193C51.5712 18.4228 51.3417 18.2286 51.3372 18.0294C51.3071 16.6787 51.2361 15.3178 51.374 13.9803C51.4228 13.5068 51.9305 12.912 52.3843 12.6881C53.075 12.3472 53.7692 12.6456 54.2455 13.3073C55.3409 14.8294 56.4418 16.3474 57.5916 17.9308Z" fill="black"/>
<path d="M101.882 27.7421C101.783 28.0128 101.621 28.4041 101.436 28.4158C100.464 28.4772 99.4824 28.4904 98.5104 28.4269C97.622 28.3689 97.0004 27.8612 96.9882 26.9311C96.9512 24.1159 96.9655 21.3 96.981 18.4844C96.9822 18.2705 97.1501 18.0575 97.2405 17.8441C97.3397 17.849 97.4389 17.8538 97.5381 17.8587C97.597 18.2216 97.7045 18.5841 97.7068 18.9474C97.7222 21.3125 97.7111 23.6777 97.7161 26.0428C97.7192 27.5216 97.8225 27.6122 99.3383 27.6297C100.162 27.6392 100.985 27.6676 101.882 27.7421Z" fill="black"/>
<path d="M6.2011 9.76518C11.5806 9.76536 16.8537 9.74753 22.1266 9.77426C24.4107 9.78583 26.2137 10.7673 27.323 12.7918C28.4048 14.7661 28.3513 16.781 27.1338 18.6857C25.8591 20.6799 23.9119 21.4078 21.6248 21.4017C17.3311 21.3901 13.0371 21.4052 8.7439 21.3516C7.827 21.3401 7.4905 21.5664 7.5292 22.5339C7.604 24.404 7.55104 26.2792 7.55104 28.2061C8.37954 28.2061 9.07823 28.2061 9.89177 28.2061C9.89177 26.7123 9.89177 25.2584 9.89177 23.6866C10.3519 23.654 10.7079 23.608 11.064 23.607C13.2862 23.6003 15.5091 23.635 17.7302 23.5861C18.4788 23.5696 18.9138 23.8123 19.2293 24.4813C19.549 25.1593 19.9751 25.787 20.3526 26.4379C21.5102 28.4338 21.5099 28.434 23.9631 28.1718C23.1322 26.6864 22.3215 25.2373 21.4912 23.7531C23.8856 23.339 23.932 23.3693 25.0016 25.2328C25.993 26.9601 27.0074 28.6743 28.0765 30.5053C27.742 30.5677 27.51 30.6476 27.2777 30.6486C25.1686 30.6585 23.0581 30.6927 20.9512 30.6225C20.5277 30.6084 19.9704 30.2824 19.7294 29.9273C19.0131 28.8715 18.4512 27.7122 17.7667 26.6328C17.5789 26.3365 17.181 26.0014 16.8659 25.9872C15.3689 25.9198 13.8672 25.9571 12.2357 25.9571C12.2357 27.5226 12.2357 29.0062 12.2357 30.5712C9.86693 30.5712 7.62997 30.5712 5.32126 30.5712C5.32126 26.7352 5.32126 22.9517 5.32126 19.0085C5.72691 19.0085 6.12532 19.008 6.52373 19.0086C11.6837 19.0168 16.8438 19.0439 22.0037 19.0256C24.6316 19.0163 26.2651 16.9016 25.5596 14.5106C25.2059 13.312 24.0128 12.2182 22.7661 12.2075C17.7962 12.165 12.8258 12.1911 7.85555 12.1968C7.792 12.1969 7.72853 12.2625 7.61653 12.3242C7.61653 12.9581 7.61653 13.6155 7.61653 14.4325C8.07929 14.4325 8.47823 14.4325 8.87717 14.4325C13.1709 14.4328 17.4646 14.4391 21.7583 14.4282C22.588 14.4261 23.3313 14.5338 23.3213 15.5765C23.3114 16.6026 22.5788 16.728 21.7458 16.7264C16.5481 16.7158 11.3504 16.7218 6.15277 16.7197C5.89611 16.7196 5.63946 16.6957 5.25186 16.6763C5.25186 14.5352 5.22903 12.4385 5.2886 10.3442C5.2943 10.1438 5.81367 9.95789 6.2011 9.76518Z" fill="white"/>
</svg>
