<svg width="177" height="64" viewBox="0 0 177 64" fill="none" xmlns="http://www.w3.org/2000/svg">
<path d="M25.7402 55.3222C18.4547 55.3222 11.35 55.3262 4.24535 55.3203C1.24267 55.3179 0.0716707 54.1669 0.070206 51.1971C0.0640305 38.6736 0.0645155 26.1502 0.0695487 13.6267C0.070794 10.5279 1.20791 9.40284 4.32612 9.40217C19.3182 9.39895 34.3103 9.39898 49.3023 9.40227C52.4289 9.40296 53.5724 10.5281 53.5736 13.6169C53.5786 26.1404 53.5791 38.6639 53.5734 51.1874C53.572 54.1543 52.394 55.3183 49.4024 55.3206C41.5753 55.3266 33.7481 55.3224 25.7402 55.3222ZM9.75118 15.6243C9.30172 15.9325 8.47073 16.2299 8.46161 16.5507C8.3663 19.9016 8.40282 23.2562 8.40282 26.6819C9.02299 26.713 9.43363 26.7513 9.84428 26.7515C18.1605 26.7548 26.4768 26.7452 34.7931 26.7621C36.126 26.7648 37.2981 26.564 37.3139 24.9224C37.33 23.254 36.1407 23.0816 34.8132 23.085C27.9433 23.1025 21.0733 23.0924 14.2033 23.092C13.565 23.0919 12.9267 23.0919 12.1863 23.0919C12.1863 21.7846 12.1863 20.7329 12.1863 19.7187C12.3655 19.6199 12.467 19.5149 12.5687 19.5148C20.5211 19.5057 28.4738 19.464 36.4255 19.5319C38.4203 19.549 40.3294 21.2992 40.8952 23.2169C42.024 27.0424 39.4104 30.426 35.2057 30.4409C26.9499 30.4702 18.6938 30.4268 10.4378 30.4137C9.80036 30.4126 9.1629 30.4135 8.51387 30.4135C8.51387 36.7227 8.51387 42.7762 8.51387 48.9138C12.2078 48.9138 15.7869 48.9138 19.577 48.9138C19.577 46.4099 19.577 44.036 19.577 41.5312C22.1874 41.5312 24.5901 41.4716 26.9852 41.5795C27.4895 41.6022 28.1261 42.1383 28.4266 42.6123C29.5217 44.3394 30.4208 46.1943 31.567 47.8836C31.9524 48.4517 32.8441 48.9734 33.5218 48.996C36.8928 49.1083 40.2695 49.0534 43.6442 49.0377C44.0159 49.036 44.387 48.9083 44.9223 48.8084C43.2117 45.8787 41.5886 43.1361 40.0024 40.3724C38.2911 37.3907 38.2169 37.3424 34.3858 38.0049C35.7143 40.3796 37.0113 42.6981 38.3408 45.0747C34.4156 45.4943 34.4162 45.4939 32.564 42.3006C31.96 41.2591 31.2782 40.2548 30.7667 39.17C30.2619 38.0996 29.5659 37.7113 28.3682 37.7377C24.8144 37.8159 21.2578 37.7603 17.7023 37.771C17.1325 37.7727 16.5629 37.8463 15.8267 37.8984C15.8267 40.4134 15.8267 42.7397 15.8267 45.1297C14.525 45.1297 13.4071 45.1297 12.0815 45.1297C12.0815 42.0466 12.1663 39.0462 12.0466 36.0541C11.9846 34.5061 12.523 34.1441 13.9901 34.1624C20.8591 34.2482 27.7296 34.2241 34.5995 34.2426C38.2589 34.2524 41.3745 33.0877 43.414 29.897C45.362 26.8495 45.4475 23.6256 43.7167 20.4668C41.9418 17.2275 39.0569 15.6572 35.4024 15.6387C26.9658 15.5959 18.5288 15.6245 9.75118 15.6243Z" fill="#FFB22C"/>
<path d="M97.7582 37.5125C96.3323 36.0303 95.0258 34.4726 93.7538 32.8872C93.686 32.8026 93.9181 32.3031 93.9954 32.3069C94.3103 32.3222 94.7225 32.3635 94.9106 32.5682C95.4358 33.14 95.8673 33.7979 96.5471 34.7031C96.641 34.0156 96.7459 33.5975 96.7477 33.1789C96.7613 29.9262 96.7393 26.6734 96.7607 23.4207C96.7746 21.2949 97.6836 20.1889 99.3251 20.2076C100.962 20.2264 101.87 21.3223 101.878 23.4613C101.902 29.7258 101.886 35.9904 101.887 42.2549C101.887 43.6794 101.543 44.9104 99.9964 45.3796C98.5096 45.8307 97.6219 44.9613 96.8421 43.8783C94.0997 40.0698 91.3526 36.2646 88.6051 32.4598C88.2352 31.9476 87.8525 31.4447 87.2008 30.5673C87.2008 34.6173 87.2105 38.2032 87.1919 41.789C87.1885 42.4429 87.1771 43.1306 86.9813 43.7425C86.5864 44.9769 85.5478 45.8096 84.3816 45.4098C83.4853 45.1024 82.2864 44.0313 82.225 43.2236C81.9748 39.9293 82.0942 36.6055 82.13 33.2931C82.1333 32.9825 82.5052 32.6758 82.706 32.3673C82.9077 32.6757 83.2687 32.9767 83.2836 33.2939C83.3484 34.6764 83.3125 36.0635 83.3131 37.4489C83.3138 39.0753 83.1949 40.715 83.3735 42.3216C83.4457 42.9712 84.0853 43.9696 84.6109 44.0724C85.7485 44.295 85.8455 43.2553 85.8451 42.3632C85.8435 38.1467 85.834 33.9301 85.8548 29.7137C85.8579 29.0993 86.0099 28.4856 86.1648 27.3414C86.9251 28.1768 87.3845 28.5953 87.7421 29.0877C91.0653 33.6645 94.347 38.2719 97.7113 42.8182C98.1471 43.407 98.9838 43.6991 99.6349 44.1287C99.9472 43.3684 100.521 42.6113 100.531 41.8472C100.605 35.8245 100.572 29.8004 100.572 23.7768C100.572 23.5961 100.644 23.3662 100.559 23.243C100.142 22.6325 99.6835 22.0501 99.2395 21.4578C98.8505 22.0358 98.1417 22.6045 98.1247 23.1932C98.0202 26.8043 98.0869 30.4201 98.0636 34.0341C98.0563 35.1668 97.9472 36.2989 97.7582 37.5125Z" fill="black"/>
<path d="M145.349 31.6144C144.957 31.7704 144.641 31.8198 144.325 31.8693C144.303 31.5583 144.149 31.1638 144.283 30.9507C144.858 30.0355 145.486 29.1473 146.167 28.307C146.391 28.0294 146.831 27.9254 147.172 27.742C147.318 28.1013 147.585 28.4583 147.592 28.8203C147.632 30.9283 147.612 33.0374 147.612 35.1462C147.612 37.6165 147.536 40.091 147.67 42.554C147.701 43.1127 148.461 43.6316 148.885 44.1688C149.309 43.6287 150.096 43.0933 150.103 42.5478C150.188 35.9815 150.178 29.4136 150.121 22.8467C150.116 22.307 149.636 21.373 149.284 21.3266C148.732 21.2538 147.891 21.6214 147.539 22.0824C145.529 24.7109 143.631 27.4251 141.686 30.103C141.31 30.6199 140.891 31.105 140.324 31.8149C139.597 30.8743 139.007 30.1496 138.457 29.3951C136.722 27.0107 135.045 24.5819 133.242 22.2499C132.841 21.7322 132.019 21.5408 131.391 21.1992C131.08 21.8506 130.566 22.4823 130.501 23.1574C130.362 24.5901 130.479 26.0458 130.446 27.4911C130.434 28.0478 130.299 28.6016 130.22 29.1567C130.036 29.1858 129.853 29.2149 129.67 29.2439C129.499 28.7844 129.196 28.3293 129.18 27.8645C129.122 26.1192 128.958 24.338 129.236 22.6362C129.393 21.6738 130.145 20.5059 130.973 20.0299C132.093 19.386 133.279 19.993 134.078 21.1096C136.1 23.9386 138.144 26.7526 140.313 29.7576C142.302 27.0179 144.224 24.4231 146.085 21.7842C146.967 20.5319 147.904 19.4254 149.616 19.9686C151.303 20.5044 151.514 21.909 151.506 23.4633C151.474 29.7293 151.501 35.9955 151.487 42.2616C151.483 44.2694 150.473 45.5019 148.893 45.5191C147.319 45.5362 146.346 44.3327 146.289 42.2775C146.27 41.6152 146.287 40.952 146.286 40.2893C146.282 37.2768 146.279 34.2643 146.27 31.2518C146.269 31.1419 146.206 31.0322 146.113 30.729C145.838 31.0407 145.632 31.2743 145.349 31.6144Z" fill="black"/>
<path d="M76.209 34.5727C74.7567 34.8458 73.4147 35.105 72.0625 35.1802C70.4539 35.2698 68.8366 35.2013 67.1303 35.2013C67.1303 36.9741 67.1303 38.5681 67.1303 40.3713C69.7674 40.3713 72.339 40.3507 74.9099 40.3847C75.6188 40.3941 76.3964 40.4109 77.0195 40.6946C78.6161 41.4214 78.8846 43.5885 77.6127 44.7849C76.5749 45.7609 73.0718 45.8516 71.6819 44.4935C72.5932 44.3971 73.5071 44.3196 74.4153 44.1994C75.4409 44.0638 77.0513 44.7229 77.0544 42.9385C77.0574 41.2033 75.4917 41.647 74.426 41.6326C71.6082 41.5943 68.7897 41.6196 65.888 41.6196C65.888 39.0246 65.888 36.6332 65.888 33.9511C68.202 33.9511 70.4627 33.9514 72.7234 33.9509C73.2653 33.9509 73.8813 34.1112 74.3304 33.9064C74.8942 33.6492 75.3211 33.0921 75.8071 32.6644C75.3262 32.2353 74.8658 31.4658 74.3609 31.4353C72.0809 31.2978 69.7853 31.297 67.5014 31.3931C66.1342 31.4506 65.7009 30.9832 65.7738 29.637C65.8772 27.7288 65.8001 25.8108 65.8001 23.9612C67.3979 23.9612 68.7757 23.9612 70.1535 23.9612C70.179 24.1977 70.2046 24.4342 70.2302 24.6708C69.2325 24.8158 68.2348 24.9608 67.1282 25.1216C67.1282 26.6582 67.1282 28.2536 67.1282 30.0587C69.3819 30.0587 71.6645 29.9161 73.9148 30.1241C74.9109 30.2162 76.2154 30.7909 76.6866 31.5673C77.0835 32.2212 76.4771 33.484 76.209 34.5727Z" fill="black"/>
<path d="M167.559 35.1931C165.067 35.1983 162.731 35.1983 160.326 35.1983C160.326 36.9364 160.326 38.5479 160.326 40.3776C163.154 40.3776 165.954 40.3763 168.754 40.3782C170.272 40.3792 171.432 41.0288 171.517 42.5979C171.558 43.3679 171.1 44.3481 170.547 44.9253C169.662 45.8492 166.269 45.7543 164.894 44.5141C165.729 44.4116 166.567 44.3277 167.398 44.2018C168.477 44.0385 170.236 44.7902 170.271 42.992C170.309 41.0529 168.494 41.6657 167.348 41.6387C164.648 41.575 161.946 41.6183 159.142 41.6183C159.142 39.0098 159.142 36.5669 159.142 33.9523C161.763 33.9523 164.283 33.9514 166.803 33.9528C167.775 33.9533 168.915 34.0751 168.966 32.6966C169.02 31.2745 167.869 31.3696 166.897 31.3666C164.729 31.3597 162.56 31.3301 160.394 31.3792C159.385 31.402 158.993 31.0475 159.021 30.0194C159.077 28.0365 159.037 26.0509 159.037 23.9735C160.534 23.9735 161.936 23.9735 163.337 23.9735C163.363 24.2109 163.39 24.4482 163.416 24.6855C162.422 24.8208 161.428 24.9561 160.341 25.1039C160.341 26.6541 160.341 28.2539 160.341 30.0605C162.679 30.0605 165.003 30.0368 167.327 30.0681C169.108 30.0922 170.332 31.0704 170.303 32.5378C170.272 34.1563 169.367 35.0755 167.559 35.1931Z" fill="black"/>
<path d="M108.319 20.9725C107.726 21.5581 107.267 22.0863 106.808 22.6146C107.422 22.9859 108.006 23.594 108.657 23.6786C109.959 23.8477 111.304 23.8016 112.621 23.7101C113.888 23.6221 114.284 24.0793 114.27 25.3479C114.21 30.6431 114.244 35.9394 114.244 41.2353C114.244 41.7167 114.1 42.2674 114.285 42.663C114.548 43.223 115.054 43.6686 115.456 44.1632C115.908 43.6499 116.728 43.1526 116.752 42.6206C116.88 39.6773 116.814 36.7255 116.814 33.7767C116.815 33.3554 116.745 32.9166 116.843 32.5189C116.91 32.2432 117.209 32.0242 117.404 31.7798C117.607 32.0144 117.985 32.2478 117.987 32.4838C118.013 36.1537 118.068 39.8266 117.938 43.4925C117.892 44.7918 116.731 45.6679 115.554 45.4209C114.623 45.2253 113.658 44.3377 113.1 43.4969C112.703 42.8975 112.927 41.8658 112.926 41.027C112.916 35.7397 112.921 30.4524 112.921 24.9577C111.23 24.9577 109.622 25.0222 108.022 24.9385C106.579 24.8632 105.69 24.0508 105.575 22.5576C105.474 21.2452 106.093 20.3325 107.329 19.9546C108.04 19.7374 108.912 19.6267 108.319 20.9725Z" fill="black"/>
<path d="M134.213 43.6184C133.579 45.0547 132.595 45.7663 131.155 45.4051C129.635 45.0239 129.139 43.8706 129.155 42.3812C129.185 39.5507 129.125 36.7188 129.195 33.8897C129.209 33.2982 129.625 32.7166 129.857 32.1305C130.052 32.6916 130.406 33.2495 130.418 33.8145C130.48 36.7645 130.397 39.7185 130.515 42.6652C130.535 43.179 131.272 43.6642 131.678 44.1626C132.147 43.659 132.677 43.1967 133.057 42.6329C133.225 42.3838 133.088 41.9291 133.088 41.5677C133.089 37.5926 133.089 33.6175 133.089 29.6423C133.089 29.0534 133.089 28.4645 133.089 27.2806C133.911 27.9635 134.428 28.2522 134.751 28.6856C136.081 30.4698 137.342 32.3053 138.648 34.108C139.938 35.8897 140.6 35.8886 141.913 34.1654C142.262 33.7083 142.657 33.2866 143.294 32.5394C143.968 34.5063 142.729 35.3553 141.901 36.079C140.781 37.0571 139.376 36.928 138.353 35.7689C137.442 34.7365 136.708 33.5474 135.889 32.4327C135.514 31.922 135.121 31.4241 134.736 30.9203C134.571 30.9482 134.405 30.976 134.24 31.0038C134.24 35.1609 134.24 39.318 134.213 43.6184Z" fill="black"/>
<path d="M71.2976 19.8493C72.9241 19.8511 74.3705 19.8353 75.8163 19.8593C77.4065 19.8858 78.271 20.7933 78.4249 22.3009C78.567 23.6931 77.3736 24.8937 75.8181 24.9373C74.5848 24.972 73.347 24.8448 72.1113 24.7894C72.0963 24.5635 72.0813 24.3376 72.0663 24.1117C72.4606 23.9875 72.8489 23.7867 73.2504 23.7554C74.0293 23.6946 74.8786 23.9112 75.5795 23.6685C76.1771 23.4615 76.6075 22.7717 77.1118 22.2955C76.6057 21.8824 76.1249 21.1562 75.5888 21.1129C73.7328 20.9628 71.8576 21.0492 69.9896 21.0476C68.423 21.0463 66.8546 21.0934 65.2901 21.0353C63.7305 20.9774 63.0854 21.6727 63.176 23.2051C63.2329 24.1657 63.247 25.1388 63.1527 26.0936C63.1164 26.4613 62.7264 26.794 62.4976 27.1426C62.3029 26.8247 61.9556 26.5139 61.9403 26.1875C61.8783 24.8649 61.8237 23.5288 61.9457 22.2143C62.0881 20.6796 63.0381 19.8615 64.6096 19.8549C66.7789 19.8458 68.9481 19.8505 71.2976 19.8493Z" fill="black"/>
<path d="M116.828 26.7522C116.828 25.6967 116.828 24.8103 116.828 23.7494C118.572 23.7494 120.125 23.7687 121.678 23.7427C122.729 23.7251 124.129 23.9688 124.172 22.4228C124.217 20.8362 122.818 21.0481 121.76 21.0426C118.695 21.0264 115.63 21.0425 112.566 21.0318C111.999 21.0298 111.433 20.9612 110.867 20.9234C110.823 20.7507 110.78 20.5779 110.736 20.4052C111.116 20.2228 111.495 19.8859 111.877 19.8821C115.603 19.8451 119.329 19.8306 123.054 19.8832C124.536 19.9042 125.359 20.8295 125.502 22.2644C125.636 23.6066 124.56 24.8394 123.125 24.9192C121.509 25.009 119.884 24.9399 117.889 24.9399C117.889 26.5293 117.889 28.0571 117.889 29.5848C117.609 29.5978 117.33 29.6109 117.051 29.6239C116.977 28.723 116.902 27.8221 116.828 26.7522Z" fill="black"/>
<path d="M170.242 24.6312C168.485 24.9937 166.86 25.316 165.346 24.5178C165.351 24.2615 165.356 24.0051 165.361 23.7488C166.375 23.7488 167.39 23.7617 168.404 23.745C169.354 23.7294 170.459 23.5533 170.264 22.3943C170.173 21.8519 169.056 21.1247 168.38 21.098C165.018 20.9652 161.648 21.0513 158.281 21.0315C156.914 21.0235 156.303 21.6636 156.33 23.0144C156.357 24.3755 156.336 25.7376 156.336 27.219C155.827 27.1055 155.414 27.0568 155.414 27.007C155.409 25.0638 155.249 23.0864 155.584 21.1979C155.686 20.625 157.157 19.9539 158.025 19.9184C161.566 19.7736 165.123 19.7498 168.661 19.929C169.609 19.977 170.848 20.6862 171.355 21.4759C172.051 22.5596 171.546 23.7968 170.242 24.6312Z" fill="black"/>
<path d="M61.9056 43.1578C61.8962 38.1996 61.8962 33.3995 61.8962 28.5994C62.1955 28.5721 62.4947 28.5449 62.7939 28.5176C62.9355 29.1133 63.1939 29.7079 63.1996 30.305C63.2365 34.2072 63.2705 38.1109 63.1939 42.012C63.1618 43.6496 63.7521 44.3308 65.3995 44.1949C66.4729 44.1064 67.5617 44.1386 68.6394 44.1963C69.1635 44.2244 69.6779 44.4349 70.1967 44.5629C70.2091 44.7269 70.2215 44.8909 70.2339 45.055C69.8535 45.2144 69.4776 45.4976 69.0919 45.5114C67.5929 45.565 66.0901 45.5618 64.59 45.5248C63.146 45.4892 62.2583 44.7164 61.9056 43.1578Z" fill="black"/>
<path d="M92.147 28.6892C92.4832 29.5409 92.7377 30.2907 92.9922 31.0404C92.4007 30.5511 91.6899 30.1522 91.2388 29.5566C89.464 27.2132 87.8057 24.7812 86.0193 22.447C85.6408 21.9524 84.9051 21.7311 84.3339 21.3839C83.9901 22.0087 83.3969 22.6153 83.3497 23.2618C83.2143 25.114 83.3278 26.9832 83.2731 28.8437C83.2637 29.1646 82.9098 29.4754 82.7151 29.7909C82.5144 29.4765 82.1471 29.1658 82.14 28.847C82.0918 26.6858 81.9783 24.5084 82.1988 22.3685C82.2769 21.6108 83.0892 20.6592 83.8154 20.3009C84.9204 19.7556 86.0312 20.2329 86.7932 21.2917C88.5459 23.727 90.3073 26.1559 92.147 28.6892Z" fill="black"/>
<path d="M163.011 44.3874C162.852 44.8206 162.594 45.4467 162.298 45.4654C160.742 45.5635 159.172 45.5847 157.617 45.4832C156.196 45.3904 155.201 44.578 155.181 43.0898C155.122 38.5855 155.145 34.08 155.17 29.5752C155.172 29.2329 155.44 28.8921 155.585 28.5507C155.744 28.5584 155.903 28.5662 156.061 28.574C156.155 29.1546 156.327 29.7347 156.331 30.3159C156.356 34.1 156.338 37.8844 156.346 41.6686C156.351 44.0346 156.516 44.1796 158.942 44.2076C160.259 44.2228 161.577 44.2682 163.011 44.3874Z" fill="black"/>
<path d="M9.92142 15.6242C18.5287 15.6245 26.9656 15.5959 35.4022 15.6387C39.0567 15.6572 41.9416 17.2275 43.7165 20.4668C45.4473 23.6256 45.3618 26.8495 43.4138 29.8969C41.3743 33.0876 38.2587 34.2524 34.5993 34.2425C27.7294 34.2241 20.859 34.2481 13.9899 34.1624C12.5229 34.1441 11.9845 34.5061 12.0464 36.0541C12.1661 39.0462 12.0813 42.0465 12.0813 45.1297C13.4069 45.1297 14.5248 45.1297 15.8265 45.1297C15.8265 42.7396 15.8265 40.4134 15.8265 37.8984C16.5627 37.8463 17.1323 37.7727 17.7021 37.771C21.2576 37.7603 24.8142 37.8159 28.368 37.7377C29.5657 37.7113 30.2617 38.0996 30.7665 39.17C31.278 40.2548 31.9598 41.2591 32.5638 42.3005C34.416 45.4939 34.4154 45.4943 38.3406 45.0747C37.0111 42.6981 35.7141 40.3796 34.3856 38.0049C38.2167 37.3424 38.2909 37.3907 40.0022 40.3724C41.5884 43.1361 43.2115 45.8787 44.9221 48.8084C44.3868 48.9083 44.0157 49.036 43.644 49.0377C40.2693 49.0534 36.8926 49.1082 33.5216 48.9959C32.8439 48.9734 31.9522 48.4516 31.5668 47.8835C30.4206 46.1943 29.5215 44.3394 28.4265 42.6123C28.1259 42.1383 27.4893 41.6021 26.985 41.5794C24.5899 41.4715 22.1872 41.5312 19.5768 41.5312C19.5768 44.036 19.5768 46.4098 19.5768 48.9138C15.7867 48.9138 12.2076 48.9138 8.51367 48.9138C8.51367 42.7762 8.51367 36.7227 8.51367 30.4135C9.16271 30.4135 9.80017 30.4126 10.4376 30.4136C18.6936 30.4267 26.9497 30.4702 35.2055 30.4409C39.4102 30.426 42.0238 27.0424 40.895 23.2169C40.3292 21.2992 38.4201 19.549 36.4253 19.5319C28.4736 19.464 20.5209 19.5057 12.5685 19.5148C12.4669 19.5149 12.3653 19.6199 12.1861 19.7187C12.1861 20.7329 12.1861 21.7846 12.1861 23.0919C12.9265 23.0919 13.5648 23.0919 14.2031 23.0919C21.0731 23.0924 27.9431 23.1025 34.813 23.085C36.1405 23.0816 37.3298 23.2539 37.3137 24.9223C37.2979 26.564 36.1258 26.7648 34.7929 26.762C26.4766 26.7452 18.1604 26.7548 9.84409 26.7515C9.43344 26.7513 9.0228 26.713 8.40263 26.6819C8.40263 23.2562 8.36611 19.9015 8.46142 16.5507C8.47054 16.2299 9.30153 15.9325 9.92142 15.6242Z" fill="white"/>
</svg>
