<svg width="32" height="32" viewBox="0 0 32 32" fill="none" xmlns="http://www.w3.org/2000/svg">
<path d="M25.8382 31H6.16221C4.86121 31 3.67821 30.395 2.91721 29.339C2.15621 28.283 1.95621 26.969 2.36821 25.735L3.07221 23.622C3.80121 21.437 5.75021 19.844 8.03821 19.563C10.1312 19.307 13.2112 19 16.0002 19C18.7882 19 21.8692 19.307 23.9632 19.563C26.2502 19.843 28.1992 21.437 28.9282 23.622L29.6322 25.735C30.0442 26.969 29.8442 28.283 29.0822 29.339C28.3212 30.395 27.1392 31 25.8382 31ZM16.0002 21C13.3122 21 10.3192 21.298 8.28221 21.549C6.75521 21.736 5.45521 22.798 4.97021 24.255L4.26621 26.367C4.06021 26.985 4.16021 27.641 4.54021 28.169C4.92021 28.697 5.51121 29 6.16221 29H25.8382C26.4882 29 27.0802 28.697 27.4602 28.17C27.8412 27.642 27.9402 26.985 27.7352 26.367L27.0312 24.255C26.5452 22.798 25.2452 21.735 23.7192 21.549C21.6812 21.298 18.6872 21 16.0002 21Z" fill="#0B0B0B"/>
<path d="M16 18C11.313 18 7.5 14.187 7.5 9.5C7.5 4.813 11.313 1 16 1C20.687 1 24.5 4.813 24.5 9.5C24.5 14.187 20.687 18 16 18ZM16 3C12.416 3 9.5 5.916 9.5 9.5C9.5 13.084 12.416 16 16 16C19.584 16 22.5 13.084 22.5 9.5C22.5 5.916 19.584 3 16 3Z" fill="#0B0B0B"/>
<path d="M12.0401 10.5401C11.4971 10.5401 11.0521 10.1051 11.0401 9.56006C11.0131 8.22506 11.5081 6.95906 12.4341 5.99606C13.3591 5.03306 14.6041 4.48806 15.9391 4.46106C16.5011 4.47106 16.9481 4.88906 16.9591 5.44106C16.9701 5.99306 16.5311 6.45006 15.9791 6.46106C15.1781 6.47706 14.4311 6.80406 13.8761 7.38106C13.3211 7.95906 13.0241 8.71806 13.0401 9.52006C13.0511 10.0721 12.6121 10.5291 12.0601 10.5401C12.0541 10.5401 12.0471 10.5401 12.0401 10.5401Z" fill="#FFB22C"/>
</svg>
