<svg width="24" height="25" viewBox="0 0 24 25" fill="none" xmlns="http://www.w3.org/2000/svg">
<path d="M3.49355 15.7812C3.49355 15.9814 3.33126 16.1437 3.13105 16.1437C2.93085 16.1437 2.76855 15.9814 2.76855 15.7812C2.76855 15.581 2.93085 15.4187 3.13105 15.4187C3.33126 15.4187 3.49355 15.581 3.49355 15.7812Z" fill="#0B0B0B" stroke="#0B0B0B"/>
<path d="M21.3186 10.6249C21.7949 10.6249 22.1811 10.2387 22.1811 9.7624C22.1811 9.28606 21.7949 8.8999 21.3186 8.8999C20.8422 8.8999 20.4561 9.28606 20.4561 9.7624C20.4561 10.2387 20.8422 10.6249 21.3186 10.6249Z" fill="#0B0B0B"/>
<path d="M15.5434 14.8249C15.2434 14.8249 14.9621 14.7874 14.6996 14.7124L14.8871 14.0562C15.1496 14.1312 15.4871 14.1499 15.7871 14.1312L15.8434 14.8062C15.7496 14.8249 15.6559 14.8249 15.5434 14.8249ZM16.9684 14.4874L16.6309 13.8874C16.8746 13.7562 17.0809 13.5687 17.2684 13.3062L17.8309 13.6999C17.5871 14.0562 17.3059 14.2999 16.9684 14.4874ZM3.80586 14.3749L3.13086 14.1874C3.22461 13.8499 3.33711 13.5124 3.44961 13.1937L4.10586 13.4374C3.99336 13.7187 3.89961 14.0374 3.80586 14.3749ZM13.6684 14.1499C13.4246 13.9249 13.1809 13.6437 12.9559 13.2874L13.5371 12.9124C13.7434 13.2124 13.9309 13.4562 14.1371 13.6249L13.6684 14.1499ZM18.3746 12.7624L17.7371 12.4812C17.7934 12.3499 17.8684 12.1999 17.9246 12.0687C17.9996 11.8999 18.0746 11.7124 18.1684 11.5437L18.7871 11.8437C18.7121 12.0124 18.6371 12.1812 18.5621 12.3499C18.5059 12.4812 18.4496 12.6124 18.3746 12.7624ZM4.49961 12.5187L3.88086 12.2187C4.04961 11.8812 4.21836 11.5812 4.40586 11.2812L4.98711 11.6374C4.79961 11.9187 4.64961 12.1999 4.49961 12.5187ZM12.4309 12.3874L12.3559 12.2562C12.2246 12.0124 12.0746 11.7499 11.9246 11.5062L12.5246 11.1687C12.6746 11.4312 12.8246 11.6937 12.9559 11.9562L13.0309 12.0874L12.4309 12.3874ZM19.2934 11.0187L18.7309 10.6062C18.9934 10.2687 19.2746 10.0249 19.5934 9.8374L19.9309 10.4374C19.7059 10.5687 19.4809 10.7562 19.2934 11.0187ZM5.56836 10.8874L5.04336 10.4374C5.28711 10.1562 5.56836 9.9124 5.84961 9.6874L6.26211 10.2312C6.01836 10.4187 5.77461 10.6249 5.56836 10.8874ZM11.3809 10.6999C11.1746 10.4374 10.9496 10.2312 10.7059 10.0624L11.1184 9.4999C11.4184 9.70615 11.6809 9.9499 11.9246 10.2687L11.3809 10.6999ZM7.08711 9.7624L6.80586 9.1249C7.14336 8.9749 7.51836 8.88115 7.89336 8.8249L7.98711 9.4999C7.66836 9.55615 7.36836 9.63115 7.08711 9.7624ZM9.88086 9.6499C9.59961 9.55615 9.28086 9.4999 8.94336 9.48115L8.99961 8.80615C9.39336 8.84365 9.76836 8.8999 10.0871 9.0124L9.88086 9.6499Z" fill="#FFB22C"/>
<path d="M17.775 3.18115L12.0187 5.5249L6.225 3.18115L0 5.7124V21.6687L6.225 19.1562L11.925 21.4624L17.775 19.3062L24 21.8562V5.73115L17.775 3.18115ZM22.95 20.2812L18.3 18.3687V13.6437C18.0375 14.0562 17.7188 14.4499 17.25 14.7312V18.3499L12.45 20.1124V13.1374C12.3 12.8937 12.1875 12.6687 12.0563 12.4249C11.85 12.0312 11.6438 11.6562 11.4188 11.3187V20.1312L6.75 18.2374V10.3249C6.35625 10.5687 6 10.8874 5.7 11.2437V18.2374L1.05 20.1312V6.3874L5.71875 4.49365V9.3499C6.0375 9.1249 6.375 8.9374 6.75 8.7874V4.5124L11.4188 6.40615V9.3124C11.8313 9.63115 12.1687 10.0062 12.4688 10.3999V6.4624L17.25 4.5124V12.6874C17.3625 12.4624 17.4937 12.2187 17.6063 11.9374C17.7938 11.5249 18 11.0749 18.2812 10.6437V4.5124L22.95 6.4249V20.2812Z" fill="#0B0B0B"/>
</svg>
