<svg width="33" height="34" viewBox="0 0 33 34" fill="none" xmlns="http://www.w3.org/2000/svg">
<path d="M10.3184 18.6656H13.8719V8.76807H19.1281V18.6656H22.6816L16.4999 25.4743L10.3184 18.6656ZM14.8719 9.76807V19.6656H12.5771L16.4999 23.9866L20.4226 19.6656H18.1281V9.76807H14.8719Z" fill="#FFB22C"/>
<path d="M14.8719 9.76807V19.6656H12.5771L16.4999 23.9866L20.4226 19.6656H18.1281V9.76807H14.8719Z" fill="#FFB22C"/>
<path d="M10.3184 18.6656H13.8719V8.76807H19.1281V18.6656H22.6816L16.4999 25.4743L10.3184 18.6656ZM14.8719 9.76807V19.6656H12.5771L16.4999 23.9866L20.4226 19.6656H18.1281V9.76807H14.8719Z" stroke="#FFB22C" stroke-width="0.5"/>
<path d="M14.8719 9.76807V19.6656H12.5771L16.4999 23.9866L20.4226 19.6656H18.1281V9.76807H14.8719Z" stroke="#FFB22C" stroke-width="0.5"/>
<path d="M0.5 16.9998C0.5 8.25655 7.67775 1.14355 16.5002 1.14355V2.14355C8.229 2.14355 1.5 8.80805 1.5 16.9998C1.5 25.1916 8.229 31.8561 16.5002 31.8561C24.771 31.8561 31.5 25.1916 31.5 16.9998H32.5C32.5 25.7431 25.3225 32.8561 16.5002 32.8561C7.67775 32.8561 0.5 25.7431 0.5 16.9998Z" fill="#0B0B0B" stroke="#0B0B0B"/>
<path d="M16.5002 2.14355V1.14355C16.6684 1.14355 16.8369 1.1458 17.0039 1.1513L16.9714 2.1508C16.8152 2.14555 16.6577 2.14355 16.5002 2.14355Z" fill="#0B0B0B"/>
<path d="M17.9498 2.2123L18.0443 1.2168C18.3975 1.2503 18.7545 1.2963 19.1053 1.35305L18.945 2.34005C18.616 2.2868 18.2813 2.2438 17.9498 2.2123ZM19.9295 2.5338L20.155 1.5598C20.501 1.6398 20.8488 1.7328 21.1888 1.8358L20.8985 2.7928C20.5798 2.69605 20.2538 2.60905 19.9295 2.5338ZM21.8493 3.1163L22.203 2.18105C22.535 2.30655 22.8675 2.4453 23.1915 2.5933L22.7763 3.50305C22.4723 3.36405 22.1605 3.23405 21.8493 3.1163ZM23.6748 3.9503L24.1503 3.07055C24.4625 3.2393 24.7735 3.42105 25.0745 3.6108L24.5415 4.45705C24.2593 4.27905 23.9678 4.10855 23.6748 3.9503ZM25.3723 5.02005L25.9608 4.21155C26.248 4.42055 26.532 4.6423 26.8045 4.8698L26.1638 5.6373C25.908 5.4238 25.6418 5.21605 25.3723 5.02005ZM26.912 6.3063L27.603 5.5833C27.8605 5.8293 28.1125 6.0868 28.3518 6.34805L27.614 7.02305C27.3898 6.7783 27.1535 6.53705 26.912 6.3063ZM28.2665 7.7853L29.0475 7.1608C29.2695 7.4383 29.4848 7.72705 29.6873 8.0188L28.866 8.58905C28.6763 8.3158 28.4745 8.04555 28.2665 7.7853ZM29.41 9.43155L30.2678 8.91755C30.45 9.22205 30.6245 9.53705 30.7863 9.8533L29.8955 10.308C29.7443 10.0118 29.5808 9.7168 29.41 9.43155ZM30.3203 11.2153L31.2398 10.8225C31.3795 11.1498 31.5095 11.4853 31.6263 11.82L30.682 12.149C30.5728 11.8358 30.451 11.5215 30.3203 11.2153ZM30.9795 13.1065L31.944 12.8425C32.0378 13.1853 32.121 13.5358 32.191 13.8845L31.2105 14.0818C31.1453 13.7555 31.0673 13.4273 30.9795 13.1065ZM31.3748 15.0708L32.3663 14.9405C32.4113 15.283 32.445 15.632 32.4673 15.9778L31.4693 16.0415C31.4485 15.718 31.4168 15.3913 31.3748 15.0708Z" fill="#0B0B0B"/>
<path d="M31.4928 16.5276L32.4923 16.4966C32.4975 16.6633 32.5 16.8313 32.5 16.9996H31.5C31.5 16.8416 31.4978 16.6841 31.4928 16.5276Z" fill="#0B0B0B"/>
</svg>
