<svg width="181" height="52" viewBox="0 0 181 52" fill="none" xmlns="http://www.w3.org/2000/svg">
<path d="M179.994 46.0029C179.994 48.774 177.69 51.0187 174.84 51.0187H6.1611C3.31235 51.0187 1 48.774 1 46.0029V6.00333C1 3.23349 3.31235 0.980957 6.1611 0.980957H174.839C177.69 0.980957 179.993 3.23349 179.993 6.00333L179.994 46.0029Z" fill="white"/>
<path d="M174.296 1.04162C177.4 1.04162 179.926 3.4905 179.926 6.5V45.5C179.926 48.5095 177.4 50.9584 174.296 50.9584H6.69854C3.59463 50.9584 1.06893 48.5095 1.06893 45.5V6.5C1.06893 3.4905 3.59463 1.04162 6.69854 1.04162H174.296ZM174.296 2.74817e-06H6.69854C3.01306 2.74817e-06 -0.00537109 2.92663 -0.00537109 6.5V45.5C-0.00537109 49.0734 3.01306 52 6.69854 52H174.296C177.982 52 181 49.0734 181 45.5V6.5C181 2.92663 177.982 2.74817e-06 174.296 2.74817e-06Z" fill="#A6A6A6"/>
<path d="M40.3899 25.7191C40.351 21.5292 43.9282 19.4908 44.0918 19.3959C42.0659 16.532 38.9258 16.1407 37.8223 16.1095C35.185 15.8404 32.6268 17.6396 31.2833 17.6396C29.9131 17.6396 27.8442 16.1355 25.6145 16.1797C22.7452 16.2226 20.061 17.8333 18.5888 20.3345C15.5506 25.4344 17.8165 32.9289 20.7274 37.0512C22.1834 39.0701 23.8849 41.3243 26.1119 41.245C28.2907 41.1579 29.1046 39.8982 31.7338 39.8982C34.339 39.8982 35.1032 41.245 37.3745 41.1943C39.7128 41.1579 41.185 39.1663 42.5901 37.1292C44.2728 34.8152 44.9486 32.5363 44.9754 32.4193C44.9204 32.4011 40.4342 30.741 40.3899 25.7191Z" fill="black"/>
<path d="M36.0994 13.3977C37.2713 11.9768 38.0731 10.0437 37.8505 8.08203C36.1544 8.15483 34.0333 9.21953 32.8118 10.6092C31.7312 11.8338 30.7658 13.841 31.0152 15.7286C32.9204 15.8664 34.8766 14.7965 36.0994 13.3977Z" fill="black"/>
<path d="M65.7601 13.0118C65.7601 14.5419 65.2868 15.6937 64.3415 16.4672C63.466 17.1809 62.2217 17.5384 60.6101 17.5384C59.811 17.5384 59.1272 17.5046 58.5547 17.437V9.0767C59.3015 8.9597 60.106 8.8999 60.9748 8.8999C62.51 8.8999 63.6671 9.2236 64.4474 9.871C65.3216 10.6029 65.7601 11.6494 65.7601 13.0118ZM64.2785 13.0495C64.2785 12.0576 64.0077 11.2971 63.466 10.7667C62.9243 10.2376 62.1332 9.9724 61.0915 9.9724C60.649 9.9724 60.2722 10.001 59.9598 10.0608V16.4165C60.1328 16.4425 60.4492 16.4542 60.9091 16.4542C61.9844 16.4542 62.8144 16.1643 63.3989 15.5845C63.9835 15.0047 64.2785 14.1597 64.2785 13.0495Z" fill="black"/>
<path d="M73.6157 14.3482C73.6157 15.2907 73.3381 16.0629 72.7831 16.6687C72.2012 17.2914 71.4302 17.6021 70.4675 17.6021C69.5397 17.6021 68.8009 17.3044 68.2499 16.7064C67.7002 16.1097 67.4253 15.357 67.4253 14.4496C67.4253 13.5006 67.7082 12.7219 68.2767 12.1174C68.8452 11.5129 69.6094 11.21 70.5721 11.21C71.4999 11.21 72.2454 11.5077 72.8099 12.1044C73.3462 12.6842 73.6157 13.433 73.6157 14.3482ZM72.1583 14.3924C72.1583 13.8269 72.0322 13.342 71.7815 12.9377C71.4865 12.4489 71.0669 12.2045 70.5212 12.2045C69.9567 12.2045 69.5276 12.4489 69.2327 12.9377C68.9806 13.342 68.8559 13.8347 68.8559 14.4171C68.8559 14.9826 68.9819 15.4675 69.2327 15.8718C69.537 16.3606 69.9607 16.605 70.5078 16.605C71.0441 16.605 71.4651 16.3567 71.7681 15.8588C72.0282 15.4467 72.1583 14.9579 72.1583 14.3924Z" fill="black"/>
<path d="M84.1487 11.335L82.1711 17.4632H80.8839L80.0647 14.8021C79.8569 14.1378 79.688 13.4774 79.5566 12.8222H79.5311C79.4091 13.4956 79.2401 14.1547 79.0229 14.8021L78.1528 17.4632H76.8509L74.9912 11.335H76.4352L77.1499 14.2483C77.3228 14.9373 77.465 15.5938 77.5789 16.2152H77.6044C77.709 15.703 77.8819 15.0504 78.126 14.2613L79.0229 11.3363H80.168L81.0274 14.1989C81.2352 14.897 81.4042 15.5691 81.5342 16.2165H81.5731C81.6683 15.586 81.8118 14.9139 82.0022 14.1989L82.7691 11.3363H84.1487V11.335Z" fill="black"/>
<path d="M91.4332 17.463H90.028V13.953C90.028 12.8714 89.6043 12.3306 88.7543 12.3306C88.3373 12.3306 88.0008 12.4788 87.7393 12.7765C87.4805 13.0742 87.3492 13.4252 87.3492 13.8269V17.4617H85.944V13.0859C85.944 12.5477 85.9266 11.964 85.8931 11.3322H87.1279L87.1936 12.2903H87.2325C87.3961 11.9926 87.6401 11.7469 87.9605 11.5506C88.3413 11.3218 88.7677 11.2061 89.2343 11.2061C89.8242 11.2061 90.315 11.3907 90.7051 11.7612C91.1905 12.2149 91.4332 12.8922 91.4332 13.7918V17.463Z" fill="black"/>
<path d="M95.3081 17.463H93.9043V8.52295H95.3081V17.463Z" fill="black"/>
<path d="M103.581 14.3482C103.581 15.2907 103.303 16.0629 102.748 16.6687C102.166 17.2914 101.394 17.6021 100.433 17.6021C99.5037 17.6021 98.7649 17.3044 98.2152 16.7064C97.6655 16.1097 97.3906 15.357 97.3906 14.4496C97.3906 13.5006 97.6735 12.7219 98.242 12.1174C98.8105 11.5129 99.5748 11.21 100.536 11.21C101.465 11.21 102.209 11.5077 102.775 12.1044C103.312 12.6842 103.581 13.433 103.581 14.3482ZM102.122 14.3924C102.122 13.8269 101.996 13.342 101.745 12.9377C101.452 12.4489 101.031 12.2045 100.486 12.2045C99.9207 12.2045 99.4916 12.4489 99.198 12.9377C98.9459 13.342 98.8212 13.8347 98.8212 14.4171C98.8212 14.9826 98.9473 15.4675 99.198 15.8718C99.5024 16.3606 99.926 16.605 100.473 16.605C101.009 16.605 101.429 16.3567 101.732 15.8588C101.994 15.4467 102.122 14.9579 102.122 14.3924Z" fill="black"/>
<path d="M110.381 17.463H109.12L109.015 16.7571H108.976C108.544 17.32 107.929 17.6021 107.13 17.6021C106.533 17.6021 106.05 17.4162 105.687 17.047C105.357 16.7116 105.192 16.2943 105.192 15.799C105.192 15.0502 105.514 14.4795 106.162 14.0843C106.808 13.6891 107.717 13.4954 108.888 13.5045V13.3901C108.888 12.5828 108.45 12.1798 107.575 12.1798C106.951 12.1798 106.402 12.3319 105.927 12.6335L105.642 11.7391C106.229 11.3868 106.954 11.21 107.81 11.21C109.461 11.21 110.29 12.055 110.29 13.745V16.0018C110.29 16.6141 110.321 17.1016 110.381 17.463ZM108.922 15.357V14.4119C107.372 14.3859 106.598 14.798 106.598 15.6469C106.598 15.9667 106.686 16.2059 106.867 16.3658C107.048 16.5257 107.279 16.605 107.553 16.605C107.862 16.605 108.15 16.5101 108.413 16.3216C108.677 16.1318 108.839 15.8913 108.9 15.5962C108.914 15.5299 108.922 15.4493 108.922 15.357Z" fill="black"/>
<path d="M118.366 17.463H117.119L117.053 16.4789H117.014C116.616 17.2277 115.937 17.6021 114.984 17.6021C114.223 17.6021 113.588 17.3123 113.086 16.7324C112.583 16.1526 112.332 15.3999 112.332 14.4756C112.332 13.4837 112.604 12.6803 113.151 12.0667C113.681 11.4947 114.33 11.2087 115.102 11.2087C115.951 11.2087 116.545 11.4856 116.883 12.0407H116.909V8.52295H118.316V15.812C118.316 16.4087 118.332 16.9586 118.366 17.463ZM116.909 14.8786V13.8568C116.909 13.68 116.896 13.537 116.871 13.4278C116.791 13.1002 116.621 12.8246 116.362 12.6023C116.101 12.38 115.786 12.2682 115.423 12.2682C114.898 12.2682 114.488 12.4697 114.186 12.874C113.887 13.2783 113.736 13.7944 113.736 14.4249C113.736 15.0307 113.879 15.5221 114.168 15.9004C114.472 16.3034 114.882 16.5049 115.396 16.5049C115.857 16.5049 116.226 16.3372 116.506 16.0005C116.777 15.6898 116.909 15.3154 116.909 14.8786Z" fill="black"/>
<path d="M130.383 14.3482C130.383 15.2907 130.106 16.0629 129.551 16.6687C128.969 17.2914 128.199 17.6021 127.235 17.6021C126.309 17.6021 125.57 17.3044 125.017 16.7064C124.468 16.1097 124.193 15.357 124.193 14.4496C124.193 13.5006 124.476 12.7219 125.044 12.1174C125.613 11.5129 126.377 11.21 127.341 11.21C128.268 11.21 129.014 11.5077 129.577 12.1044C130.114 12.6842 130.383 13.433 130.383 14.3482ZM128.927 14.3924C128.927 13.8269 128.801 13.342 128.55 12.9377C128.254 12.4489 127.836 12.2045 127.289 12.2045C126.726 12.2045 126.297 12.4489 126 12.9377C125.748 13.342 125.623 13.8347 125.623 14.4171C125.623 14.9826 125.75 15.4675 126 15.8718C126.305 16.3606 126.728 16.605 127.275 16.605C127.812 16.605 128.234 16.3567 128.537 15.8588C128.796 15.4467 128.927 14.9579 128.927 14.3924Z" fill="black"/>
<path d="M137.938 17.463H136.534V13.953C136.534 12.8714 136.111 12.3306 135.259 12.3306C134.842 12.3306 134.506 12.4788 134.246 12.7765C133.986 13.0742 133.855 13.4252 133.855 13.8269V17.4617H132.449V13.0859C132.449 12.5477 132.433 11.964 132.399 11.3322H133.633L133.699 12.2903H133.738C133.902 11.9926 134.146 11.7469 134.466 11.5506C134.848 11.3218 135.273 11.2061 135.741 11.2061C136.329 11.2061 136.82 11.3907 137.21 11.7612C137.697 12.2149 137.938 12.8922 137.938 13.7918V17.463Z" fill="black"/>
<path d="M147.395 12.3553H145.848V15.3323C145.848 16.0889 146.122 16.4672 146.667 16.4672C146.919 16.4672 147.128 16.4464 147.293 16.4035L147.329 17.437C147.052 17.5384 146.687 17.5891 146.238 17.5891C145.683 17.5891 145.251 17.4253 144.938 17.0977C144.625 16.7701 144.469 16.2189 144.469 15.4454V12.3553H143.545V11.3348H144.469V10.2116L145.846 9.80859V11.3335H147.393V12.3553H147.395Z" fill="black"/>
<path d="M154.833 17.463H153.427V13.979C153.427 12.8805 153.003 12.3306 152.155 12.3306C151.503 12.3306 151.058 12.6491 150.814 13.2861C150.772 13.42 150.748 13.5838 150.748 13.7762V17.4618H149.344V8.52295H150.748V12.2162H150.775C151.217 11.5441 151.852 11.2087 152.673 11.2087C153.255 11.2087 153.737 11.3933 154.119 11.7638C154.595 12.2253 154.833 12.9117 154.833 13.8191V17.463Z" fill="black"/>
<path d="M162.507 14.1089C162.507 14.3533 162.488 14.5587 162.455 14.7264H158.241C158.259 15.3322 158.46 15.7937 158.851 16.1135C159.207 16.3995 159.667 16.5425 160.23 16.5425C160.854 16.5425 161.422 16.4463 161.934 16.2526L162.154 17.199C161.555 17.4512 160.85 17.5773 160.033 17.5773C159.054 17.5773 158.283 17.2978 157.726 16.7388C157.165 16.1798 156.888 15.4297 156.888 14.4885C156.888 13.5642 157.146 12.7946 157.668 12.181C158.212 11.5258 158.948 11.1982 159.878 11.1982C160.787 11.1982 161.477 11.5258 161.944 12.181C162.321 12.701 162.507 13.3445 162.507 14.1089ZM161.166 13.7566C161.177 13.3523 161.084 13.0039 160.894 12.7101C160.65 12.3318 160.279 12.142 159.776 12.142C159.317 12.142 158.943 12.3266 158.658 12.6971C158.424 12.9922 158.286 13.3445 158.241 13.7566H161.166Z" fill="black"/>
<path d="M71.9211 40.9552H68.8762L67.2083 35.8735H61.4107L59.8219 40.9552H56.8574L62.6013 23.6548H66.149L71.9211 40.9552ZM66.7055 33.7415L65.1971 29.224C65.0375 28.7625 64.7385 27.6757 64.2974 25.9649H64.2438C64.0681 26.7007 63.7852 27.7875 63.3964 29.224L61.9148 33.7415H66.7055Z" fill="black"/>
<path d="M86.6924 34.5647C86.6924 36.6863 86.1011 38.3633 84.9186 39.5944C83.8593 40.6903 82.544 41.2376 80.974 41.2376C79.2792 41.2376 78.0618 40.6474 77.3203 39.467H77.2667V46.0385H74.4082V32.5874C74.4082 31.2536 74.372 29.8847 74.3022 28.4807H76.8162L76.9758 30.458H77.0294C77.9827 28.9682 79.4294 28.2246 81.3708 28.2246C82.8886 28.2246 84.1557 28.8057 85.1693 29.9692C86.1856 31.134 86.6924 32.6654 86.6924 34.5647ZM83.7802 34.6661C83.7802 33.4519 83.4987 32.4509 82.9329 31.6631C82.3148 30.8415 81.4848 30.4307 80.4444 30.4307C79.7391 30.4307 79.0982 30.6595 78.5257 31.1106C77.9519 31.5656 77.5764 32.1597 77.4008 32.8955C77.3123 33.2387 77.2681 33.5195 77.2681 33.7405V35.8205C77.2681 36.7279 77.555 37.4936 78.1288 38.1189C78.7027 38.7442 79.4482 39.0562 80.3653 39.0562C81.4419 39.0562 82.2799 38.6532 82.8792 37.8498C83.4799 37.0451 83.7802 35.9843 83.7802 34.6661Z" fill="black"/>
<path d="M101.491 34.5647C101.491 36.6863 100.9 38.3633 99.7157 39.5944C98.6578 40.6903 97.3425 41.2376 95.7724 41.2376C94.0777 41.2376 92.8603 40.6474 92.1202 39.467H92.0665V46.0385H89.208V32.5874C89.208 31.2536 89.1718 29.8847 89.1021 28.4807H91.616L91.7756 30.458H91.8292C92.7812 28.9682 94.2279 28.2246 96.1707 28.2246C97.6871 28.2246 98.9541 28.8057 99.9704 29.9692C100.983 31.134 101.491 32.6654 101.491 34.5647ZM98.5787 34.6661C98.5787 33.4519 98.2958 32.4509 97.73 31.6631C97.1119 30.8415 96.2846 30.4307 95.2428 30.4307C94.5362 30.4307 93.8967 30.6595 93.3228 31.1106C92.749 31.5656 92.3749 32.1597 92.1993 32.8955C92.1121 33.2387 92.0665 33.5195 92.0665 33.7405V35.8205C92.0665 36.7279 92.3534 37.4936 92.9246 38.1189C93.4985 38.7429 94.244 39.0562 95.1637 39.0562C96.2404 39.0562 97.0784 38.6532 97.6777 37.8498C98.2784 37.0451 98.5787 35.9843 98.5787 34.6661Z" fill="black"/>
<path d="M118.036 36.1037C118.036 37.5753 117.509 38.7726 116.451 39.6969C115.289 40.707 113.67 41.2114 111.591 41.2114C109.671 41.2114 108.131 40.8526 106.966 40.1337L107.629 37.8236C108.884 38.5594 110.261 38.9286 111.761 38.9286C112.838 38.9286 113.676 38.692 114.278 38.2214C114.877 37.7508 115.176 37.119 115.176 36.3312C115.176 35.6292 114.929 35.0377 114.434 34.558C113.942 34.0783 113.12 33.6324 111.973 33.2203C108.849 32.0906 107.288 30.4357 107.288 28.2595C107.288 26.8373 107.835 25.6712 108.931 24.7638C110.022 23.8551 111.478 23.4014 113.299 23.4014C114.923 23.4014 116.271 23.6757 117.348 24.223L116.633 26.4824C115.628 25.952 114.491 25.6868 113.218 25.6868C112.213 25.6868 111.427 25.9273 110.864 26.4057C110.388 26.8334 110.149 27.3547 110.149 27.9722C110.149 28.656 110.422 29.2215 110.969 29.6661C111.445 30.0769 112.309 30.5215 113.564 31.0012C115.099 31.6005 116.227 32.3012 116.952 33.1046C117.675 33.9054 118.036 34.9077 118.036 36.1037Z" fill="black"/>
<path d="M127.487 30.5604H124.337V36.6171C124.337 38.1576 124.892 38.9272 126.004 38.9272C126.515 38.9272 126.939 38.8843 127.274 38.7985L127.353 40.9032C126.79 41.1073 126.049 41.21 125.13 41.21C124.001 41.21 123.119 40.8759 122.482 40.209C121.848 39.5408 121.529 38.4202 121.529 36.8459V30.5578H119.652V28.4778H121.529V26.1937L124.337 25.3721V28.4778H127.487V30.5604Z" fill="black"/>
<path d="M141.704 34.6151C141.704 36.5326 141.138 38.1069 140.009 39.338C138.825 40.6055 137.254 41.2373 135.295 41.2373C133.407 41.2373 131.904 40.6302 130.783 39.416C129.662 38.2018 129.102 36.6691 129.102 34.8218C129.102 32.8887 129.678 31.3053 130.835 30.0742C131.99 28.8418 133.548 28.2256 135.506 28.2256C137.394 28.2256 138.913 28.8327 140.06 30.0482C141.157 31.2273 141.704 32.7496 141.704 34.6151ZM138.738 34.7048C138.738 33.5543 138.484 32.5676 137.971 31.7447C137.372 30.7489 136.515 30.2523 135.405 30.2523C134.256 30.2523 133.383 30.7502 132.783 31.7447C132.27 32.5689 132.016 33.5712 132.016 34.7568C132.016 35.9073 132.27 36.894 132.783 37.7156C133.401 38.7114 134.265 39.208 135.379 39.208C136.47 39.208 137.327 38.701 137.945 37.6896C138.472 36.8511 138.738 35.854 138.738 34.7048Z" fill="black"/>
<path d="M150.995 30.9182C150.712 30.8675 150.41 30.8415 150.094 30.8415C149.088 30.8415 148.311 31.2094 147.764 31.9465C147.288 32.5965 147.049 33.4181 147.049 34.41V40.9555H144.192L144.219 32.4093C144.219 30.9715 144.182 29.6624 144.111 28.482H146.601L146.706 30.8688H146.785C147.087 30.0485 147.563 29.3881 148.214 28.8928C148.851 28.4469 149.539 28.2246 150.28 28.2246C150.544 28.2246 150.783 28.2428 150.995 28.2753V30.9182Z" fill="black"/>
<path d="M163.779 34.1279C163.779 34.6245 163.746 35.0431 163.675 35.385H155.099C155.133 36.6174 155.547 37.5599 156.343 38.2099C157.066 38.791 158.001 39.0822 159.148 39.0822C160.418 39.0822 161.576 38.8859 162.618 38.492L163.066 40.416C161.849 40.9308 160.411 41.1869 158.753 41.1869C156.758 41.1869 155.192 40.6175 154.052 39.48C152.915 38.3425 152.345 36.815 152.345 34.8988C152.345 33.0177 152.875 31.4512 153.935 30.2019C155.046 28.8681 156.546 28.2012 158.434 28.2012C160.288 28.2012 161.692 28.8681 162.645 30.2019C163.4 31.2614 163.779 32.5718 163.779 34.1279ZM161.054 33.409C161.072 32.5874 160.886 31.8776 160.499 31.2783C160.004 30.5074 159.244 30.1226 158.221 30.1226C157.286 30.1226 156.526 30.4983 155.945 31.2523C155.469 31.8516 155.186 32.5705 155.099 33.4077H161.054V33.409Z" fill="black"/>
</svg>
