<svg width="179" height="52" viewBox="0 0 179 52" fill="none" xmlns="http://www.w3.org/2000/svg">
<path d="M172.37 52H6.62963C2.98499 52 0 49.0734 0 45.5V6.5C0 2.92663 2.98499 2.74817e-06 6.62963 2.74817e-06H172.37C176.015 2.74817e-06 179 2.92663 179 6.5V45.5C179 49.0734 176.015 52 172.37 52Z" fill="white"/>
<path d="M172.37 1.04162C175.44 1.04162 177.938 3.4905 177.938 6.5V45.5C177.938 48.5095 175.44 50.9584 172.37 50.9584H6.62963C3.56011 50.9584 1.0624 48.5095 1.0624 45.5V6.5C1.0624 3.4905 3.56011 1.04162 6.62963 1.04162H172.37ZM172.37 2.74817e-06H6.62963C2.98499 2.74817e-06 0 2.92663 0 6.5V45.5C0 49.0734 2.98499 52 6.62963 52H172.37C176.015 52 179 49.0734 179 45.5V6.5C179 2.92663 176.015 2.74817e-06 172.37 2.74817e-06Z" fill="#A6A6A6"/>
<path d="M13.8361 9.80044C13.4466 10.2002 13.2212 10.8226 13.2212 11.6286V40.3781C13.2212 41.1841 13.4466 41.8064 13.8361 42.2062L13.9322 42.2939L30.3637 26.1902V25.8099L13.9322 9.7062L13.8361 9.80044Z" fill="url(#paint0_linear_749_7837)"/>
<path d="M35.8349 31.5605L30.3638 26.1899V25.8097L35.8415 20.439L35.9641 20.5089L42.4512 24.1278C44.3026 25.1548 44.3026 26.8448 42.4512 27.8783L35.9641 31.4907L35.8349 31.5605Z" fill="url(#paint1_linear_749_7837)"/>
<path d="M35.964 31.4907L30.3636 25.9998L13.8359 42.206C14.4508 42.8397 15.4536 42.9161 16.5939 42.2823L35.964 31.4907Z" fill="url(#paint2_linear_749_7837)"/>
<path d="M35.964 20.5091L16.5939 9.71751C15.4536 9.09025 14.4508 9.16663 13.8359 9.80038L30.3636 26L35.964 20.5091Z" fill="url(#paint3_linear_749_7837)"/>
<path d="M62.8723 13.3172C62.8723 14.4027 62.5408 15.2721 61.8878 15.9204C61.137 16.6891 60.1591 17.0758 58.9608 17.0758C57.8156 17.0758 56.8377 16.6826 56.0355 15.9074C55.2317 15.1209 54.8306 14.1557 54.8306 13.0003C54.8306 11.8449 55.2317 10.8797 56.0355 10.0997C56.8377 9.31806 57.8156 8.9248 58.9608 8.9248C59.531 8.9248 60.0746 9.04018 60.5934 9.25468C61.1105 9.4708 61.5315 9.7633 61.8364 10.1241L61.1436 10.8098C60.6116 10.1939 59.8873 9.89006 58.9608 9.89006C58.1255 9.89006 57.4012 10.1761 56.7863 10.7529C56.178 11.3314 55.8731 12.0806 55.8731 13.0003C55.8731 13.9201 56.178 14.6757 56.7863 15.2542C57.4012 15.8246 58.1255 16.1171 58.9608 16.1171C59.8475 16.1171 60.5934 15.8246 61.1818 15.2477C61.5696 14.8658 61.79 14.3393 61.848 13.6666H58.9608V12.7273H62.8126C62.859 12.9304 62.8723 13.1271 62.8723 13.3172Z" fill="black" stroke="black" stroke-width="0.16" stroke-miterlimit="10"/>
<path d="M68.9832 10.0606H65.3651V12.5306H68.6269V13.4699H65.3651V15.9399H68.9832V16.897H64.3408V9.10352H68.9832V10.0606Z" fill="black" stroke="black" stroke-width="0.16" stroke-miterlimit="10"/>
<path d="M73.2958 16.897H72.2715V10.0606H70.0522V9.10352H75.5167V10.0606H73.2958V16.897Z" fill="black" stroke="black" stroke-width="0.16" stroke-miterlimit="10"/>
<path d="M79.4712 16.897V9.10352H80.4955V16.897H79.4712Z" fill="black" stroke="black" stroke-width="0.16" stroke-miterlimit="10"/>
<path d="M85.0267 16.897H84.0108V10.0606H81.7832V9.10352H87.2543V10.0606H85.0267V16.897Z" fill="black" stroke="black" stroke-width="0.16" stroke-miterlimit="10"/>
<path d="M97.6001 15.8944C96.8161 16.6826 95.8449 17.0758 94.6864 17.0758C93.5212 17.0758 92.55 16.6826 91.766 15.8944C90.9837 15.1079 90.5942 14.1427 90.5942 13.0003C90.5942 11.8579 90.9837 10.8927 91.766 10.1062C92.55 9.31805 93.5212 8.9248 94.6864 8.9248C95.8383 8.9248 96.8095 9.31805 97.5935 10.1127C98.3824 10.9057 98.7719 11.8644 98.7719 13.0003C98.7719 14.1427 98.3824 15.1079 97.6001 15.8944ZM92.5235 15.2412C93.1135 15.8246 93.8312 16.1171 94.6864 16.1171C95.535 16.1171 96.2593 15.8246 96.8427 15.2412C97.431 14.6578 97.7294 13.9087 97.7294 13.0003C97.7294 12.0919 97.431 11.3428 96.8427 10.7594C96.2593 10.1761 95.535 9.88355 94.6864 9.88355C93.8312 9.88355 93.1135 10.1761 92.5235 10.7594C91.9351 11.3428 91.6368 12.0919 91.6368 13.0003C91.6368 13.9087 91.9351 14.6578 92.5235 15.2412Z" fill="black" stroke="black" stroke-width="0.16" stroke-miterlimit="10"/>
<path d="M100.208 16.897V9.10352H101.452L105.317 15.1648H105.361L105.317 13.6665V9.10352H106.339V16.897H105.272L101.224 10.5368H101.18L101.224 12.0415V16.897H100.208Z" fill="black" stroke="black" stroke-width="0.16" stroke-miterlimit="10"/>
<path d="M90.342 28.2783C87.2277 28.2783 84.6836 30.602 84.6836 33.8082C84.6836 36.9883 87.2277 39.3364 90.342 39.3364C93.4629 39.3364 96.007 36.9883 96.007 33.8082C96.007 30.602 93.4629 28.2783 90.342 28.2783ZM90.342 37.1589C88.6332 37.1589 87.1631 35.776 87.1631 33.8082C87.1631 31.8143 88.6332 30.4558 90.342 30.4558C92.0507 30.4558 93.5275 31.8143 93.5275 33.8082C93.5275 35.776 92.0507 37.1589 90.342 37.1589ZM77.9959 28.2783C74.875 28.2783 72.3376 30.602 72.3376 33.8082C72.3376 36.9883 74.875 39.3364 77.9959 39.3364C81.1152 39.3364 83.6543 36.9883 83.6543 33.8082C83.6543 30.602 81.1152 28.2783 77.9959 28.2783ZM77.9959 37.1589C76.2855 37.1589 74.8104 35.776 74.8104 33.8082C74.8104 31.8143 76.2855 30.4558 77.9959 30.4558C79.7047 30.4558 81.1748 31.8143 81.1748 33.8082C81.1748 35.776 79.7047 37.1589 77.9959 37.1589ZM63.3047 29.9732V32.3229H69.0277C68.8603 33.6359 68.4128 34.6012 67.7266 35.2739C66.8913 36.0864 65.5902 36.9883 63.3047 36.9883C59.7827 36.9883 57.0248 34.2014 57.0248 30.7483C57.0248 27.2952 59.7827 24.5083 63.3047 24.5083C65.209 24.5083 66.5946 25.2379 67.6173 26.1837L69.3062 24.5278C67.8758 23.1888 65.9731 22.1602 63.3047 22.1602C58.475 22.1602 54.416 26.013 54.416 30.7483C54.416 35.4835 58.475 39.3364 63.3047 39.3364C65.9151 39.3364 67.8758 38.4979 69.4172 36.9249C70.9967 35.3763 71.489 33.1988 71.489 31.4405C71.489 30.8945 71.4426 30.3924 71.3597 29.9732H63.3047ZM123.379 31.7948C122.913 30.5582 121.476 28.2783 118.549 28.2783C115.649 28.2783 113.234 30.5192 113.234 33.8082C113.234 36.9054 115.624 39.3364 118.828 39.3364C121.418 39.3364 122.913 37.7878 123.528 36.8859L121.606 35.6298C120.964 36.5495 120.091 37.1589 118.828 37.1589C117.573 37.1589 116.673 36.595 116.096 35.4835L123.639 32.4237L123.379 31.7948ZM115.689 33.6359C115.624 31.5039 117.378 30.4119 118.634 30.4119C119.618 30.4119 120.454 30.8945 120.732 31.5852L115.689 33.6359ZM109.558 39H112.037V22.75H109.558V39ZM105.497 29.51H105.414C104.858 28.8633 103.795 28.2783 102.449 28.2783C99.6251 28.2783 97.0429 30.7093 97.0429 33.826C97.0429 36.9249 99.6251 39.3364 102.449 39.3364C103.795 39.3364 104.858 38.7465 105.414 38.0803H105.497V38.8733C105.497 40.9874 104.345 42.1233 102.487 42.1233C100.973 42.1233 100.033 41.0508 99.645 40.1489L97.4887 41.0313C98.1102 42.497 99.756 44.3008 102.487 44.3008C105.395 44.3008 107.847 42.6238 107.847 38.5434V28.6147H105.497V29.51ZM102.661 37.1589C100.953 37.1589 99.5223 35.7565 99.5223 33.826C99.5223 31.8777 100.953 30.4558 102.661 30.4558C104.345 30.4558 105.673 31.8777 105.673 33.826C105.673 35.7565 104.345 37.1589 102.661 37.1589ZM134.988 22.75H129.057V39H131.53V32.8429H134.988C137.734 32.8429 140.427 30.8945 140.427 27.7957C140.427 24.6984 137.727 22.75 134.988 22.75ZM135.052 30.5825H131.53V25.0104H135.052C136.899 25.0104 137.953 26.5135 137.953 27.7957C137.953 29.0534 136.899 30.5825 135.052 30.5825ZM150.338 28.2474C148.552 28.2474 146.694 29.0209 145.93 30.7353L148.124 31.6372C148.596 30.7353 149.465 30.4428 150.383 30.4428C151.666 30.4428 152.967 31.1984 152.987 32.5325V32.7032C152.539 32.4497 151.581 32.0743 150.403 32.0743C148.04 32.0743 145.631 33.3499 145.631 35.7305C145.631 37.908 147.567 39.3104 149.743 39.3104C151.407 39.3104 152.326 38.5743 152.902 37.7179H152.987V38.974H155.375V32.7405C155.375 29.8594 153.181 28.2474 150.338 28.2474ZM150.04 37.1524C149.231 37.1524 148.104 36.7592 148.104 35.776C148.104 34.5183 149.51 34.0357 150.726 34.0357C151.815 34.0357 152.326 34.2713 152.987 34.5817C152.793 36.0864 151.472 37.1524 150.04 37.1524ZM164.077 28.6033L161.234 35.6477H161.15L158.211 28.6033H155.544L159.96 38.4475L157.44 43.9254H160.024L166.828 28.6033H164.077ZM141.786 39H144.266V22.75H141.786V39Z" fill="black"/>
<defs>
<linearGradient id="paint0_linear_749_7837" x1="28.9048" y1="40.6775" x2="7.09196" y2="18.4296" gradientUnits="userSpaceOnUse">
<stop stop-color="#00A0FF"/>
<stop offset="0.0066" stop-color="#00A1FF"/>
<stop offset="0.2601" stop-color="#00BEFF"/>
<stop offset="0.5122" stop-color="#00D2FF"/>
<stop offset="0.7604" stop-color="#00DFFF"/>
<stop offset="1" stop-color="#00E3FF"/>
</linearGradient>
<linearGradient id="paint1_linear_749_7837" x1="44.862" y1="25.998" x2="12.7787" y2="25.998" gradientUnits="userSpaceOnUse">
<stop stop-color="#FFE000"/>
<stop offset="0.4087" stop-color="#FFBD00"/>
<stop offset="0.7754" stop-color="#FFA500"/>
<stop offset="1" stop-color="#FF9C00"/>
</linearGradient>
<linearGradient id="paint2_linear_749_7837" x1="32.9187" y1="23.0149" x2="3.33864" y2="-7.15501" gradientUnits="userSpaceOnUse">
<stop stop-color="#FF3A44"/>
<stop offset="1" stop-color="#C31162"/>
</linearGradient>
<linearGradient id="paint3_linear_749_7837" x1="9.67558" y1="51.7709" x2="22.8844" y2="38.2988" gradientUnits="userSpaceOnUse">
<stop stop-color="#32A071"/>
<stop offset="0.0685" stop-color="#2DA771"/>
<stop offset="0.4762" stop-color="#15CF74"/>
<stop offset="0.8009" stop-color="#06E775"/>
<stop offset="1" stop-color="#00F076"/>
</linearGradient>
</defs>
</svg>
