<svg width="160" height="160" viewBox="0 0 160 160" fill="none" xmlns="http://www.w3.org/2000/svg">
<rect width="160" height="160" fill="white"/>
<path d="M10.24 14.6143H15.8208V19.8451H10.24V14.6143ZM15.8208 14.6143H21.4016V19.8451H15.8208V14.6143ZM21.4016 14.6143H26.9824V19.8451H21.4016V14.6143ZM26.9824 14.6143H32.5632V19.8451H26.9824V14.6143ZM32.5632 14.6143H38.144V19.8451H32.5632V14.6143ZM38.144 14.6143H43.7248V19.8451H38.144V14.6143ZM43.7248 14.6143H49.3056V19.8451H43.7248V14.6143ZM71.6288 14.6143H77.2096V19.8451H71.6288V14.6143ZM88.3712 14.6143H93.952V19.8451H88.3712V14.6143ZM93.952 14.6143H99.5328V19.8451H93.952V14.6143ZM99.5328 14.6143H105.114V19.8451H99.5328V14.6143ZM110.694 14.6143H116.275V19.8451H110.694V14.6143ZM116.275 14.6143H121.856V19.8451H116.275V14.6143ZM121.856 14.6143H127.437V19.8451H121.856V14.6143ZM127.437 14.6143H133.018V19.8451H127.437V14.6143ZM133.018 14.6143H138.598V19.8451H133.018V14.6143ZM138.598 14.6143H144.179V19.8451H138.598V14.6143ZM144.179 14.6143H149.76V19.8451H144.179V14.6143ZM10.24 19.8451H15.8208V25.076H10.24V19.8451ZM43.7248 19.8451H49.3056V25.076H43.7248V19.8451ZM60.4672 19.8451H66.048V25.076H60.4672V19.8451ZM82.7904 19.8451H88.3712V25.076H82.7904V19.8451ZM88.3712 19.8451H93.952V25.076H88.3712V19.8451ZM99.5328 19.8451H105.114V25.076H99.5328V19.8451ZM110.694 19.8451H116.275V25.076H110.694V19.8451ZM144.179 19.8451H149.76V25.076H144.179V19.8451ZM10.24 25.076H15.8208V30.3068H10.24V25.076ZM21.4016 25.076H26.9824V30.3068H21.4016V25.076ZM26.9824 25.076H32.5632V30.3068H26.9824V25.076ZM32.5632 25.076H38.144V30.3068H32.5632V25.076ZM43.7248 25.076H49.3056V30.3068H43.7248V25.076ZM60.4672 25.076H66.048V30.3068H60.4672V25.076ZM66.048 25.076H71.6288V30.3068H66.048V25.076ZM77.2096 25.076H82.7904V30.3068H77.2096V25.076ZM88.3712 25.076H93.952V30.3068H88.3712V25.076ZM93.952 25.076H99.5328V30.3068H93.952V25.076ZM110.694 25.076H116.275V30.3068H110.694V25.076ZM121.856 25.076H127.437V30.3068H121.856V25.076ZM127.437 25.076H133.018V30.3068H127.437V25.076ZM133.018 25.076H138.598V30.3068H133.018V25.076ZM144.179 25.076H149.76V30.3068H144.179V25.076ZM10.24 30.3068H15.8208V35.5377H10.24V30.3068ZM21.4016 30.3068H26.9824V35.5377H21.4016V30.3068ZM26.9824 30.3068H32.5632V35.5377H26.9824V30.3068ZM32.5632 30.3068H38.144V35.5377H32.5632V30.3068ZM43.7248 30.3068H49.3056V35.5377H43.7248V30.3068ZM54.8864 30.3068H60.4672V35.5377H54.8864V30.3068ZM60.4672 30.3068H66.048V35.5377H60.4672V30.3068ZM77.2096 30.3068H82.7904V35.5377H77.2096V30.3068ZM88.3712 30.3068H93.952V35.5377H88.3712V30.3068ZM93.952 30.3068H99.5328V35.5377H93.952V30.3068ZM110.694 30.3068H116.275V35.5377H110.694V30.3068ZM121.856 30.3068H127.437V35.5377H121.856V30.3068ZM127.437 30.3068H133.018V35.5377H127.437V30.3068ZM133.018 30.3068H138.598V35.5377H133.018V30.3068ZM144.179 30.3068H149.76V35.5377H144.179V30.3068ZM10.24 35.5377H15.8208V40.7685H10.24V35.5377ZM21.4016 35.5377H26.9824V40.7685H21.4016V35.5377ZM26.9824 35.5377H32.5632V40.7685H26.9824V35.5377ZM32.5632 35.5377H38.144V40.7685H32.5632V35.5377ZM43.7248 35.5377H49.3056V40.7685H43.7248V35.5377ZM66.048 35.5377H71.6288V40.7685H66.048V35.5377ZM71.6288 35.5377H77.2096V40.7685H71.6288V35.5377ZM77.2096 35.5377H82.7904V40.7685H77.2096V35.5377ZM82.7904 35.5377H88.3712V40.7685H82.7904V35.5377ZM88.3712 35.5377H93.952V40.7685H88.3712V35.5377ZM110.694 35.5377H116.275V40.7685H110.694V35.5377ZM121.856 35.5377H127.437V40.7685H121.856V35.5377ZM127.437 35.5377H133.018V40.7685H127.437V35.5377ZM133.018 35.5377H138.598V40.7685H133.018V35.5377ZM144.179 35.5377H149.76V40.7685H144.179V35.5377ZM10.24 40.7685H15.8208V45.9994H10.24V40.7685ZM43.7248 40.7685H49.3056V45.9994H43.7248V40.7685ZM54.8864 40.7685H60.4672V45.9994H54.8864V40.7685ZM71.6288 40.7685H77.2096V45.9994H71.6288V40.7685ZM99.5328 40.7685H105.114V45.9994H99.5328V40.7685ZM110.694 40.7685H116.275V45.9994H110.694V40.7685ZM144.179 40.7685H149.76V45.9994H144.179V40.7685ZM10.24 45.9994H15.8208V51.2302H10.24V45.9994ZM15.8208 45.9994H21.4016V51.2302H15.8208V45.9994ZM21.4016 45.9994H26.9824V51.2302H21.4016V45.9994ZM26.9824 45.9994H32.5632V51.2302H26.9824V45.9994ZM32.5632 45.9994H38.144V51.2302H32.5632V45.9994ZM38.144 45.9994H43.7248V51.2302H38.144V45.9994ZM43.7248 45.9994H49.3056V51.2302H43.7248V45.9994ZM54.8864 45.9994H60.4672V51.2302H54.8864V45.9994ZM66.048 45.9994H71.6288V51.2302H66.048V45.9994ZM77.2096 45.9994H82.7904V51.2302H77.2096V45.9994ZM88.3712 45.9994H93.952V51.2302H88.3712V45.9994ZM99.5328 45.9994H105.114V51.2302H99.5328V45.9994ZM110.694 45.9994H116.275V51.2302H110.694V45.9994ZM116.275 45.9994H121.856V51.2302H116.275V45.9994ZM121.856 45.9994H127.437V51.2302H121.856V45.9994ZM127.437 45.9994H133.018V51.2302H127.437V45.9994ZM133.018 45.9994H138.598V51.2302H133.018V45.9994ZM138.598 45.9994H144.179V51.2302H138.598V45.9994ZM144.179 45.9994H149.76V51.2302H144.179V45.9994ZM54.8864 51.2302H60.4672V56.4611H54.8864V51.2302ZM60.4672 51.2302H66.048V56.4611H60.4672V51.2302ZM66.048 51.2302H71.6288V56.4611H66.048V51.2302ZM88.3712 51.2302H93.952V56.4611H88.3712V51.2302ZM93.952 51.2302H99.5328V56.4611H93.952V51.2302ZM99.5328 51.2302H105.114V56.4611H99.5328V51.2302ZM15.8208 56.4611H21.4016V61.6919H15.8208V56.4611ZM21.4016 56.4611H26.9824V61.6919H21.4016V56.4611ZM43.7248 56.4611H49.3056V61.6919H43.7248V56.4611ZM82.7904 56.4611H88.3712V61.6919H82.7904V56.4611ZM88.3712 56.4611H93.952V61.6919H88.3712V56.4611ZM99.5328 56.4611H105.114V61.6919H99.5328V56.4611ZM110.694 56.4611H116.275V61.6919H110.694V56.4611ZM116.275 56.4611H121.856V61.6919H116.275V56.4611ZM127.437 56.4611H133.018V61.6919H127.437V56.4611ZM15.8208 61.6919H21.4016V66.9228H15.8208V61.6919ZM21.4016 61.6919H26.9824V66.9228H21.4016V61.6919ZM32.5632 61.6919H38.144V66.9228H32.5632V61.6919ZM49.3056 61.6919H54.8864V66.9228H49.3056V61.6919ZM66.048 61.6919H71.6288V66.9228H66.048V61.6919ZM71.6288 61.6919H77.2096V66.9228H71.6288V61.6919ZM77.2096 61.6919H82.7904V66.9228H77.2096V61.6919ZM82.7904 61.6919H88.3712V66.9228H82.7904V61.6919ZM88.3712 61.6919H93.952V66.9228H88.3712V61.6919ZM93.952 61.6919H99.5328V66.9228H93.952V61.6919ZM99.5328 61.6919H105.114V66.9228H99.5328V61.6919ZM110.694 61.6919H116.275V66.9228H110.694V61.6919ZM116.275 61.6919H121.856V66.9228H116.275V61.6919ZM127.437 61.6919H133.018V66.9228H127.437V61.6919ZM138.598 61.6919H144.179V66.9228H138.598V61.6919ZM144.179 61.6919H149.76V66.9228H144.179V61.6919ZM43.7248 66.9228H49.3056V72.1536H43.7248V66.9228ZM71.6288 66.9228H77.2096V72.1536H71.6288V66.9228ZM93.952 66.9228H99.5328V72.1536H93.952V66.9228ZM105.114 66.9228H110.694V72.1536H105.114V66.9228ZM116.275 66.9228H121.856V72.1536H116.275V66.9228ZM127.437 66.9228H133.018V72.1536H127.437V66.9228ZM133.018 66.9228H138.598V72.1536H133.018V66.9228ZM144.179 66.9228H149.76V72.1536H144.179V66.9228ZM10.24 72.1536H15.8208V77.3845H10.24V72.1536ZM15.8208 72.1536H21.4016V77.3845H15.8208V72.1536ZM32.5632 72.1536H38.144V77.3845H32.5632V72.1536ZM49.3056 72.1536H54.8864V77.3845H49.3056V72.1536ZM60.4672 72.1536H66.048V77.3845H60.4672V72.1536ZM66.048 72.1536H71.6288V77.3845H66.048V72.1536ZM82.7904 72.1536H88.3712V77.3845H82.7904V72.1536ZM93.952 72.1536H99.5328V77.3845H93.952V72.1536ZM105.114 72.1536H110.694V77.3845H105.114V72.1536ZM116.275 72.1536H121.856V77.3845H116.275V72.1536ZM127.437 72.1536H133.018V77.3845H127.437V72.1536ZM10.24 77.3845H15.8208V82.6153H10.24V77.3845ZM15.8208 77.3845H21.4016V82.6153H15.8208V77.3845ZM26.9824 77.3845H32.5632V82.6153H26.9824V77.3845ZM43.7248 77.3845H49.3056V82.6153H43.7248V77.3845ZM49.3056 77.3845H54.8864V82.6153H49.3056V77.3845ZM54.8864 77.3845H60.4672V82.6153H54.8864V77.3845ZM60.4672 77.3845H66.048V82.6153H60.4672V77.3845ZM66.048 77.3845H71.6288V82.6153H66.048V77.3845ZM82.7904 77.3845H88.3712V82.6153H82.7904V77.3845ZM93.952 77.3845H99.5328V82.6153H93.952V77.3845ZM99.5328 77.3845H105.114V82.6153H99.5328V77.3845ZM110.694 77.3845H116.275V82.6153H110.694V77.3845ZM116.275 77.3845H121.856V82.6153H116.275V77.3845ZM144.179 77.3845H149.76V82.6153H144.179V77.3845ZM21.4016 82.6153H26.9824V87.8462H21.4016V82.6153ZM26.9824 82.6153H32.5632V87.8462H26.9824V82.6153ZM32.5632 82.6153H38.144V87.8462H32.5632V82.6153ZM66.048 82.6153H71.6288V87.8462H66.048V82.6153ZM71.6288 82.6153H77.2096V87.8462H71.6288V82.6153ZM77.2096 82.6153H82.7904V87.8462H77.2096V82.6153ZM93.952 82.6153H99.5328V87.8462H93.952V82.6153ZM99.5328 82.6153H105.114V87.8462H99.5328V82.6153ZM110.694 82.6153H116.275V87.8462H110.694V82.6153ZM116.275 82.6153H121.856V87.8462H116.275V82.6153ZM138.598 82.6153H144.179V87.8462H138.598V82.6153ZM144.179 82.6153H149.76V87.8462H144.179V82.6153ZM10.24 87.8462H15.8208V93.077H10.24V87.8462ZM15.8208 87.8462H21.4016V93.077H15.8208V87.8462ZM26.9824 87.8462H32.5632V93.077H26.9824V87.8462ZM38.144 87.8462H43.7248V93.077H38.144V87.8462ZM43.7248 87.8462H49.3056V93.077H43.7248V87.8462ZM54.8864 87.8462H60.4672V93.077H54.8864V87.8462ZM60.4672 87.8462H66.048V93.077H60.4672V87.8462ZM66.048 87.8462H71.6288V93.077H66.048V87.8462ZM77.2096 87.8462H82.7904V93.077H77.2096V87.8462ZM93.952 87.8462H99.5328V93.077H93.952V87.8462ZM99.5328 87.8462H105.114V93.077H99.5328V87.8462ZM110.694 87.8462H116.275V93.077H110.694V87.8462ZM127.437 87.8462H133.018V93.077H127.437V87.8462ZM133.018 87.8462H138.598V93.077H133.018V87.8462ZM144.179 87.8462H149.76V93.077H144.179V87.8462ZM21.4016 93.077H26.9824V98.3079H21.4016V93.077ZM26.9824 93.077H32.5632V98.3079H26.9824V93.077ZM32.5632 93.077H38.144V98.3079H32.5632V93.077ZM49.3056 93.077H54.8864V98.3079H49.3056V93.077ZM66.048 93.077H71.6288V98.3079H66.048V93.077ZM88.3712 93.077H93.952V98.3079H88.3712V93.077ZM93.952 93.077H99.5328V98.3079H93.952V93.077ZM99.5328 93.077H105.114V98.3079H99.5328V93.077ZM105.114 93.077H110.694V98.3079H105.114V93.077ZM110.694 93.077H116.275V98.3079H110.694V93.077ZM116.275 93.077H121.856V98.3079H116.275V93.077ZM121.856 93.077H127.437V98.3079H121.856V93.077ZM127.437 93.077H133.018V98.3079H127.437V93.077ZM10.24 98.3079H15.8208V103.539H10.24V98.3079ZM15.8208 98.3079H21.4016V103.539H15.8208V98.3079ZM21.4016 98.3079H26.9824V103.539H21.4016V98.3079ZM32.5632 98.3079H38.144V103.539H32.5632V98.3079ZM43.7248 98.3079H49.3056V103.539H43.7248V98.3079ZM54.8864 98.3079H60.4672V103.539H54.8864V98.3079ZM71.6288 98.3079H77.2096V103.539H71.6288V98.3079ZM99.5328 98.3079H105.114V103.539H99.5328V98.3079ZM105.114 98.3079H110.694V103.539H105.114V98.3079ZM110.694 98.3079H116.275V103.539H110.694V98.3079ZM116.275 98.3079H121.856V103.539H116.275V98.3079ZM121.856 98.3079H127.437V103.539H121.856V98.3079ZM138.598 98.3079H144.179V103.539H138.598V98.3079ZM54.8864 103.539H60.4672V108.77H54.8864V103.539ZM60.4672 103.539H66.048V108.77H60.4672V103.539ZM66.048 103.539H71.6288V108.77H66.048V103.539ZM71.6288 103.539H77.2096V108.77H71.6288V103.539ZM82.7904 103.539H88.3712V108.77H82.7904V103.539ZM88.3712 103.539H93.952V108.77H88.3712V103.539ZM99.5328 103.539H105.114V108.77H99.5328V103.539ZM121.856 103.539H127.437V108.77H121.856V103.539ZM144.179 103.539H149.76V108.77H144.179V103.539ZM10.24 108.77H15.8208V114H10.24V108.77ZM15.8208 108.77H21.4016V114H15.8208V108.77ZM21.4016 108.77H26.9824V114H21.4016V108.77ZM26.9824 108.77H32.5632V114H26.9824V108.77ZM32.5632 108.77H38.144V114H32.5632V108.77ZM38.144 108.77H43.7248V114H38.144V108.77ZM43.7248 108.77H49.3056V114H43.7248V108.77ZM66.048 108.77H71.6288V114H66.048V108.77ZM71.6288 108.77H77.2096V114H71.6288V108.77ZM88.3712 108.77H93.952V114H88.3712V108.77ZM99.5328 108.77H105.114V114H99.5328V108.77ZM110.694 108.77H116.275V114H110.694V108.77ZM121.856 108.77H127.437V114H121.856V108.77ZM144.179 108.77H149.76V114H144.179V108.77ZM10.24 114H15.8208V119.231H10.24V114ZM43.7248 114H49.3056V119.231H43.7248V114ZM60.4672 114H66.048V119.231H60.4672V114ZM66.048 114H71.6288V119.231H66.048V114ZM77.2096 114H82.7904V119.231H77.2096V114ZM82.7904 114H88.3712V119.231H82.7904V114ZM99.5328 114H105.114V119.231H99.5328V114ZM121.856 114H127.437V119.231H121.856V114ZM138.598 114H144.179V119.231H138.598V114ZM10.24 119.231H15.8208V124.462H10.24V119.231ZM21.4016 119.231H26.9824V124.462H21.4016V119.231ZM26.9824 119.231H32.5632V124.462H26.9824V119.231ZM32.5632 119.231H38.144V124.462H32.5632V119.231ZM43.7248 119.231H49.3056V124.462H43.7248V119.231ZM60.4672 119.231H66.048V124.462H60.4672V119.231ZM66.048 119.231H71.6288V124.462H66.048V119.231ZM88.3712 119.231H93.952V124.462H88.3712V119.231ZM93.952 119.231H99.5328V124.462H93.952V119.231ZM99.5328 119.231H105.114V124.462H99.5328V119.231ZM105.114 119.231H110.694V124.462H105.114V119.231ZM110.694 119.231H116.275V124.462H110.694V119.231ZM116.275 119.231H121.856V124.462H116.275V119.231ZM121.856 119.231H127.437V124.462H121.856V119.231ZM138.598 119.231H144.179V124.462H138.598V119.231ZM144.179 119.231H149.76V124.462H144.179V119.231ZM10.24 124.462H15.8208V129.693H10.24V124.462ZM21.4016 124.462H26.9824V129.693H21.4016V124.462ZM26.9824 124.462H32.5632V129.693H26.9824V124.462ZM32.5632 124.462H38.144V129.693H32.5632V124.462ZM43.7248 124.462H49.3056V129.693H43.7248V124.462ZM60.4672 124.462H66.048V129.693H60.4672V124.462ZM66.048 124.462H71.6288V129.693H66.048V124.462ZM71.6288 124.462H77.2096V129.693H71.6288V124.462ZM77.2096 124.462H82.7904V129.693H77.2096V124.462ZM93.952 124.462H99.5328V129.693H93.952V124.462ZM105.114 124.462H110.694V129.693H105.114V124.462ZM121.856 124.462H127.437V129.693H121.856V124.462ZM133.018 124.462H138.598V129.693H133.018V124.462ZM138.598 124.462H144.179V129.693H138.598V124.462ZM10.24 129.693H15.8208V134.924H10.24V129.693ZM21.4016 129.693H26.9824V134.924H21.4016V129.693ZM26.9824 129.693H32.5632V134.924H26.9824V129.693ZM32.5632 129.693H38.144V134.924H32.5632V129.693ZM43.7248 129.693H49.3056V134.924H43.7248V129.693ZM54.8864 129.693H60.4672V134.924H54.8864V129.693ZM82.7904 129.693H88.3712V134.924H82.7904V129.693ZM88.3712 129.693H93.952V134.924H88.3712V129.693ZM93.952 129.693H99.5328V134.924H93.952V129.693ZM99.5328 129.693H105.114V134.924H99.5328V129.693ZM105.114 129.693H110.694V134.924H105.114V129.693ZM116.275 129.693H121.856V134.924H116.275V129.693ZM121.856 129.693H127.437V134.924H121.856V129.693ZM127.437 129.693H133.018V134.924H127.437V129.693ZM138.598 129.693H144.179V134.924H138.598V129.693ZM144.179 129.693H149.76V134.924H144.179V129.693ZM10.24 134.924H15.8208V140.155H10.24V134.924ZM43.7248 134.924H49.3056V140.155H43.7248V134.924ZM54.8864 134.924H60.4672V140.155H54.8864V134.924ZM60.4672 134.924H66.048V140.155H60.4672V134.924ZM66.048 134.924H71.6288V140.155H66.048V134.924ZM82.7904 134.924H88.3712V140.155H82.7904V134.924ZM99.5328 134.924H105.114V140.155H99.5328V134.924ZM105.114 134.924H110.694V140.155H105.114V134.924ZM110.694 134.924H116.275V140.155H110.694V134.924ZM116.275 134.924H121.856V140.155H116.275V134.924ZM121.856 134.924H127.437V140.155H121.856V134.924ZM10.24 140.155H15.8208V145.386H10.24V140.155ZM15.8208 140.155H21.4016V145.386H15.8208V140.155ZM21.4016 140.155H26.9824V145.386H21.4016V140.155ZM26.9824 140.155H32.5632V145.386H26.9824V140.155ZM32.5632 140.155H38.144V145.386H32.5632V140.155ZM38.144 140.155H43.7248V145.386H38.144V140.155ZM43.7248 140.155H49.3056V145.386H43.7248V140.155ZM66.048 140.155H71.6288V145.386H66.048V140.155ZM77.2096 140.155H82.7904V145.386H77.2096V140.155ZM99.5328 140.155H105.114V145.386H99.5328V140.155ZM110.694 140.155H116.275V145.386H110.694V140.155ZM127.437 140.155H133.018V145.386H127.437V140.155ZM144.179 140.155H149.76V145.386H144.179V140.155Z" fill="black"/>
</svg>
