<svg width="16" height="18" viewBox="0 0 16 18" fill="none" xmlns="http://www.w3.org/2000/svg">
<path d="M7.51472 18C7.44961 18 7.3845 17.9775 7.33191 17.9326C7.03252 17.6768 0 11.6196 0 7.53061C0 3.37823 3.37106 0 7.51472 0C11.658 0 15.0289 3.37823 15.0289 7.53061C15.0289 11.6196 7.99678 17.6767 7.69753 17.9326C7.6448 17.9775 7.57969 18 7.51472 18ZM7.51472 0.5625C3.68128 0.5625 0.5625 3.68845 0.5625 7.53061C0.5625 11.0128 6.39816 16.355 7.51472 17.3448C8.631 16.355 14.4664 11.0128 14.4664 7.53061C14.4664 3.68845 11.3479 0.5625 7.51472 0.5625Z" fill="#0B0B0B"/>
<path d="M7.51635 11.144C5.52735 11.144 3.90918 9.52303 3.90918 7.53051C3.90918 5.53898 5.52749 3.9187 7.51635 3.9187C9.50324 3.9187 11.1197 5.53884 11.1197 7.53051C11.1197 9.52303 9.50324 11.144 7.51635 11.144ZM7.51635 4.4812C5.83757 4.4812 4.47168 5.84906 4.47168 7.53051C4.47168 9.21281 5.83757 10.5815 7.51635 10.5815C9.19316 10.5815 10.5572 9.21281 10.5572 7.53051C10.5572 5.84906 9.19316 4.4812 7.51635 4.4812Z" fill="#0B0B0B"/>
<path d="M2.42896 7.53028H1.86646C1.86646 7.43282 1.86899 7.33593 1.87377 7.23975L2.43556 7.26745C2.43121 7.3545 2.42896 7.44211 2.42896 7.53028Z" fill="#0B0B0B"/>
<path d="M2.48478 6.77167L1.92847 6.6887C1.95589 6.50406 1.99301 6.31886 2.03872 6.13787L2.58406 6.27554C2.543 6.43853 2.50967 6.60545 2.48478 6.77167ZM2.73242 5.79179L2.20353 5.6004C2.26695 5.4249 2.34022 5.25053 2.42108 5.08206L2.92817 5.32534C2.85547 5.47708 2.78951 5.63387 2.73242 5.79179ZM3.16962 4.88054L2.68911 4.58819C2.78628 4.42844 2.89245 4.27192 3.00481 4.12314L3.45369 4.4619C3.35258 4.59592 3.25709 4.73669 3.16962 4.88054ZM3.77825 4.07336L3.36481 3.69198C3.49109 3.55501 3.62581 3.42254 3.76545 3.29851L4.13937 3.7187C4.01351 3.8305 3.89201 3.94989 3.77825 4.07336ZM4.53326 3.40159L4.2028 2.94639C4.35411 2.83656 4.51231 2.73334 4.67319 2.6394L4.95697 3.12512C4.81198 3.20964 4.66953 3.30273 4.53326 3.40159ZM5.40556 2.89211L5.17156 2.38051C5.3413 2.30289 5.51679 2.233 5.69342 2.17281L5.87497 2.70522C5.71606 2.7595 5.55814 2.82236 5.40556 2.89211ZM6.36111 2.56628L6.23384 2.0184C6.41525 1.97622 6.60115 1.94275 6.7865 1.9187L6.85892 2.47656C6.69186 2.49808 6.52451 2.52831 6.36111 2.56628Z" fill="#0B0B0B"/>
<path d="M7.2548 2.44094L7.22583 1.87914C7.32244 1.87422 7.41947 1.87183 7.51706 1.87183V2.43433C7.42931 2.43433 7.3417 2.43644 7.2548 2.44094Z" fill="#0B0B0B"/>
</svg>
