<svg width="20" height="20" viewBox="0 0 20 20" fill="none" xmlns="http://www.w3.org/2000/svg">
<g clip-path="url(#clip0_1946_100)">
<path d="M7.1875 13.75C3.56875 13.75 0.625 10.8062 0.625 7.1875C0.625 3.56875 3.56875 0.625 7.1875 0.625C10.8062 0.625 13.75 3.56875 13.75 7.1875C13.75 10.8062 10.8062 13.75 7.1875 13.75ZM7.1875 1.875C4.25813 1.875 1.875 4.25813 1.875 7.1875C1.875 10.1169 4.25813 12.5 7.1875 12.5C10.1169 12.5 12.5 10.1169 12.5 7.1875C12.5 4.25813 10.1169 1.875 7.1875 1.875Z" fill="white"/>
<path d="M3.75 7.8125C3.405 7.8125 3.125 7.53312 3.125 7.1875C3.125 4.9475 4.9475 3.125 7.1875 3.125C7.5325 3.125 7.8125 3.40438 7.8125 3.75C7.8125 4.09562 7.5325 4.375 7.1875 4.375C5.63688 4.375 4.375 5.63688 4.375 7.1875C4.375 7.53312 4.095 7.8125 3.75 7.8125Z" fill="#FFB22C"/>
<path d="M17.4999 19.4812C17.0193 19.4812 16.5399 19.2987 16.1743 18.9331L10.3068 13.0656C10.0624 12.8212 10.0624 12.4262 10.3068 12.1818C10.5512 11.9374 10.9462 11.9374 11.1906 12.1818L17.0581 18.0493C17.3024 18.2937 17.6974 18.2937 17.9418 18.0493L18.0493 17.9418C18.2931 17.6981 18.2931 17.3018 18.0493 17.0581L12.1818 11.1906C11.9374 10.9462 11.9374 10.5512 12.1818 10.3068C12.4262 10.0624 12.8212 10.0624 13.0656 10.3068L18.9331 16.1743C19.6643 16.9056 19.6643 18.0943 18.9331 18.8256L18.8256 18.9331C18.4599 19.2987 17.9806 19.4812 17.4999 19.4812Z" fill="white"/>
</g>
<defs>
<clipPath id="clip0_1946_100">
<rect width="20" height="20" fill="white"/>
</clipPath>
</defs>
</svg>
