<svg width="40" height="40" viewBox="0 0 40 40" fill="none" xmlns="http://www.w3.org/2000/svg">
<g clip-path="url(#clip0_1962_4735)">
<path d="M0 19.976C0 8.92 8.75739 -0.00399866 19.6043 1.34416e-06C30.4317 0.00400134 39.1343 8.964 39.1304 20.1C39.1265 31.1 30.33 40.008 19.483 40C8.72609 39.992 0 31.024 0 19.976ZM21.6274 33.54C21.6274 29.404 21.6274 25.316 21.6274 21.204C22.993 21.204 24.3235 21.204 25.693 21.204C25.8965 19.596 26.0961 18.012 26.3035 16.38C24.7226 16.38 23.1887 16.38 21.5687 16.38C21.6117 15.012 21.6117 13.684 21.7135 12.36C21.7683 11.664 22.2496 11.192 22.9226 11.06C23.4822 10.952 24.0613 10.944 24.6326 10.924C25.2274 10.904 25.8261 10.92 26.4326 10.92C26.4326 9.464 26.4326 8.056 26.4326 6.548C24.9809 6.52 23.5487 6.44 22.1204 6.48C19.4439 6.556 17.3387 8.464 16.9083 11.164C16.7987 11.844 16.7713 12.54 16.7517 13.232C16.7283 14.268 16.7439 15.304 16.7439 16.392C15.3704 16.392 14.0361 16.392 12.7017 16.392C12.7017 18.02 12.7017 19.6 12.7017 21.212C14.0517 21.212 15.3783 21.212 16.7517 21.212C16.7517 25.34 16.7517 29.436 16.7517 33.54C18.3913 33.54 19.9761 33.54 21.6274 33.54Z" fill="#FFB22C"/>
</g>
<defs>
<clipPath id="clip0_1962_4735">
<rect width="39.1304" height="40" fill="white"/>
</clipPath>
</defs>
</svg>
