<svg width="41" height="40" viewBox="0 0 41 40" fill="none" xmlns="http://www.w3.org/2000/svg">
<g clip-path="url(#clip0_1962_4738)">
<path d="M21.4024 40.0001C20.5704 40.0001 19.7344 40.0001 18.9024 40.0001C18.4144 39.9401 17.9264 39.8881 17.4384 39.8201C13.7504 39.2961 10.4344 37.8881 7.55439 35.5201C3.73039 32.3761 1.35039 28.3681 0.462391 23.4881C0.326391 22.7481 0.254391 22.0001 0.150391 21.2521C0.150391 20.4201 0.150391 19.5841 0.150391 18.7521C0.278391 17.8801 0.370391 17.0001 0.534391 16.1321C2.17839 7.54407 9.49439 0.896069 18.1864 0.100069C22.4584 -0.291931 26.5184 0.472069 30.1784 2.72807C37.3384 7.14007 40.6544 13.6201 40.0384 22.0081C39.7464 25.9761 38.2024 29.5201 35.6784 32.5961C32.5384 36.4241 28.5184 38.8041 23.6384 39.6921C22.8984 39.8241 22.1464 39.9001 21.4024 40.0001ZM8.60639 20.0121C8.67839 21.9121 8.68239 23.8281 8.83839 25.7321C9.08239 28.6441 11.1104 30.8241 13.9904 31.2321C15.4384 31.4401 16.9224 31.4641 18.3904 31.4641C20.8744 31.4641 23.3664 31.4761 25.8424 31.3001C28.1384 31.1361 29.8864 29.9601 30.8984 27.8321C31.3384 26.9041 31.5384 25.9041 31.5504 24.8801C31.5904 22.1881 31.6144 19.4921 31.6144 16.7961C31.6144 15.9521 31.5544 15.1041 31.4704 14.2641C31.1704 11.3481 29.1984 9.18407 26.3064 8.76407C24.8704 8.55607 23.4024 8.53207 21.9464 8.53207C19.4504 8.53207 16.9424 8.52007 14.4544 8.69207C11.3504 8.90407 9.09039 11.1961 8.83439 14.3001C8.67839 16.1961 8.67839 18.1001 8.60639 20.0121Z" fill="#FFB22C"/>
<path d="M10.7024 19.9798C10.7544 18.2358 10.7584 16.5038 10.8624 14.7758C11.0064 12.3758 12.5264 10.7878 14.9304 10.7238C18.4024 10.6318 21.8784 10.6278 25.3504 10.7238C27.8024 10.7878 29.3704 12.3598 29.4384 14.8238C29.5304 18.2958 29.5264 21.7718 29.4344 25.2398C29.3704 27.6118 27.7744 29.1518 25.4024 29.2878C21.9064 29.4878 18.4024 29.4878 14.9064 29.2878C12.5344 29.1518 11.0144 27.6118 10.8704 25.2318C10.7584 23.4838 10.7504 21.7238 10.7024 19.9798ZM20.1584 25.8958C23.4144 25.8918 26.0344 23.2758 26.0464 20.0198C26.0584 16.7558 23.4144 14.1078 20.1464 14.1118C16.8904 14.1158 14.2704 16.7318 14.2584 19.9878C14.2464 23.2518 16.8904 25.8998 20.1584 25.8958ZM26.2664 15.2438C27.0424 15.2518 27.6584 14.6398 27.6584 13.8718C27.6584 13.1158 27.0544 12.5078 26.3024 12.5038C25.5264 12.4958 24.9144 13.1038 24.9144 13.8798C24.9144 14.6318 25.5104 15.2358 26.2664 15.2438Z" fill="#FFB22C"/>
<path d="M23.9783 20.0118C23.9743 22.1158 22.2583 23.8278 20.1503 23.8278C18.0303 23.8278 16.3103 22.0958 16.3223 19.9718C16.3343 17.8718 18.0623 16.1638 20.1663 16.1758C22.2743 16.1838 23.9823 17.9038 23.9783 20.0118Z" fill="#FFB22C"/>
</g>
<defs>
<clipPath id="clip0_1962_4738">
<rect width="40" height="40" fill="white" transform="translate(0.130371)"/>
</clipPath>
</defs>
</svg>
