<svg width="41" height="40" viewBox="0 0 41 40" fill="none" xmlns="http://www.w3.org/2000/svg">
<g clip-path="url(#clip0_1962_4746)">
<path d="M0.130371 21.2474C0.130371 20.4154 0.130371 19.5795 0.130371 18.7475C0.218371 18.0675 0.286371 17.3835 0.402371 16.7035C1.10237 12.5677 2.91837 8.98775 5.85837 5.99984C8.85037 2.95592 12.4624 1.03997 16.6824 0.307992C17.4104 0.179995 18.1464 0.0999973 18.8784 0C19.7104 0 20.5464 0 21.3784 0C21.7504 0.0479987 22.1224 0.0999973 22.4944 0.143996C27.1064 0.703981 31.0984 2.59993 34.3144 5.92784C39.3184 11.1077 41.0944 17.3075 39.6384 24.3513C37.8024 33.2551 29.5944 39.9109 20.5024 39.9989C16.3544 40.0389 12.5184 38.9829 9.07438 36.655C4.37437 33.4751 1.48237 29.0752 0.438371 23.4874C0.302371 22.7474 0.230371 21.9954 0.130371 21.2474ZM19.8544 26.3393C19.9624 26.4113 20.0504 26.4673 20.1304 26.5273C21.6304 27.6312 23.1264 28.7352 24.6264 29.8392C25.6864 30.6192 26.4184 30.3352 26.6944 29.0392C27.3904 25.7713 28.0864 22.5034 28.7824 19.2355C29.1704 17.4155 29.5584 15.5996 29.9344 13.7796C30.0464 13.2396 30.1344 12.6677 29.6464 12.2517C29.1664 11.8437 28.6624 12.0917 28.1744 12.2797C23.4224 14.1116 18.6704 15.9476 13.9144 17.7835C12.3024 18.4075 10.6864 19.0235 9.08237 19.6595C8.71037 19.8075 8.27037 20.0035 8.29037 20.4714C8.31037 20.9554 8.78237 21.0594 9.16237 21.1794C10.6224 21.6434 12.0904 22.0914 13.5504 22.5634C13.8584 22.6634 14.0984 22.6394 14.3824 22.4594C17.9744 20.1794 21.5784 17.9195 25.1784 15.6516C25.3544 15.5396 25.5304 15.4156 25.7264 15.3596C25.8664 15.3196 26.0344 15.3836 26.1904 15.4036C26.1224 15.5196 26.0744 15.6516 25.9864 15.7476C25.8664 15.8836 25.7224 15.9956 25.5864 16.1196C22.7744 18.6595 19.9664 21.1994 17.1464 23.7354C16.8984 23.9593 16.7744 24.1833 16.7584 24.5313C16.7224 25.4673 16.6344 26.3993 16.5664 27.3353C16.5264 27.9312 16.4904 28.5232 16.4504 29.1272C16.8624 29.1592 17.1344 28.9672 17.3824 28.7272C18.1944 27.9392 19.0104 27.1513 19.8544 26.3393Z" fill="#FFB22C"/>
</g>
<defs>
<clipPath id="clip0_1962_4746">
<rect width="40" height="40" fill="white" transform="translate(0.130371)"/>
</clipPath>
</defs>
</svg>
