<svg width="41" height="40" viewBox="0 0 41 40" fill="none" xmlns="http://www.w3.org/2000/svg">
<g clip-path="url(#clip0_1962_4743)">
<path d="M40.1304 18.832C40.1304 19.612 40.1304 20.396 40.1304 21.176C40.0424 21.86 39.9784 22.544 39.8624 23.224C39.1064 27.7 37.1104 31.54 33.7624 34.6C28.6904 39.236 22.7184 40.896 15.9864 39.548C11.1224 38.576 7.17844 36.008 4.19044 32.06C0.886437 27.688 -0.381563 22.736 0.318437 17.312C0.834437 13.292 2.48244 9.752 5.18244 6.732C8.28244 3.268 12.1264 1.108 16.7184 0.308C17.4584 0.18 18.2104 0.1 18.9544 0C19.7344 0 20.5184 0 21.2984 0C21.4104 0.024 21.5224 0.06 21.6384 0.068C24.6584 0.288 27.4944 1.128 30.0904 2.676C35.4184 5.848 38.6864 10.484 39.8184 16.596C39.9584 17.332 40.0304 18.084 40.1304 18.832ZM15.3904 24.748C14.4704 25.352 13.5464 25.756 12.5424 25.92C11.8784 26.028 11.1984 26.024 10.5264 26.1C10.3904 26.116 10.2064 26.236 10.1544 26.356C10.1184 26.44 10.2464 26.628 10.3424 26.728C10.4504 26.832 10.6064 26.892 10.7424 26.964C13.7904 28.516 16.9544 28.744 20.1904 27.684C25.1264 26.072 27.9784 21.308 28.0904 16.772C28.1024 16.292 28.2424 15.952 28.5984 15.62C29.0984 15.152 29.5344 14.612 29.9784 14.088C30.0504 14 30.0384 13.84 30.0624 13.712C29.9224 13.704 29.7704 13.656 29.6464 13.692C29.2784 13.8 28.9184 13.944 28.5904 14.056C28.8904 13.532 29.2024 13.016 29.4824 12.48C29.5424 12.368 29.4944 12.196 29.4984 12.056C29.3544 12.072 29.1984 12.056 29.0704 12.108C28.4904 12.332 27.9184 12.576 27.3464 12.816C27.0224 12.952 26.7624 12.876 26.4904 12.656C25.4864 11.836 24.3224 11.556 23.0544 11.748C20.8824 12.08 19.3224 13.976 19.4904 16.24C19.5144 16.58 19.3984 16.696 19.0744 16.636C18.9864 16.62 18.8944 16.624 18.8024 16.608C15.9544 16.172 13.5744 14.88 11.6944 12.688C11.3704 12.312 11.2664 12.324 11.0504 12.792C10.2904 14.428 10.4664 15.968 11.5384 17.408C11.6104 17.504 11.6864 17.592 11.7624 17.684C11.4664 17.656 11.2344 17.552 10.9984 17.456C10.6744 17.324 10.5704 17.392 10.5704 17.744C10.5744 18.716 10.8744 19.6 11.5064 20.328C11.9064 20.788 12.4064 21.164 12.8264 21.548C12.7504 21.548 12.6064 21.56 12.4664 21.544C11.9824 21.496 11.8944 21.6 12.0824 22.048C12.6864 23.5 13.7744 24.38 15.3904 24.748Z" fill="#FFB22C"/>
</g>
<defs>
<clipPath id="clip0_1962_4743">
<rect width="40" height="40" fill="white" transform="translate(0.130371)"/>
</clipPath>
</defs>
</svg>
