<svg width="84" height="53" viewBox="0 0 84 53" fill="none" xmlns="http://www.w3.org/2000/svg">
<rect y="0.5" width="84" height="52" rx="10" fill="#FFB22C"/>
<g clip-path="url(#clip0_698_9189)">
<path d="M52 26.4929C52 26.8064 51.8755 27.09 51.6663 27.294C51.4619 27.5029 51.178 27.6273 50.8591 27.6273H43.1409V35.3392C43.1409 35.9661 42.6278 36.4786 42 36.4786C41.6861 36.4786 41.402 36.3492 41.1928 36.1451C40.9884 35.9362 40.8591 35.6526 40.8591 35.339V27.6273H33.1409C32.5081 27.6273 32 27.1198 32 26.4929C32 26.1795 32.1245 25.8909 32.3337 25.6869C32.5381 25.4828 32.822 25.3534 33.1409 25.3534H40.8589V17.6417C40.8589 17.0148 41.372 16.5073 41.9998 16.5073C42.3138 16.5073 42.5978 16.6367 42.807 16.8406C43.0114 17.0447 43.1408 17.3283 43.1408 17.6417V25.3536H50.8587C51.4917 25.3536 52 25.8611 52 26.4929Z" fill="white"/>
</g>
<defs>
<clipPath id="clip0_698_9189">
<rect width="20" height="20" fill="white" transform="translate(32 16.5)"/>
</clipPath>
</defs>
</svg>
