<svg width="117" height="97" viewBox="0 0 117 97" fill="none" xmlns="http://www.w3.org/2000/svg">
<path d="M58.1126 97C84.6868 97 106.23 75.2858 106.23 48.5C106.23 21.7142 84.6868 0 58.1126 0C31.5383 0 9.99561 21.7142 9.99561 48.5C9.99561 75.2858 31.5383 97 58.1126 97Z" fill="#FFF4EA"/>
<g style="mix-blend-mode:multiply">
<path d="M90.7764 34.4421L84.5189 36.2509L85.3161 39.0625C84.6304 39.2804 84.1004 39.4608 83.768 39.5967C80.0163 41.108 78.3287 41.2977 76.8271 41.4875C76.6969 41.5039 76.5761 41.5156 76.4552 41.5274H76.3762L76.0368 41.5484H76.0112C75.9066 41.5484 75.8043 41.5484 75.7067 41.5484H75.6509L75.3418 41.5367H75.3139C75.2139 41.5367 75.1186 41.5203 75.021 41.5086H74.9908C74.8885 41.4969 74.7862 41.4828 74.6816 41.4641H74.663C74.4468 41.429 74.2283 41.3844 73.9936 41.3305C73.7123 41.2649 73.4101 41.19 73.0638 41.0962C71.5621 40.719 67.4338 40.3395 65.372 40.3395C63.9773 40.3395 62.5826 39.653 61.0182 39.3203H61.0066H60.9694L60.8718 39.3015L60.551 39.2453L60.4673 39.2336C60.3395 39.2148 60.2116 39.1984 60.0815 39.1867H59.9838C59.863 39.1867 59.7398 39.1703 59.6166 39.1656H59.5654C59.4283 39.1656 59.2911 39.1656 59.1517 39.1656H59.0517C58.9076 39.1656 58.7635 39.1891 58.617 39.2101C58.0554 39.2881 57.5076 39.4458 56.9899 39.6787C54.9188 38.7907 53.0615 39.3718 51.7598 39.9552C50.0722 40.712 46.8783 41.6562 43.1289 43.1698C39.3795 44.6834 35.8138 46.1946 33.3661 45.6276C31.8273 45.2691 30.135 45.2879 27.2992 45.4472V42.0873L20.7906 42.1108L20.8045 45.8268V42.8137L10.3164 42.8512C10.1022 44.7264 9.9951 46.6125 9.99565 48.5001C9.98677 55.4417 11.4614 62.3037 14.3192 68.6194L20.9022 68.596V69.2989L27.4107 69.2755L27.3945 64.7933C28.0616 64.7582 28.573 64.7371 28.8891 64.7371C30.1003 64.7114 31.3037 64.9371 32.4247 65.4001C32.4019 65.4301 32.3809 65.4614 32.3619 65.4939C32.3619 65.4939 32.2596 65.8547 32.162 66.3889C32.0529 66.966 31.9946 67.5517 31.9877 68.1391C31.9877 69.4629 31.7994 72.1105 34.4261 72.2979C35.533 72.3485 36.6189 71.9809 37.4711 71.267L37.6478 71.1194L37.7059 71.0655L37.8198 70.9601L37.8849 70.8945L37.9825 70.7961L38.0476 70.7258L38.1359 70.6274C38.1548 70.6021 38.175 70.5779 38.1964 70.5547L38.2777 70.454L38.3312 70.3837L38.4102 70.2759L38.4567 70.208L38.5334 70.0908L38.5683 70.0346C38.6374 69.9222 38.6995 69.8056 38.7543 69.6855C38.761 69.6671 38.7688 69.6491 38.7775 69.6316C38.7938 69.5918 38.81 69.5543 38.824 69.5144C38.8379 69.4746 38.8403 69.4723 38.8496 69.4488C38.8589 69.4254 38.8728 69.3809 38.8821 69.3457L38.9007 69.2848L39.3935 69.5472C38.3544 70.9741 37.0481 72.9633 38.1755 74.9502C39.6585 77.5673 43.1545 77.9633 44.8653 76.3302C44.6794 77.0448 44.4841 77.9258 45.4906 79.1113C46.6157 80.4351 48.6798 81.0021 51.0299 79.9103C51.0299 79.9103 51.0299 79.9291 51.0299 79.9384C51.0299 80.0087 51.0485 80.079 51.0601 80.147C51.0601 80.147 51.0601 80.161 51.0601 80.168C51.1022 80.409 51.17 80.6447 51.2623 80.8709C51.3587 81.1034 51.482 81.3236 51.6296 81.527C52.1247 82.2041 52.9267 82.7336 54.1052 82.8812C56.948 83.2397 57.9406 82.2392 59.6305 80.0439L59.9211 80.1868L59.949 80.1985C60.2202 80.3223 60.4989 80.4288 60.7835 80.5171L60.8555 80.5382C60.9764 80.5734 61.0996 80.6062 61.2274 80.6366L61.3274 80.6601C61.6485 80.7294 61.9739 80.7763 62.3014 80.8006H62.4431C62.5733 80.8006 62.7081 80.8124 62.8453 80.8124H63.0057C63.1916 80.8124 63.3799 80.8124 63.5798 80.7889C63.6834 80.7818 63.7866 80.7692 63.889 80.7514L63.9634 80.7397C64.0563 80.7233 64.1447 80.7022 64.2284 80.6788H64.24C64.326 80.653 64.405 80.6249 64.4841 80.5945L64.5422 80.5687C64.6119 80.5382 64.6793 80.5054 64.7421 80.4703H64.7583C64.8228 80.4327 64.8849 80.3913 64.9443 80.3461L64.9908 80.3133C65.0419 80.2735 65.0907 80.2313 65.1349 80.1891C65.1421 80.185 65.1484 80.1794 65.1535 80.1727C65.2022 80.1264 65.248 80.0771 65.2907 80.0251L65.3255 79.9853C65.3604 79.9384 65.3953 79.8939 65.4255 79.847C65.4314 79.8396 65.4369 79.8318 65.4417 79.8236C65.4766 79.7716 65.5084 79.7176 65.537 79.6619L65.5603 79.6174C65.5835 79.5682 65.6068 79.5214 65.6277 79.4722C65.6306 79.4632 65.6345 79.4545 65.6393 79.4464C65.6602 79.3902 65.6812 79.3339 65.6998 79.2777C65.7008 79.2644 65.7008 79.2511 65.6998 79.2379C65.716 79.1887 65.73 79.1371 65.7439 79.0879C65.7428 79.0809 65.7428 79.0738 65.7439 79.0668C65.7579 79.0106 65.7695 78.9544 65.7788 78.9005C65.7797 78.8903 65.7797 78.8801 65.7788 78.87C65.7788 78.8185 65.7951 78.7693 65.802 78.7201C65.802 78.6662 65.8137 78.6146 65.816 78.5654V78.549C65.816 78.5209 65.816 78.4951 65.816 78.467C65.816 78.4295 65.816 78.3944 65.816 78.3592V78.2562C65.816 78.2304 65.816 78.207 65.816 78.1859V78.1718C65.816 78.1203 65.816 78.0781 65.816 78.0476C65.8173 78.0281 65.8173 78.0085 65.816 77.989C65.816 77.989 67.8801 78.5561 69.3818 77.422C70.365 76.677 70.4603 75.5289 70.4115 74.826C70.4128 74.8018 70.4128 74.7776 70.4115 74.7534C70.4115 74.737 70.4115 74.7229 70.4115 74.7089C70.4115 74.655 70.4115 74.6058 70.3952 74.5613V74.5214C70.3952 74.4863 70.3952 74.4558 70.3813 74.4254V74.3926C70.3813 74.3574 70.3697 74.327 70.365 74.3012V74.2848C70.365 74.2637 70.365 74.2473 70.365 74.2356V74.2192H70.3883C70.681 74.301 70.9783 74.3652 71.2785 74.4113L71.4599 74.4371H71.4947L71.6691 74.4582H71.697L71.9131 74.4769L72.1223 74.4886H72.1781H72.3478H72.4082H72.6407L72.8731 74.4769H72.9359L73.1056 74.4582H73.1777C73.2404 74.4582 73.3008 74.4418 73.3636 74.43H73.4124C73.4891 74.416 73.5635 74.3996 73.6449 74.3808L73.7053 74.3668L73.875 74.3176L73.9494 74.2941L74.1144 74.2356L74.1749 74.2098C74.2492 74.1817 74.3213 74.1489 74.3934 74.1137L74.4329 74.0927C74.491 74.0645 74.5468 74.0317 74.6049 73.9989L74.67 73.9568C74.7211 73.9263 74.7699 73.8935 74.8164 73.8607C74.8375 73.8472 74.8577 73.8323 74.8769 73.8162C74.9437 73.7672 75.0081 73.7148 75.0698 73.6592C75.1209 73.6147 75.1697 73.5655 75.2162 73.5163L75.2604 73.4671C75.2906 73.4319 75.3208 73.3991 75.3487 73.364L75.3929 73.3007C75.4185 73.2679 75.4417 73.2351 75.465 73.2C75.4802 73.1782 75.4942 73.1555 75.5068 73.132C75.5277 73.0969 75.5486 73.0641 75.5672 73.0289L75.6068 72.9563L75.6579 72.8532L75.6904 72.7759C75.7044 72.7407 75.7206 72.7056 75.7346 72.6681L75.7625 72.5884L75.7974 72.4783C75.8065 72.4514 75.8142 72.424 75.8206 72.3963C75.8206 72.3612 75.8415 72.3237 75.8508 72.2862C75.8601 72.2487 75.8624 72.23 75.8671 72.2019C75.8717 72.1737 75.8834 72.1269 75.8903 72.0871L75.9043 72.0027C75.9043 71.9652 75.9159 71.9254 75.9205 71.8879C75.9252 71.8504 75.9205 71.8317 75.9205 71.8035C75.9205 71.7754 75.9205 71.7239 75.9205 71.6864C75.9205 71.6489 75.9205 71.6278 75.9205 71.5997C75.9205 71.5716 75.9205 71.5224 75.9205 71.4826C75.9205 71.4427 75.9205 71.4263 75.9205 71.3982C75.9205 71.3701 75.9205 71.3185 75.9205 71.2811C75.9205 71.2436 75.9205 71.2225 75.9205 71.1944C75.9205 71.1662 75.9205 71.117 75.9205 71.0796V70.9929C75.9205 70.9554 75.9205 70.9179 75.9205 70.8804C75.9205 70.8429 75.9205 70.8218 75.9205 70.7914L75.9066 70.6883L75.8927 70.5946C75.8927 70.5641 75.881 70.5336 75.8764 70.5032C75.8717 70.4727 75.8648 70.4352 75.8578 70.4001C75.8508 70.3649 75.8578 70.3579 75.8578 70.3392C75.792 70.0176 75.6938 69.7035 75.5649 69.402C75.5463 69.3556 75.5254 69.3102 75.5021 69.2661C75.4812 69.2216 75.458 69.1794 75.4371 69.1396C75.4161 69.0997 75.3929 69.0622 75.372 69.0248L75.3022 68.9193C75.2807 68.8868 75.2574 68.8555 75.2325 68.8256C75.219 68.8081 75.2043 68.7917 75.1883 68.7764C75.8462 68.35 76.4645 67.9095 77.0479 67.462C78.5751 68.5233 80.967 68.1063 82.027 66.6818C82.7662 65.6907 82.3757 64.5356 81.7016 63.4859C82.5547 62.7197 83.3706 62.0028 84.1864 61.3772L84.4933 61.1429C84.5932 61.0703 84.6909 61 84.7908 60.932C86.7759 59.545 88.4286 58.9686 90.8461 58.4086L91.9898 62.4222L98.245 60.6134L97.2989 57.2934L98.052 59.9363L105.379 57.8276C107.061 49.0424 106.31 39.9598 103.208 31.5767L90.9577 35.1193L90.7764 34.4421ZM59.5399 49.9223C59.5399 49.9036 59.5399 49.8872 59.5515 49.8684C59.5467 49.8862 59.5428 49.9042 59.5399 49.9223Z" fill="#CCC6C6"/>
</g>
<path d="M81.8918 48.8772C80.5784 49.8144 79.8276 51.335 78.3283 52.469C76.829 53.603 72.1359 54.1724 72.1359 54.1724C72.1359 54.1724 68.5724 51.7146 65.7575 50.3908C62.9425 49.067 60.8761 48.1204 59.9463 47.7432C59.3884 47.5089 59.4814 47.0919 59.672 46.7826C59.4395 47.0497 59.0653 47.3637 58.6329 47.3637C58.2006 47.3637 58.096 47.2535 58.0611 47.1504C57.8868 47.4785 56.8361 47.8252 56.2015 48.3102C55.7575 48.6453 55.5042 48.4531 55.3833 48.2376C55.5082 48.5617 55.5317 48.9165 55.4507 49.2544C54.5481 51.6583 53.4826 53.9966 52.2615 56.253C51.3108 57.9282 49.3861 58.0126 47.9565 57.4245C41.8594 71.8316 59.9532 76.8713 59.9532 76.8713C59.9532 76.8713 68.3958 69.6854 73.2726 67.0308C78.1493 64.3761 81.1526 60.7914 84.1558 58.521C87.1591 56.2506 89.2209 55.8734 93.7234 54.9292C98.226 53.985 107.231 54.1724 116.236 52.2816L116.106 38.5142C113.849 39.1585 83.1563 47.9658 81.8918 48.8772Z" fill="#F4926C"/>
<path d="M81.5175 49.2546L81.4548 49.2311C80.3948 50.1683 79.6533 51.4687 78.3283 52.4692C76.8267 53.6055 72.1359 54.1725 72.1359 54.1725C72.1359 54.1725 68.5724 51.7147 65.7575 50.3909C62.9425 49.0671 60.8761 48.1206 59.9463 47.7433C59.3884 47.509 59.4814 47.092 59.672 46.7827C59.4395 47.0498 59.0653 47.3638 58.6329 47.3638C58.2006 47.3638 58.096 47.2537 58.0611 47.1506C57.8868 47.4786 56.8361 47.8253 56.2015 48.3103C55.7575 48.6454 55.5042 48.4533 55.3833 48.2377C55.5082 48.5618 55.5317 48.9166 55.4507 49.2546C54.5481 51.6584 53.4826 53.9968 52.2615 56.2531C51.3108 57.9283 49.3861 58.0127 47.9565 57.4246C41.8594 71.8317 59.9532 76.8715 59.9532 76.8715C59.9532 76.8715 68.3958 69.6855 73.2726 67.0309C78.1493 64.3763 81.1526 60.7915 84.1558 58.5211C84.3627 58.3641 84.5673 58.2165 84.7695 58.076C86.3525 53.9921 84.6463 50.6088 81.5175 49.2546Z" fill="#FC9E7A"/>
<path d="M0 42.4478C8.25427 43.385 13.8842 43.385 21.0134 43.0148C28.1426 42.6447 30.9553 42.2581 33.3936 42.8251C35.832 43.3921 39.3978 41.8879 43.1565 40.3673C46.9152 38.8467 50.0998 37.9095 51.7873 37.1527C53.4749 36.3959 56.1016 35.6391 58.9166 38.0899C61.7315 40.5406 64.7278 43.7623 64.7278 43.7623L59.2745 46.9862C59.2745 46.9862 65.467 50.011 68.4679 51.9065C71.4688 53.802 73.3493 54.9337 75.2229 55.8896C77.0964 56.8456 79.3488 57.7804 80.4762 59.1042C81.6036 60.428 83.1029 62.3188 81.9755 63.8324C80.8481 65.3459 78.2238 65.7232 76.7222 64.3994C75.2206 63.0756 73.1587 62.5086 72.0337 61.7518C70.9086 60.995 66.4037 59.1042 65.8412 58.727C65.2787 58.3498 64.5279 58.727 65.467 59.4838C66.4061 60.2405 68.4679 61.3746 70.7203 63.2654C72.9728 65.1561 74.0978 65.5357 74.8463 65.7232C75.5948 65.9106 76.7222 69.3173 75.0346 70.8285C73.347 72.3398 70.3438 71.3979 70.3438 71.3979C70.3438 71.3979 70.9063 73.4761 69.414 74.6125C67.9216 75.7488 65.8482 75.1795 65.8482 75.1795C65.8482 75.1795 66.2248 77.8271 63.5981 78.0145C60.9714 78.202 59.4698 77.2601 58.1565 76.3135C56.8431 75.3669 39.3978 67.0305 36.5852 65.1351C33.7725 63.2396 32.2686 61.9205 28.8911 61.9205C25.5136 61.9205 0 64.1979 0 64.1979V42.4478Z" fill="#FECCA7"/>
<path d="M70.4461 72.0004C70.4334 71.7918 70.4023 71.5848 70.3531 71.3818C68.103 69.4887 61.348 64.7629 60.5902 64.3833C59.8324 64.0037 58.9026 64.0061 61.1551 65.5196C63.4075 67.0332 68.1076 70.0557 69.228 70.9929C69.7138 71.4123 70.1299 71.7497 70.4461 72.0004Z" fill="#EDB28A"/>
<path d="M55.2514 67.1271C54.3216 66.5577 54.1263 66.7475 56.3764 68.4508C58.0035 69.6715 63.0988 73.7273 65.8441 75.9133C65.8714 75.6712 65.8714 75.4267 65.8441 75.1846L65.7488 75.0675C63.6916 73.5562 56.1904 67.6941 55.2514 67.1271Z" fill="#EDB28A"/>
<path d="M74.9718 65.7607C75.5344 68.0686 73.4935 70.6389 71.2666 71.5807C72.2894 71.7401 73.9444 71.7986 75.0439 70.8122C76.6478 69.376 75.7134 66.234 74.9718 65.7607Z" fill="#FCD6BE"/>
<path d="M70.3532 71.3818H70.3764L70.1672 71.2178L70.0626 71.2904C69.9929 73.4764 67.6707 74.7393 65.3369 74.5144L65.1045 74.6784L65.8576 75.147C65.8576 75.147 67.9218 75.714 69.4234 74.58C70.925 73.446 70.3532 71.3818 70.3532 71.3818Z" fill="#FCD6BE"/>
<path d="M77.9262 57.2231C79.8625 58.7625 77.6682 63.4391 73.5957 62.5441C74.6138 63.0127 75.7854 63.5492 76.7314 64.3833C78.2331 65.7071 80.8597 65.3205 81.9848 63.8163C83.1099 62.3121 81.6106 60.412 80.4855 59.0882C79.8788 58.3782 78.949 57.7761 77.9262 57.2231Z" fill="#FCD6BE"/>
<path d="M65.8507 58.7106L65.8925 58.7364C64.6978 57.361 63.8656 55.1961 63.6006 54.929C63.224 54.5494 63.7517 58.1202 65.1766 59.1722C64.7466 58.6216 65.3672 58.3849 65.8507 58.7106Z" fill="#EDB28A"/>
<path d="M63.6001 77.9985C65.555 77.8579 65.8456 76.3584 65.8688 75.597L64.2417 74.6387C64.7066 76.7614 62.4751 77.8111 59.5625 77.1949C60.8012 77.8558 62.2052 78.1353 63.6001 77.9985Z" fill="#FCD6BE"/>
<path d="M116.132 27.7925C116.132 27.7925 87.5198 35.262 83.768 36.7849C80.0163 38.3078 78.3357 38.4765 76.8271 38.6593C75.3185 38.842 74.5747 38.6593 73.0754 38.2797C71.5761 37.9002 67.4454 37.5229 65.3836 37.5229C63.3218 37.5229 61.2553 36.0117 58.6286 36.3889C56.002 36.7662 54.3144 38.8538 52.9987 39.9901C51.6831 41.1265 47.9313 43.0149 47.1875 44.3387C46.4437 45.6625 46.9992 48.3101 46.8109 50.1962C46.6226 52.0823 45.6859 54.1676 46.2484 55.8686C46.8109 57.5696 50.7509 58.8957 52.2526 56.2482C53.4736 53.9918 54.5392 51.6534 55.4418 49.2496C55.6301 48.6826 55.2535 47.9258 55.2535 47.9258C55.2535 47.9258 55.4418 48.863 56.1833 48.3054C56.9248 47.7478 58.2474 47.3682 58.0591 46.9816C58.0591 46.9816 57.8709 47.3588 58.6217 47.3588C59.3725 47.3588 59.935 46.4216 59.935 46.4216C59.935 46.4216 59.0052 47.3588 59.935 47.7454C60.8648 48.132 62.9359 49.0692 65.7462 50.393C68.5566 51.7168 72.1246 54.1746 72.1246 54.1746C72.1246 54.1746 76.8155 53.6076 78.3171 52.4713C79.8187 51.3349 80.5672 49.826 81.8805 48.8794C83.1939 47.9329 116.225 38.4765 116.225 38.4765L116.132 27.7925Z" fill="#FFA579"/>
<path d="M59.9418 76.8643C58.0659 79.3221 57.1268 80.4585 54.1305 80.0789C51.1343 79.6994 50.5648 76.8643 51.3156 75.3508L54.8813 68.1648C54.8813 68.1648 57.508 66.274 58.2588 69.3012C59.0096 72.3283 58.0659 75.9131 58.0659 75.9131L59.9418 76.8643Z" fill="#FFA579"/>
<path d="M54.8764 68.1648L51.3107 75.3508C51.0499 75.9334 50.9585 76.5786 51.0469 77.2114C51.1354 77.8443 51.4001 78.4389 51.8104 78.9262C54.9345 80.6085 57.5031 78.1881 58.0656 75.9201C58.0656 75.9201 58.9954 72.326 58.2539 69.3012C57.5124 66.2764 54.8764 68.1648 54.8764 68.1648Z" fill="#FCA886"/>
<path d="M51.0341 77.0962C48.684 78.1881 46.6175 77.6211 45.4948 76.2973C44.3721 74.9735 44.744 74.0269 44.9323 73.2725C45.1206 72.518 49.6231 66.0865 50.5599 65.1399C51.4967 64.1934 53.0006 63.6264 54.6882 64.7627C56.3758 65.8991 55.2507 68.3545 54.8765 69.1113C54.5022 69.8681 51.0341 77.0962 51.0341 77.0962Z" fill="#F4A082"/>
<path d="M44.9321 73.4597C43.2445 75.1631 39.6788 74.7835 38.1795 72.1359C36.6802 69.4884 39.4928 66.8408 40.2413 65.5193C40.9898 64.1979 44.7438 59.6618 48.3096 60.7912C51.8754 61.9205 49.7438 66.1426 49.7438 66.1426L44.9321 73.4597Z" fill="#FCA886"/>
<path d="M32.3639 62.6823C33.6749 60.4119 38.554 64.3833 38.9283 65.7071C39.3025 67.0309 37.0524 69.6785 34.4257 69.4887C31.7991 69.2989 31.9873 66.6536 31.9873 65.3299C32.0058 64.4352 32.1323 63.5461 32.3639 62.6823Z" fill="#FFA579"/>
<path d="M38.9282 65.7071C38.554 64.3833 33.6749 60.4119 32.3639 62.6823C32.3639 62.6823 32.2592 63.0454 32.1616 63.5796C32.2825 65.2315 33.3471 67.0309 34.9882 67.0309C36.3271 67.0309 36.7223 67.387 37.4708 68.4578C38.5191 67.6166 39.1397 66.4522 38.9282 65.7071Z" fill="#F4926C"/>
<path d="M59.8489 46.5131C60.5974 45.3791 60.0349 44.8121 59.6606 43.6758C59.2864 42.5394 60.974 40.651 61.7248 37.6262C61.7784 37.3848 61.7351 37.1319 61.6045 36.9226C61.4739 36.7132 61.2665 36.5644 61.0274 36.5086C60.2438 36.3287 59.4347 36.2906 58.6379 36.3961C56.0112 36.7757 54.3236 38.8539 53.0103 39.9902C51.6969 41.1266 47.9429 43.015 47.199 44.3388C47.0459 44.6242 46.9428 44.9342 46.8945 45.255C48.7541 41.546 53.6704 45.1893 55.3603 48.2165L55.4068 48.2985L55.3859 48.2376C55.5137 48.4531 55.7601 48.6453 56.2041 48.3102C56.8457 47.8252 57.8963 47.4785 58.0637 47.1504C58.0986 47.2535 58.2264 47.3636 58.6355 47.3636C59.0446 47.3636 59.4375 47.0497 59.6746 46.7826L59.656 46.8177C59.7141 46.717 59.7792 46.6256 59.8489 46.5131Z" fill="#FC9E7A"/>
<path d="M80.1953 44.7159C81.0809 46.902 81.0367 48.0969 81.4761 49.2051C81.6062 49.0903 81.741 48.9708 81.8828 48.8771C83.1962 47.9399 116.216 38.4765 116.216 38.4765L116.123 27.7925C116.123 27.7925 87.5197 35.262 83.768 36.7849C80.0163 38.3078 78.3357 38.4765 76.8271 38.6593C75.8841 38.796 74.9236 38.7443 74.0005 38.507C80.3905 39.9901 78.5146 40.5571 80.1953 44.7159Z" fill="#F79779"/>
<path d="M53.5635 72.5158C53.5635 73.6498 55.4393 73.453 55.4393 73.453L57.3152 70.6179C57.3152 70.6179 56.5644 69.6807 55.8136 69.4816C55.0628 69.2824 54.6885 69.4816 54.6885 69.4816L53.5635 72.5158Z" fill="#F7B69F"/>
<path d="M53.5636 65.8967C52.5013 65.0954 51.8737 64.9595 51.8737 64.9595C51.8737 64.9595 49.4353 67.4196 50.3744 68.7434C51.3135 70.0672 53.3753 68.5536 53.7496 67.9866C54.1238 67.4196 54.5004 66.8503 54.5004 66.8503C54.5004 66.8503 54.3144 66.4637 53.5636 65.8967Z" fill="#F7B69F"/>
<path d="M47.9335 62.4923C47.077 62.2258 46.1988 62.0361 45.3091 61.9253C45.3091 61.9253 43.2357 64.198 43.4309 65.5195C43.6262 66.8409 46.0832 68.3146 47.3826 66.9253C48.2636 65.9515 49.0746 64.9156 49.8093 63.8255C49.3074 63.2268 48.6615 62.7678 47.9335 62.4923Z" fill="#F7B69F"/>
<path d="M34.9888 67.0306C33.7452 67.0306 32.8316 65.995 32.4109 64.772C32.2203 65.3718 32.1784 66.0091 32.5504 66.4636C33.3267 67.4008 34.747 67.9514 35.3188 67.04C35.2142 67.0353 35.1003 67.0306 34.9888 67.0306Z" fill="#F7B69F"/>
<path d="M46.1523 55.7798C48.0282 56.717 50.2783 54.2662 50.2783 54.2662C50.2783 54.2662 51.7799 50.2831 48.965 50.1074C46.15 49.9317 46.1523 55.7798 46.1523 55.7798Z" fill="#F7B69F"/>
<g opacity="0.42">
<path opacity="0.44" d="M59.9414 47.3098C63.8303 45.6861 66.8289 40.2058 66.0781 38.875" stroke="#AF6038" stroke-miterlimit="10" stroke-linecap="round"/>
<path opacity="0.44" d="M61.3428 38.8936C61.2057 42.1035 59.1439 41.916 59.7157 43.617C60.2875 45.318 60.2736 46.3466 59.6204 47.155" stroke="#AF6038" stroke-miterlimit="10" stroke-linecap="round"/>
<path opacity="0.44" d="M78.263 46.6255C77.8888 50.4047 71.4546 53.2538 71.4546 53.2538" stroke="#AF6038" stroke-miterlimit="10" stroke-linecap="round"/>
<path opacity="0.44" d="M54.3623 45.5898C54.8954 45.8006 55.3563 46.1626 55.6893 46.6322C56.0223 47.1017 56.2129 47.6585 56.2382 48.2351" stroke="#AF6038" stroke-miterlimit="10" stroke-linecap="round"/>
<path opacity="0.44" d="M54.0815 44.1748C54.7517 44.2535 55.3761 44.5572 55.8543 45.037C56.3324 45.5169 56.6365 46.1449 56.7175 46.82" stroke="#AF6038" stroke-miterlimit="10" stroke-linecap="round"/>
<path opacity="0.44" d="M68.4281 38.0713C70.9525 39.449 69.8228 44.9292 65.3296 47.5745" stroke="#AF6038" stroke-miterlimit="10" stroke-linecap="round"/>
</g>
<path opacity="0.39" d="M62.8007 60.4002C63.9629 61.6959 62.28 62.1598 59.7044 62.3144C57.1289 62.4691 56.3386 59.5309 58.0192 59.2896C60.6435 58.9124 61.7709 59.2404 62.8007 60.4002Z" fill="#FFD9C0"/>
<path opacity="0.39" d="M65.934 53.6547C66.8428 53.807 66.2361 52.8909 64.7229 51.3656C63.2097 49.8403 60.7713 51.0446 60.7852 51.8225C60.8294 53.4274 63.2678 53.0502 64.2045 53.4274C64.7517 53.6532 65.3477 53.7315 65.934 53.6547Z" fill="#FFD9C0"/>
<path d="M90.7757 31.631L84.5195 33.4404L91.9564 59.565L98.2125 57.7556L90.7757 31.631Z" fill="white"/>
<path d="M116.224 52.2491L98.0188 57.0803L90.9663 32.3078L116.224 25.0703V52.2491Z" fill="#5774CD"/>
<path d="M20.907 66.4853L27.4155 66.4624L27.3214 39.2838L20.8129 39.3067L20.907 66.4853Z" fill="white"/>
<path d="M0 40.0651L20.8088 40.0112L20.9018 65.7842L0 65.8966V40.0651Z" fill="#FFB22C"/>
</svg>
