<svg  viewBox="0 0 56 36" fill="none" xmlns="http://www.w3.org/2000/svg">
<path d="M18.8636 24.6932C18.8636 25.1136 19.0142 25.4744 19.3153 25.7756C19.6165 26.0767 19.9773 26.2273 20.3977 26.2273C20.8182 26.2273 21.179 26.0767 21.4801 25.7756C21.7813 25.4744 21.9318 25.1136 21.9318 24.6932C21.9318 24.2727 21.7813 23.9119 21.4801 23.6108C21.179 23.3097 20.8182 23.1591 20.3977 23.1591C20.1193 23.1591 19.8636 23.2301 19.6307 23.3722C19.3977 23.5085 19.2102 23.6932 19.0682 23.9261C18.9318 24.1534 18.8636 24.4091 18.8636 24.6932ZM18.8636 18.0838C18.8636 18.5043 19.0142 18.8651 19.3153 19.1662C19.6165 19.4673 19.9773 19.6179 20.3977 19.6179C20.8182 19.6179 21.179 19.4673 21.4801 19.1662C21.7813 18.8651 21.9318 18.5043 21.9318 18.0838C21.9318 17.6634 21.7813 17.3026 21.4801 17.0014C21.179 16.7003 20.8182 16.5497 20.3977 16.5497C20.1193 16.5497 19.8636 16.6207 19.6307 16.7628C19.3977 16.8991 19.2102 17.0838 19.0682 17.3168C18.9318 17.544 18.8636 17.7997 18.8636 18.0838ZM18.8636 11.4744C18.8636 11.8949 19.0142 12.2557 19.3153 12.5568C19.6165 12.858 19.9773 13.0085 20.3977 13.0085C20.8182 13.0085 21.179 12.858 21.4801 12.5568C21.7813 12.2557 21.9318 11.8949 21.9318 11.4744C21.9318 11.054 21.7813 10.6932 21.4801 10.392C21.179 10.0909 20.8182 9.94034 20.3977 9.94034C20.1193 9.94034 19.8636 10.0114 19.6307 10.1534C19.3977 10.2898 19.2102 10.4744 19.0682 10.7074C18.9318 10.9347 18.8636 11.1903 18.8636 11.4744Z" fill="#111928"/>
</svg>
