<svg width="278" height="500" viewBox="0 0 278 500" fill="none" xmlns="http://www.w3.org/2000/svg">
<path d="M184.266 444.592C181.027 444.592 177.788 444.592 174.348 444.592C174.196 442.904 173.954 440.97 173.859 439.029C173.188 425.287 172.577 411.543 171.887 397.803C171.249 385.083 170.526 372.368 169.861 359.65C169.349 349.857 168.892 340.061 168.368 330.269C167.806 319.779 167.171 309.292 166.615 298.802C166.251 291.932 165.985 285.056 165.651 278.185C165.168 268.263 164.68 258.341 164.164 248.421C163.721 239.901 163.235 231.384 162.762 222.865C162.741 222.492 162.649 222.123 162.523 221.333C161.011 233.943 159.548 246.136 157.945 258.353C157.91 253.769 158.053 249.159 158.102 244.548C158.118 243.097 157.724 241.636 157.793 240.193C158.105 233.659 158.548 227.132 158.864 220.599C158.925 219.348 158.578 218.083 158.509 216.82C158.369 214.283 158.292 211.742 158.189 209.203C158.105 207.144 157.884 205.059 159.451 203.338C160.022 204.06 160.807 204.712 160.876 205.431C161.303 209.925 161.548 214.437 161.924 218.937C161.965 219.43 162.459 219.885 162.742 220.357C162.956 219.85 163.381 219.331 163.352 218.84C163.066 214.077 162.719 209.317 162.342 204.56C162.302 204.045 162.105 203.359 161.734 203.084C159.482 201.418 157.172 199.829 154.843 198.272C154.555 198.08 154.041 198.228 153.632 198.219C153.76 198.641 153.759 199.211 154.041 199.459C154.849 200.168 155.772 200.746 156.637 201.562C156.513 203.075 156.428 204.403 156.285 205.725C155.889 209.374 155.471 213.021 155.059 216.669C154.84 218.617 154.624 220.566 154.393 222.513C153.982 225.97 153.549 229.424 153.147 232.881C152.797 235.898 152.504 238.921 152.135 241.935C151.735 245.2 151.218 248.453 150.859 251.723C150.513 254.871 150.319 258.036 150.031 261.191C149.547 266.487 149.029 271.781 148.55 277.077C148.253 280.36 148.035 283.649 147.721 286.93C147.258 291.774 146.74 296.613 146.245 301.455C145.73 306.493 145.246 311.535 144.65 316.564C144.589 317.075 143.84 317.493 143.439 317.979C143.198 318.27 142.844 318.601 142.831 318.926C142.778 320.261 142.835 321.6 142.857 322.938C142.858 322.955 142.931 322.972 142.971 322.99C143.163 322.556 143.352 322.122 143.542 321.687C143.673 321.721 143.803 321.755 143.934 321.789C143.77 323.606 143.607 325.423 143.443 327.24C143.341 327.255 143.24 327.269 143.138 327.284C142.962 326.528 142.785 325.771 142.608 325.015C142.439 326.261 142.587 327.447 142.643 328.637C142.707 329.963 143.211 331.794 142.556 332.478C141.905 333.157 141.939 333.509 142.03 334.16C142.031 334.16 142.034 334.158 141.921 334.262C141.116 342.04 140.38 349.709 139.748 357.388C139.302 362.808 139.03 368.242 138.621 373.665C138.129 380.204 137.635 386.743 137.026 393.271C136.655 397.237 136.097 401.186 135.561 405.134C135.223 407.621 134.678 410.081 134.397 412.572C134.182 414.481 134.811 416.526 133.287 418.184C133.165 418.317 133.188 418.745 133.311 418.916C134.736 420.911 133.231 422.832 133.09 424.753C132.863 427.858 132.165 430.929 131.639 434.009C131.58 434.35 131.335 434.658 131.188 434.986C130.967 435.482 130.626 435.966 130.56 436.483C130.11 439.999 129.719 443.523 129.309 447.044C125.636 446.387 121.963 445.73 118.026 445.02C117.445 444.945 117.129 444.923 116.684 444.817C108.929 443.278 101.303 441.823 93.5844 440.358C93.187 440.319 92.8825 440.289 92.578 440.259C88.6114 439.435 84.6448 438.611 80.4922 437.749C81.1264 432.942 81.734 428.224 82.3741 423.511C83.4707 415.436 84.5578 407.359 85.7048 399.29C86.7887 391.666 87.9539 384.052 89.066 376.432C89.9854 370.131 90.8442 363.821 91.7929 357.524C93.2816 347.644 94.8116 337.769 96.3457 327.895C98.1626 316.201 99.9429 304.501 101.85 292.822C103.501 282.713 105.279 272.624 107.053 262.536C108.694 253.204 110.282 243.861 112.112 234.566C114.924 220.283 117.792 206.008 120.891 191.785C122.837 182.848 125.235 174.009 127.484 165.14C127.619 164.61 128.234 163.804 128.634 163.799C134.941 163.714 141.249 163.739 147.779 163.739C147.779 166.367 147.779 168.835 147.779 171.303C147.779 173.985 147.88 176.672 147.742 179.347C147.658 180.96 148.16 182.537 146.879 184.231C146.058 185.317 146.725 187.529 146.725 189.34C147.882 189.34 148.88 189.34 150.18 189.34C149.718 187.338 151.129 185.19 149.323 183.322C149.182 183.175 149.203 182.839 149.203 182.591C149.197 176.403 149.198 170.216 149.198 163.882C152.93 163.882 156.531 163.882 160.425 163.882C160.425 164.514 160.425 165.183 160.425 165.853C160.425 172.813 160.449 179.774 160.397 186.734C160.39 187.718 161.042 189.048 159.45 189.583C159.338 189.621 159.323 190.048 159.322 190.294C159.311 191.882 159.316 193.469 159.316 195.198C160.447 195.198 161.435 195.198 162.699 195.198C162.27 193.149 163.688 190.909 161.845 188.944C161.675 188.763 161.752 188.33 161.752 188.015C161.748 180.288 161.748 172.561 161.756 164.835C161.757 164.53 161.849 164.225 161.929 163.736C162.607 163.736 163.228 163.736 163.848 163.736C173.044 163.736 182.24 163.767 191.435 163.704C192.869 163.694 193.561 163.97 193.867 165.534C195.929 176.077 198.224 186.575 200.191 197.134C201.53 204.325 202.556 211.579 203.549 218.828C204.723 227.406 205.736 236.007 206.771 244.604C207.548 251.053 208.295 257.506 208.972 263.966C209.688 270.807 210.333 277.656 210.961 284.506C211.742 293.006 212.496 301.508 213.218 310.013C213.671 315.344 214.067 320.68 214.446 326.017C215.184 336.435 215.932 346.854 216.602 357.277C217.26 367.516 217.86 377.759 218.423 388.003C218.964 397.865 219.442 407.73 219.915 417.595C220.322 426.061 220.684 434.529 221.063 442.996C221.077 443.303 221.065 443.611 221.065 444.28C217.542 444.28 214.113 444.28 210.35 444.264C209.797 444.272 209.578 444.295 209.197 444.3C201.143 444.386 193.249 444.491 185.223 444.557C184.815 444.544 184.541 444.568 184.266 444.592ZM142.416 331.209C142.4 330.914 142.384 330.618 142.368 330.323C142.265 330.346 142.162 330.37 142.059 330.393C142.176 330.748 142.293 331.103 142.416 331.209Z" fill="#FD521C"/>
<path d="M126.574 142.974C121.627 143.097 116.68 143.221 111.576 143.181C111.418 141.784 111.273 140.531 111.442 139.321C111.825 136.581 112.392 133.866 112.826 131.132C113.153 129.071 113.39 126.995 113.667 124.926C113.453 124.856 113.238 124.786 113.023 124.716C112.368 125.563 111.712 126.41 111.057 127.257C111.015 124.824 110.974 122.391 111.062 119.678C111.271 119.095 111.417 118.793 111.418 118.491C111.44 109.906 111.454 101.32 111.438 92.7354C111.438 92.346 111.155 91.9571 111.056 91.4514C111.108 90.8739 111.108 90.413 111.108 89.9522C109.922 92.4437 108.998 94.9145 108.354 97.4563C107.175 102.116 106.223 106.832 105.06 111.496C103.808 116.521 102.286 121.482 101.131 126.527C99.804 132.328 98.7363 138.189 97.5951 144.032C97.4476 144.787 97.5348 145.588 97.5132 146.367C94.5527 152.426 91.6687 158.524 88.6108 164.534C85.3485 170.945 79.9429 174.197 72.8111 173.924C65.8593 173.657 60.7267 170.185 57.9588 163.691C49.7761 144.494 41.6614 125.268 33.5212 106.053C32.4293 103.475 31.4466 100.845 30.2162 98.3357C29.4804 96.8353 29.8957 96.2116 31.285 95.6092C32.7985 94.9528 34.2122 94.0661 35.9067 93.1731C38.3912 91.8289 40.6384 90.5915 43.0001 89.3317C43.3038 89.1887 43.4931 89.0682 43.813 88.9286C45.1459 88.2146 46.3481 87.5197 47.5503 86.8248C49.8862 85.7063 52.2221 84.5879 54.7774 83.3644C60.9266 95.9861 67.0421 108.539 73.1203 121.382C73.0819 121.863 73.0229 122.076 73.088 122.24C75.3338 127.895 77.5962 133.543 79.8372 139.2C79.9997 139.61 80.0192 140.077 80.1052 140.517C80.4369 140.257 80.7686 139.998 81.1003 139.739C80.908 139.12 80.7455 138.491 80.5183 137.886C79.1848 134.334 77.8361 130.788 76.5952 127.118C79.7067 129.932 82.7155 132.867 85.8976 135.972C85.9074 134.203 78.4855 126.346 76.6956 125.875C76.6326 126.336 76.5724 126.798 76.3818 127.208C75.4207 125.234 74.5899 123.312 73.7591 121.39C79.9074 105.988 85.9388 90.5367 92.3039 75.2247C93.554 72.2174 96.094 69.7464 98.2984 67.0713C100.655 72.329 102.752 77.5435 104.849 82.7579C105.163 82.633 105.477 82.5081 105.792 82.3832C103.672 76.9117 101.553 71.4401 99.4333 65.9686C105.618 61.0691 112.575 59.8242 120.12 61.7652C125.476 63.1431 130.784 64.7076 136.116 66.1799C136.353 66.2452 136.614 66.2208 137.065 66.2521C137.065 63.2236 137.065 60.2511 137.065 57.0449C138.522 57.3649 139.743 57.633 141.218 57.9994C142.57 58.4062 143.721 58.6015 144.748 59.0674C145.33 59.3312 146.017 59.9768 146.135 60.5566C147.692 68.2026 149.155 75.8676 150.541 83.6628C150.339 84.6059 150.149 85.4139 150.148 86.222C150.127 104.86 150.126 123.498 150.121 142.137C142.913 142.402 135.705 142.666 128.17 142.947C127.42 142.966 126.997 142.97 126.574 142.974Z" fill="#5775CD"/>
<path d="M188.046 140.898C181.561 141.103 175.076 141.296 168.591 141.516C162.935 141.708 157.28 141.93 151.439 141.982C151.253 123.138 151.257 104.45 151.224 85.7618C151.223 85.0163 150.862 84.2713 150.711 83.3738C150.886 82.6667 151.059 82.1182 151.144 81.5565C152.057 75.5576 153.302 69.581 153.726 63.5469C153.976 59.9974 155.527 58.3461 158.546 57.4074C160.126 56.7835 161.706 56.1596 163.552 55.4303C163.15 59.1282 162.775 62.5787 162.365 66.3552C166.18 63.9455 169.784 61.6966 173.359 59.4033C176.797 57.1979 180.231 55.1679 184.458 54.6289C192.167 53.6462 200.545 58.3067 203.396 65.61C207.881 77.1009 212.285 88.6236 216.723 100.133C216.882 100.545 217.034 100.96 217.6 101.449C219.125 95.5864 220.65 89.7237 222.194 83.7872C223.685 84.1395 224.973 84.444 226.528 84.8342C231.094 86.0985 235.393 87.277 239.692 88.4556C242.493 89.2669 245.277 90.1498 248.104 90.8611C249.657 91.252 250.266 91.7872 249.898 93.5777C247.623 104.652 245.473 115.751 243.297 126.845C241.121 137.936 239.025 149.042 236.772 160.117C235.395 166.886 231.184 171.43 224.662 173.369C218.036 175.339 211.947 173.903 206.881 168.961C206.744 168.827 206.61 168.691 206.485 168.293C206.465 165.701 206.439 163.374 206.398 161.046C206.388 160.483 206.33 159.921 206.294 159.358C206.034 159.369 205.775 159.38 205.515 159.391C205.515 162.016 205.515 164.641 205.515 167.267C204.833 166.26 204.15 165.253 203.541 164.002C203.496 157.718 203.378 151.678 203.26 145.638C203.067 145.639 202.873 145.641 202.68 145.643C202.598 146.475 202.516 147.308 202.434 148.14C202.205 148.159 201.976 148.178 201.747 148.197C201.586 146.973 201.425 145.748 201.243 144.363C201.085 144.899 200.976 145.269 200.776 145.949C200.467 140.857 200.183 136.118 199.877 131.38C199.867 131.229 199.664 131.036 199.505 130.959C198.058 130.258 197.936 131.115 197.98 132.242C198.12 135.825 198.263 139.409 198.316 142.994C198.322 143.402 197.77 143.818 197.477 144.23C197.323 143.839 197.169 143.448 196.866 142.807C196.416 139.475 196.248 136.373 195.79 133.314C194.293 123.318 192.7 113.337 191.107 103.355C191.019 102.808 190.599 102.313 190.336 101.654C191.164 99.722 190.123 98.7539 188.254 97.4437C188.183 112.248 188.115 126.573 188.046 140.898ZM216.313 105.102C214.783 112.06 213.198 119.007 211.762 125.985C211.399 127.747 210.627 128.969 209.113 129.888C208.051 130.532 207.123 131.399 206.136 132.166C206.304 132.405 206.473 132.644 206.641 132.884C207.923 132.078 209.205 131.273 210.704 130.331C209.931 134.099 209.226 137.537 208.52 140.976C210.176 139.866 218.099 103.235 217.297 101.519C216.914 102.833 216.63 103.808 216.313 105.102ZM191.728 76.7465C193.503 71.1714 195.467 65.6491 196.505 59.7404C195.998 59.7955 195.868 60.0786 195.774 60.3734C194.102 65.6239 192.425 70.873 190.804 76.1394C190.748 76.3214 191.263 76.6791 191.728 76.7465ZM208.708 167.529C208.427 164.467 208.146 161.405 207.865 158.343C207.986 161.903 206.737 165.587 208.705 168.977C208.705 168.599 208.705 168.22 208.708 167.529Z" fill="#5775CD"/>
<path d="M220.196 393.963C219.679 384.62 219.241 375.455 218.63 366.302C217.723 352.702 216.718 339.108 215.711 325.514C214.935 315.033 214.173 304.55 213.254 294.081C212.386 284.185 211.361 274.303 210.334 264.421C209.326 254.727 208.359 245.026 207.135 235.358C205.792 224.747 204.368 214.14 202.628 203.588C200.797 192.482 198.569 181.442 196.475 170.38C196.064 168.207 195.476 166.066 194.945 163.809C196.667 163.809 198.25 163.809 200.141 163.809C201.324 168.112 202.767 172.451 203.694 176.897C206.597 190.832 209.654 204.75 211.99 218.785C214.247 232.346 215.853 246.024 217.427 259.687C218.732 271.01 219.655 282.379 220.6 293.74C221.671 306.625 222.713 319.515 223.521 332.418C224.46 347.422 225.248 362.437 225.885 377.457C226.46 391.02 226.758 404.596 227.15 418.167C227.376 426.005 227.547 433.844 227.739 441.683C227.756 442.375 227.741 443.068 227.741 443.905C225.98 443.905 224.364 443.905 222.619 443.905C221.812 427.323 221.005 410.734 220.196 393.963Z" fill="#FD541F"/>
<path d="M159.334 203.299C157.884 205.06 158.105 207.145 158.188 209.203C158.291 211.742 158.369 214.283 158.508 216.82C158.578 218.084 158.925 219.349 158.864 220.599C158.548 227.132 158.105 233.66 157.793 240.193C157.724 241.636 158.118 243.098 158.102 244.548C158.052 249.159 157.91 253.769 157.881 258.51C156.605 269.957 155.278 281.277 153.891 292.589C152.798 301.496 151.596 310.389 150.505 319.296C149.182 330.099 147.948 340.912 146.631 351.716C145.545 360.623 144.368 369.518 143.279 378.425C142.198 387.269 141.203 396.123 140.123 404.967C139.028 413.938 137.862 422.901 136.75 431.87C136.187 436.418 135.68 440.973 135.134 445.524C135.037 446.33 134.87 447.128 134.706 448.107C132.903 447.781 131.231 447.478 129.434 447.11C129.719 443.523 130.11 440 130.56 436.484C130.626 435.966 130.966 435.482 131.188 434.987C131.335 434.658 131.58 434.351 131.638 434.009C132.165 430.929 132.863 427.858 133.09 424.754C133.231 422.832 134.736 420.911 133.311 418.917C133.188 418.745 133.165 418.318 133.287 418.185C134.811 416.526 134.182 414.481 134.397 412.573C134.678 410.081 135.223 407.621 135.561 405.135C136.097 401.187 136.655 397.237 137.026 393.271C137.635 386.743 138.129 380.204 138.621 373.666C139.03 368.242 139.302 362.808 139.748 357.388C140.38 349.71 141.116 342.04 141.92 334.421C142.033 335.132 142.033 335.787 142.033 336.443C142.193 336.427 142.353 336.411 142.514 336.396C142.352 335.651 142.191 334.906 142.029 334.161C141.939 333.51 141.905 333.157 142.556 332.478C143.211 331.795 142.707 329.963 142.643 328.638C142.587 327.447 142.439 326.262 142.608 325.016C142.785 325.772 142.961 326.528 143.138 327.284C143.24 327.27 143.341 327.255 143.443 327.24C143.606 325.423 143.77 323.606 143.934 321.789C143.803 321.755 143.673 321.721 143.542 321.687C143.352 322.122 143.163 322.557 142.971 322.99C142.93 322.972 142.857 322.956 142.857 322.938C142.835 321.6 142.778 320.261 142.831 318.927C142.844 318.602 143.198 318.271 143.439 317.979C143.84 317.494 144.589 317.075 144.65 316.564C145.246 311.535 145.73 306.493 146.245 301.455C146.74 296.614 147.258 291.774 147.721 286.93C148.035 283.65 148.253 280.36 148.55 277.078C149.029 271.781 149.547 266.488 150.031 261.191C150.319 258.036 150.513 254.871 150.859 251.723C151.218 248.453 151.735 245.201 152.135 241.935C152.504 238.921 152.797 235.898 153.147 232.882C153.549 229.424 153.982 225.97 154.393 222.514C154.624 220.567 154.839 218.618 155.059 216.669C155.47 213.022 155.889 209.374 156.285 205.725C156.428 204.403 156.513 203.075 156.758 201.627C157.706 202.102 158.52 202.7 159.334 203.299ZM157.731 252.885C157.686 252.773 157.642 252.659 157.59 252.55C157.587 252.546 157.472 252.577 157.472 252.593C157.465 252.951 157.466 253.31 157.466 253.669C157.529 253.666 157.591 253.663 157.653 253.659C157.681 253.478 157.709 253.297 157.731 252.885ZM143.486 320.128C143.484 320.282 143.482 320.436 143.481 320.59C143.544 320.59 143.663 320.595 143.663 320.59C143.675 320.437 143.676 320.284 143.486 320.128Z" fill="#FC3312"/>
<path d="M170.387 38.3407C173.76 38.4068 175.099 39.8157 175.008 43.2023C174.939 45.7763 173.118 48.3641 170.743 49.2649C168.527 50.1054 166.77 49.4735 165.058 47.2477C162.94 48.7259 160.824 50.2023 158.455 51.7765C152.62 54.4758 146.99 54.231 141.33 52.154C136.937 49.8157 133.445 46.5804 131.374 41.985C130.751 40.6043 130.303 39.145 129.777 37.7261C126.345 38.2665 124.888 37.7201 123.605 35.4249C122.307 33.102 122.555 29.5244 124.142 27.6719C125.69 25.8642 127.04 25.6558 130.082 26.8201C130.237 26.4268 130.393 26.0313 130.663 25.417C130.819 24.9741 130.861 24.7499 130.903 24.5257C130.903 24.5257 130.952 24.3768 131.074 24.2256C131.665 23.3921 132.004 22.5429 132.627 22.0596C134.315 20.7494 136.016 19.3594 137.934 18.4882C138.755 18.115 140.126 18.9463 141.246 19.2367C141.615 19.3323 141.975 19.4663 142.345 19.5519C148.549 20.9826 154.739 20.508 160.899 19.302C162.355 19.017 163.127 19.2561 163.602 20.7698C164.952 25.0696 166.467 29.3172 167.846 33.6083C168.457 35.5083 168.895 37.4635 169.505 39.74C169.94 39.0499 170.163 38.6953 170.387 38.3407ZM155.06 31.0615C155.06 31.0615 155.086 31.0673 154.812 31.0147C152.522 33.175 152.5 33.7425 154.839 35.1771C157.601 37.3605 160.63 37.6022 163.732 35.7865C163.74 35.698 163.788 35.6504 163.89 35.6623C163.89 35.6623 163.875 35.6797 164.152 35.6827C164.851 35.229 165.549 34.7753 166.511 34.1504C165.424 32.9487 164.562 31.9958 163.511 30.8859C161.292 28.1319 158.772 27.9366 155.443 30.4455C155.314 30.6597 155.186 30.8739 155.06 31.0615ZM138.368 23.7787C136.792 24.1037 135.216 24.4287 133.247 24.8346C133.984 26.3125 134.504 27.3557 135.091 28.6635C136.58 31.4104 139.069 32.3851 142.006 32.5981C143.558 32.7107 144.301 31.8734 144.569 30.48C145.38 26.2713 143.212 23.8006 138.368 23.7787ZM140.794 21.7579C142.896 22.1866 144.998 22.6153 146.993 23.0221C146.372 20.5249 140.831 19.4689 137.932 22.0067C138.775 21.9466 139.618 21.8866 140.794 21.7579ZM149.157 31.0273C147.721 32.192 146.285 33.3567 144.848 34.5214C145.058 34.7823 145.269 35.0431 145.479 35.304C146.574 34.4414 147.669 33.5787 148.791 32.6959C149.278 33.9544 149.718 35.0917 150.159 36.2291C150.463 36.121 150.766 36.0129 151.07 35.9048C150.526 34.3094 149.981 32.714 149.157 31.0273ZM169.63 43.5058C170.644 42.965 171.658 42.4243 172.885 41.77C171.088 40.9903 167.584 42.9177 166.986 44.3605C167.96 45.2938 168.82 46.1177 169.679 46.9416C169.833 46.8125 169.987 46.6834 170.141 46.5543C169.833 45.9861 169.444 45.4441 169.246 44.8398C169.133 44.4923 169.327 44.0439 169.63 43.5058ZM157.686 24.9084C157.278 25.144 156.87 25.3796 156.463 25.6152C156.485 25.8044 156.507 25.9936 156.528 26.1828C159.884 25.4073 162.453 26.7055 164.62 29.3209C164.92 26.7586 161.736 24.8133 157.686 24.9084ZM129.194 31.5899C128.493 30.4793 127.791 29.3686 127.09 28.258C126.804 28.4264 126.518 28.5948 126.232 28.7633C126.946 30.0426 127.659 31.322 128.366 32.5897C127.522 33.233 126.767 33.8078 126.013 34.3826C128.809 34.4395 129.435 33.8512 129.194 31.5899ZM150.977 41.3858C148.482 39.454 145.298 39.1911 144.044 41.0915C146.883 40.8209 149.537 40.8509 151.455 43.3814C151.593 43.2053 151.731 43.0291 151.869 42.8529C151.635 42.4252 151.401 41.9975 150.977 41.3858Z" fill="#EB8667"/>
<path d="M239.741 88.3372C235.392 87.2771 231.093 86.0985 226.676 84.8262C228.4 81.2025 230.294 77.6978 232.051 74.1256C232.512 73.1866 232.696 72.0474 232.757 70.9857C233.01 66.5573 234.911 62.8717 237.989 59.8555C242.087 55.8398 245.299 51.2516 247.904 46.1687C248.343 45.3116 249.31 44.3913 250.202 44.163C252.835 43.4896 254.833 45.6713 254.169 48.3459C253.788 49.8803 253.223 51.369 252.601 53.0826C250.338 54.7786 248.213 56.2704 246.089 57.7621C246.269 57.9997 246.449 58.2372 246.629 58.4748C248.824 56.8572 251.02 55.2395 253.215 53.6219C258.867 50.5691 264.915 48.6425 271.173 47.3189C272.695 46.9969 273.867 47.6305 274.416 49.0007C274.975 50.395 274.386 51.4819 272.958 52.053C271.243 52.7389 269.53 53.4289 267.591 54.2222C267.166 54.4127 266.967 54.4981 266.768 54.5835C266.803 54.6692 266.838 54.7548 266.873 54.8405C267.174 54.728 267.475 54.6155 267.776 54.503C269.892 54.1785 272.012 53.8777 274.123 53.5217C275.755 53.2466 276.885 53.881 277.346 55.4131C277.798 56.9152 276.919 57.7821 275.289 58.2459C273.881 58.1103 272.722 57.7579 271.647 57.9294C265.143 58.9668 258.878 60.8124 253.077 64.0013C251.745 64.7339 250.549 65.7159 249.118 66.7024C249.619 66.9379 249.753 67.0588 249.838 67.0307C250.13 66.9339 250.438 66.8298 250.682 66.6493C254.678 63.6844 259.216 61.8482 263.959 60.5785C267.588 59.6068 271.197 58.1124 275.109 59.0246C276.201 61.7728 275.904 62.3902 272.988 63.3623C271.864 63.7368 270.731 64.0803 269.339 64.3698C261.976 64.8864 255.407 67.0944 249.29 70.6988C255.74 68.1149 262.247 65.7616 269.228 65.0618C269.842 65.7525 271.063 66.5893 270.939 67.103C270.696 68.115 269.892 69.4092 268.992 69.7701C266.047 70.9515 263.005 71.9927 259.909 72.676C253.056 74.1886 248.056 78.3825 243.592 83.4261C242.243 84.9509 241.053 86.6173 239.741 88.3372ZM251.12 62.1498C255.359 58.5282 260.635 56.9138 265.711 54.9115C261.568 54.8599 250.194 60.0471 248.875 63.8443C249.777 63.1722 250.344 62.7495 251.12 62.1498ZM234.055 80.3576C233.948 81.1561 233.842 81.9547 233.735 82.7532C235.092 80.4264 235.966 77.9895 237.367 75.9068C238.807 73.7661 240.76 71.9711 242.673 69.8181C239.778 70.6915 235.41 76.0976 234.055 80.3576Z" fill="#EB8667"/>
<path d="M47.4819 86.6804C46.3466 87.5199 45.1444 88.2149 43.7812 88.7747C42.5094 83.5685 39.191 80.1261 35.1871 77.1748C38.3049 80.8951 42.0604 84.1956 42.8841 89.3543C40.6369 90.5918 38.3897 91.8292 36.0107 93.0953C33.5705 90.6891 31.3252 88.1902 28.9396 85.8333C24.8338 81.7767 19.413 80.4627 14.1076 78.9249C12.0997 78.3429 10.0558 77.8034 8.16283 76.9472C7.39828 76.6014 6.58842 75.4824 6.54371 74.6741C6.50236 73.9267 7.45597 73.1243 8.28145 72.3565C15.4323 73.1781 21.8569 75.4193 28.2112 78.0844C27.9333 77.5301 27.5599 77.146 27.1065 76.9794C23.2421 75.5594 19.4119 74.014 15.4701 72.8491C13.1381 72.1599 10.6229 72.0907 8.19012 71.7427C6.57542 71.2695 4.92828 70.8834 3.35501 70.2987C1.74186 69.6991 1.46084 68.5334 2.45186 66.4326C3.38325 66.165 4.1602 65.8736 4.87339 65.9862C12.6522 67.2142 20.1356 69.289 26.7118 73.8688C27.0487 74.1035 27.4808 74.2014 27.8686 74.363C27.9551 74.2075 28.0416 74.0521 28.1281 73.8966C27.6027 73.4854 27.1014 73.0381 26.5483 72.6685C20.7859 68.818 14.3373 66.7487 7.58392 65.5965C5.842 65.2992 3.99968 65.5905 2.20348 65.6114C0.774074 65.329 -0.192945 64.5139 0.0326519 63.009C0.275361 61.39 1.40616 60.6631 3.07151 60.8451C4.82712 61.037 6.58473 61.2106 8.47259 61.0031C7.3099 60.5306 6.15345 60.0419 4.98296 59.5897C3.52289 59.0255 2.44777 58.1008 3.00812 56.4375C3.54601 54.8409 4.84003 54.3485 6.53509 54.6931C12.6633 55.9388 18.5339 57.8991 24.2466 60.9904C26.6015 62.6889 28.7829 64.2161 30.9644 65.7433C31.1256 65.513 31.2867 65.2827 31.4478 65.0524C29.2441 63.5215 27.0403 61.9907 24.8365 60.4598C24.3639 59.0127 23.8748 57.5707 23.4226 56.1173C22.7852 54.0682 23.5837 52.1145 25.2971 51.4628C27.0361 50.8013 28.7165 51.5332 29.6764 53.5083C32.0377 58.3669 35.0369 62.7445 38.9291 66.5262C42.3724 69.8718 44.3315 73.8925 44.8702 78.7862C45.1613 81.4308 46.5315 83.9565 47.4819 86.6804ZM17.182 63.3554C15.426 62.8299 13.67 62.3043 11.914 61.7788C11.8382 62.0326 11.7623 62.2864 11.6865 62.5402C17.7796 64.2099 23.4899 66.6672 28.4763 70.6402C25.4717 67.1502 21.6501 65.019 17.182 63.3554Z" fill="#EB8667"/>
<path d="M112.601 468.97C113.507 468.707 114.413 468.444 115.894 468.014C114.176 476.52 112.541 484.616 110.873 492.875C93.6804 488.19 76.7001 483.563 59.7676 478.801C66.8205 476.361 73.8256 474.057 80.8306 471.754C80.7728 471.586 80.715 471.418 80.6572 471.25C80.0882 471.45 79.5297 471.757 78.9466 471.815C78.526 471.856 78.0727 471.565 77.7654 471.368C79.2291 470.701 80.5613 470.087 81.9824 469.572C83.2662 469.1 84.4285 468.443 85.6621 467.974C89.5594 466.49 93.4834 465.077 97.4814 463.754C98.8771 466.612 100.188 469.352 101.588 472.276C104.943 471.191 108.185 470.143 111.526 469.105C111.95 469.068 112.276 469.019 112.601 468.97Z" fill="#5875CD"/>
<path d="M231.737 492.662C223.731 492.361 215.726 492.051 207.721 491.76C198.693 491.433 189.664 491.123 180.636 490.8C180.332 490.789 180.03 490.715 179.424 490.626C180.281 482.298 181.129 474.048 182.003 465.553C182.768 465.996 183.343 466.331 184.115 466.798C184.643 467.121 184.975 467.31 185.382 467.606C188.482 469.724 191.508 471.736 194.513 473.734C196.935 471.133 199.169 468.732 201.419 466.467C201.852 467.054 202.235 467.542 202.691 467.949C205.976 470.879 209.277 473.792 212.425 476.712C211.475 476.449 210.673 476.184 209.803 475.827C209.521 475.674 209.306 475.613 209.082 475.431C208.829 475.143 208.587 474.978 208.345 474.812C208.282 474.938 208.22 475.065 208.158 475.191C208.467 475.314 208.777 475.436 209.146 475.655C209.412 475.823 209.62 475.895 209.848 476.099C210.883 476.904 211.897 477.577 212.952 478.334C213.071 478.526 213.175 478.593 213.367 478.717C213.643 478.877 213.855 478.942 214.118 479.124C214.77 479.676 215.37 480.111 216.028 480.662C218.772 482.73 221.444 484.701 224.15 486.624C226.363 488.197 228.638 489.685 230.837 491.277C231.253 491.579 231.443 492.192 231.737 492.662Z" fill="#5875CD"/>
<path d="M170.387 38.1781C170.164 38.6953 169.941 39.0499 169.505 39.74C168.896 37.4635 168.458 35.5083 167.847 33.6084C166.468 29.3173 164.953 25.0696 163.603 20.7698C163.127 19.2561 162.356 19.017 160.9 19.3021C154.74 20.508 148.55 20.9826 142.346 19.5519C141.975 19.4663 141.616 19.3324 141.247 19.2367C140.127 18.9463 138.756 18.115 137.935 18.4882C136.017 19.3594 134.316 20.7494 132.628 22.0596C132.005 22.5429 131.666 23.3921 131.094 24.1495C132.04 19.0181 134.827 15.1858 139.803 13.0842C140.27 12.8869 140.728 12.6672 141.424 12.358C143.346 11.8219 145.033 11.3857 146.73 10.947C145.807 9.12851 144.16 8.48955 142.386 8.04238C143.642 5.88473 145.472 5.32216 148.99 6.09051C150.633 2.01 153.525 -0.555661 158.162 0.102739C162.222 0.679403 164.399 3.48042 165.156 7.40563C170.281 6.3481 172.595 7.04276 174.629 10.2099C176.452 13.0475 176.137 15.9512 173.553 19.4874C175.41 21.1941 177.306 22.945 177.108 25.9238C174.469 23.5299 171.997 20.9883 169.482 18.4909C168.796 17.809 167.977 17.2597 166.988 16.4635C166.988 17.0922 166.902 17.3807 167.001 17.5756C168.607 20.7439 170.092 23.9452 170.591 27.5221C170.661 28.0253 171.176 28.4794 171.52 28.9289C172.289 29.9319 173.08 30.9176 173.862 31.9104C173.826 31.9619 173.798 32.049 173.752 32.0598C170.485 32.8348 170.642 35.5419 170.387 38.1781ZM155.075 9.76235C153.775 8.8849 152.503 7.96078 151.155 7.16479C150.842 6.97959 150.271 7.2304 149.818 7.28059C149.926 7.6705 149.92 8.16157 150.161 8.4343C152.088 10.6163 154.663 11.3989 157.935 11.8804C156.793 11.0263 156.051 10.4706 155.075 9.76235Z" fill="#FFB6C8"/>
<path d="M231.853 492.694C231.443 492.193 231.254 491.579 230.838 491.277C228.639 489.685 226.364 488.198 224.151 486.625C221.445 484.702 218.773 482.73 216.037 480.658C215.987 480.537 215.994 480.521 216.133 480.522C216.687 480.403 217.102 480.282 217.651 480.196C219.164 480.7 220.509 481.389 221.925 481.598C226.207 482.229 230.514 482.683 234.814 483.187C236.397 483.372 237.984 483.531 239.574 483.633C239.86 483.652 240.167 483.337 240.464 483.177C240.224 482.871 240.033 482.493 239.727 482.284C239.492 482.124 239.111 482.175 238.794 482.137C233.291 481.491 227.786 480.865 222.286 480.191C219.654 479.869 217.456 478.675 215.709 476.664C213.745 474.403 211.764 472.157 209.805 469.892C207.943 467.738 206.102 465.567 203.721 462.784C204.795 462.011 205.777 461.304 206.904 460.604C207.399 460.733 207.793 460.789 208.093 460.989C210.889 462.847 213.646 464.763 216.461 466.592C218.194 467.719 220.007 468.722 221.784 469.781C222.518 470.603 223.251 471.424 223.914 472.38C223.915 472.846 223.872 473.334 224.077 473.485C226.824 475.512 229.605 477.491 232.378 479.482C232.55 479.304 232.721 479.127 232.892 478.95C232.55 478.579 232.258 478.139 231.857 477.85C230.033 476.536 228.179 475.265 226.335 473.979C233.082 475.763 239.858 477.446 246.567 479.364C251.602 480.803 254.183 484.613 255.36 489.493C255.664 490.756 255.741 492.073 255.96 493.632C248.182 493.341 240.697 493.062 232.999 492.694C232.672 492.637 232.559 492.668 232.445 492.699C232.286 492.708 232.127 492.717 231.853 492.694ZM207.37 461.14L207.33 461.208C207.33 461.208 207.411 461.199 207.37 461.14Z" fill="#2D3CB5"/>
<path d="M77.6335 471.422C78.0723 471.565 78.5256 471.856 78.9462 471.815C79.5292 471.757 80.0877 471.45 80.6567 471.25C80.7145 471.418 80.7724 471.586 80.8302 471.754C73.8251 474.057 66.82 476.361 59.6611 478.703C53.6829 477.199 47.8579 475.658 42.0345 474.112C40.4427 473.689 38.8557 473.249 37.2773 472.819C38.1241 467.782 43.8714 461.138 51.5729 461.951C57.1944 462.544 62.886 462.47 68.5457 462.706C69.305 462.738 70.061 462.848 70.8861 463.038C68.4705 463.867 65.9873 464.579 63.5041 465.291C63.6033 465.6 63.7024 465.91 63.8016 466.219C67.204 465.117 70.6114 464.029 73.9949 462.872C74.1718 462.811 74.1457 462.157 74.2141 461.78C74.9945 461.284 75.775 460.788 76.8249 460.244C77.718 460.118 78.3669 460.124 78.961 459.946C83.8169 458.494 88.6626 457.008 93.6038 455.625C94.2691 456.894 94.842 458.071 95.462 459.344C90.0571 462.662 84.9428 466.028 79.5895 468.958C77.8216 469.925 75.3613 470.3 73.3481 470.018C67.6829 469.222 62.0888 467.926 56.4561 466.885C55.9317 466.788 55.332 467.099 54.7672 467.22C55.2394 467.585 55.6645 468.164 56.1914 468.28C59.2371 468.949 62.2892 469.631 65.3727 470.075C69.4408 470.662 73.4185 472.163 77.6335 471.422Z" fill="#2D3CB5"/>
<path d="M190.514 153.316C191.342 156.236 192.17 159.156 193.05 162.259C182.572 162.259 172.286 162.259 161.869 162.259C161.869 160.901 161.869 159.59 161.869 158.232C162.593 157.996 163.334 157.754 164.076 157.512C164.046 157.328 164.016 157.144 163.987 156.96C162.296 156.96 160.604 156.96 158.913 156.96C158.843 157.059 158.772 157.157 158.701 157.255C159.218 157.593 159.734 157.931 160.357 158.339C160.357 159.521 160.357 160.841 160.357 162.277C156.676 162.277 153.063 162.277 149.301 162.277C149.301 160.92 149.301 159.555 149.301 158.197C150.059 157.985 150.782 157.784 151.505 157.582C151.487 157.391 151.469 157.2 151.452 157.009C149.733 157.009 148.015 157.009 145.7 157.009C146.611 157.609 147.134 157.954 147.687 158.319C147.687 159.568 147.687 160.886 147.687 162.277C141.188 162.277 134.787 162.277 128.221 162.277C129.05 159.531 129.834 156.934 130.73 154.077C131.402 153.644 131.961 153.324 132.521 153.324C151.852 153.302 171.183 153.311 190.514 153.316Z" fill="#FD5621"/>
<path d="M108.761 499.707C105.371 499.862 102.007 499.896 98.3829 499.878C97.8466 499.783 97.5713 499.74 97.296 499.697C92.1647 498.056 87.0444 496.378 81.8999 494.779C70.9724 491.382 60.0323 488.026 49.0137 484.42C49.956 483.6 50.9713 482.993 52.0104 482.431C53.6429 481.547 55.2914 480.693 56.9331 479.827C61.5106 481.026 66.0957 482.197 70.6643 483.43C83.2497 486.825 95.8288 490.244 108.408 493.662C109.015 493.827 109.601 494.068 110.586 494.408C109.97 496.182 109.379 497.883 108.761 499.707Z" fill="#5C77C7"/>
<path d="M238.972 499.816C238.815 499.841 238.658 499.865 238.364 499.794C238.074 499.742 237.921 499.786 237.768 499.831C237.007 499.863 236.246 499.924 235.484 499.924C217.466 499.929 199.448 499.929 181.216 499.885C180.925 499.803 180.855 499.754 180.793 499.694C178.651 497.571 179.133 494.949 179.302 492.134C197.873 492.849 216.34 493.559 234.978 494.431C236.367 495.825 237.63 497.018 238.769 498.318C239.046 498.635 238.915 499.307 238.972 499.816Z" fill="#5B76C8"/>
<path d="M97.5734 146.247C97.534 145.588 97.4468 144.787 97.5943 144.032C98.7355 138.189 99.8033 132.328 101.131 126.527C102.285 121.482 103.807 116.521 105.06 111.496C106.222 106.832 107.174 102.116 108.354 97.4564C108.997 94.9146 109.922 92.4438 111.107 89.9523C111.107 90.4131 111.107 90.874 110.917 91.549C110.655 95.1168 110.521 98.4704 110.524 101.824C110.529 107.727 110.618 113.629 110.671 119.532C106.326 128.397 101.98 137.262 97.5734 146.247Z" fill="#3648B7"/>
<path d="M188.216 140.899C188.114 126.573 188.182 112.248 188.253 97.4438C190.122 98.7541 191.163 99.7221 190.212 101.766C190.049 102.579 189.904 103.159 189.99 103.702C191.713 114.591 193.485 125.474 195.181 136.368C195.401 137.781 195.259 139.25 195.285 140.694C192.985 140.763 190.686 140.832 188.216 140.899Z" fill="#3547B8"/>
<path d="M158.537 57.2468C155.527 58.3463 153.976 59.9976 153.727 63.5471C153.302 69.5812 152.057 75.5578 151.144 81.5567C151.059 82.1184 150.886 82.6669 150.706 83.3809C150.657 83.5402 150.642 83.5281 150.642 83.5281C149.155 75.8679 147.692 68.203 146.135 60.5569C146.017 59.9771 145.33 59.3315 144.748 59.0677C143.72 58.6018 142.57 58.4066 141.374 57.9999C141.296 57.4065 141.315 56.9113 141.535 56.2601C145.319 57.7798 149.041 58.3729 152.862 57.1681C154.783 56.562 156.595 55.6069 158.456 54.8096C158.48 55.5684 158.503 56.3271 158.537 57.2468Z" fill="#E98568"/>
<path d="M56.8093 479.754C55.2903 480.694 53.6418 481.548 52.0093 482.431C50.9703 482.994 49.9549 483.6 48.913 484.327C45.1412 483.364 41.3599 482.337 37.6408 481.12C35.949 480.567 35.4096 478.837 35.9449 476.581C36.1183 475.851 36.4197 475.15 36.7524 474.172C43.4256 476.016 50.0561 477.849 56.8093 479.754ZM49.9001 483.024C49.987 483.045 50.0739 483.066 50.1609 483.086C50.1055 483.035 50.0502 482.984 49.9001 483.024Z" fill="#2E3CB5"/>
<path d="M239.142 499.879C238.916 499.307 239.047 498.634 238.77 498.318C237.631 497.017 236.368 495.825 235.15 494.458C241.958 494.548 248.766 494.773 255.925 495.011C255.763 496.641 255.617 498.112 255.496 499.728C250.118 499.895 244.715 499.918 239.142 499.879Z" fill="#38459E"/>
<path d="M197.5 144.373C197.768 143.818 198.321 143.401 198.314 142.994C198.261 139.409 198.118 135.825 197.978 132.242C197.934 131.115 198.056 130.258 199.503 130.959C199.662 131.036 199.865 131.229 199.875 131.38C200.181 136.118 200.465 140.857 200.774 145.949C200.974 145.269 201.083 144.899 201.241 144.363C201.423 145.748 201.584 146.973 201.745 148.197C201.974 148.178 202.203 148.159 202.432 148.14C202.514 147.308 202.596 146.475 202.678 145.642C202.872 145.641 203.065 145.639 203.258 145.638C203.376 151.678 203.494 157.718 203.512 163.874C201.957 159.335 200.486 154.685 199.057 150.023C198.498 148.202 198.033 146.353 197.5 144.373Z" fill="#5774CD"/>
<path d="M195.289 140.869C195.259 139.25 195.401 137.781 195.181 136.367C193.485 125.473 191.714 114.591 189.99 103.701C189.904 103.159 190.05 102.579 190.21 101.905C190.598 102.313 191.019 102.808 191.106 103.355C192.699 113.337 194.293 123.318 195.789 133.314C196.247 136.373 196.415 139.475 196.769 142.723C196.923 145.962 197.035 149.035 197.118 152.109C197.133 152.661 197.027 153.217 196.764 153.805C195.012 153.668 193.473 153.496 191.934 153.325C193.087 153.059 194.239 152.793 195.294 152.549C195.294 148.827 195.294 144.936 195.289 140.869Z" fill="#080910"/>
<path d="M150.539 83.6631C150.641 83.5281 150.656 83.5401 150.661 83.5332C150.861 84.2715 151.222 85.0164 151.223 85.762C151.256 104.45 151.252 123.138 151.268 142.004C150.962 142.212 150.643 142.243 150.221 142.205C150.124 123.499 150.125 104.861 150.147 86.2223C150.148 85.4142 150.337 84.6062 150.539 83.6631Z" fill="#0B0E18"/>
<path d="M158.48 54.6419C156.594 55.6066 154.783 56.5618 152.861 57.1679C149.041 58.3727 145.318 57.7796 141.585 56.0809C141.393 54.8709 141.351 53.6839 141.32 52.3254C146.991 54.231 152.621 54.4758 158.336 51.8418C158.481 52.6977 158.493 53.5861 158.48 54.6419Z" fill="#080504"/>
<path d="M190.55 153.173C171.183 153.311 151.852 153.302 132.52 153.324C131.961 153.324 131.402 153.644 130.743 153.923C129.31 150.442 127.976 146.853 126.607 143.119C126.996 142.97 127.419 142.966 128.001 142.968C129.197 145.967 130.167 148.986 131.338 151.926C131.525 152.396 132.609 152.748 133.28 152.751C145.777 152.799 158.274 152.786 170.771 152.786C176.765 152.786 182.759 152.78 188.752 152.797C189.363 152.799 189.974 152.949 190.55 153.173Z" fill="#060606"/>
<path d="M173.99 31.874C173.08 30.9177 172.289 29.932 171.52 28.929C171.175 28.4795 170.661 28.0254 170.591 27.5222C170.092 23.9453 168.606 20.744 167.001 17.5757C166.902 17.3808 166.988 17.0924 166.988 16.4636C167.977 17.2599 168.795 17.8091 169.482 18.491C171.997 20.9884 174.468 23.53 177.08 26.0783C177.081 28.5008 176.284 30.5369 173.99 31.874Z" fill="#FF9BB3"/>
<path d="M191.969 153.46C193.474 153.497 195.013 153.668 196.669 153.932C197.69 156.717 198.593 159.408 199.597 162.398C198.206 162.398 197.02 162.341 195.844 162.416C194.831 162.48 194.393 162.104 194.14 161.109C193.499 158.586 192.724 156.098 191.969 153.46Z" fill="#FD5824"/>
<path d="M93.5108 455.532C88.6621 457.008 83.8164 458.494 78.9605 459.946C78.3664 460.124 77.7175 460.118 76.9277 460.167C78.5074 458.913 80.2533 457.688 82.211 456.545C82.8455 456.576 83.2949 456.6 83.6867 456.462C86.6252 455.424 89.5523 454.353 92.5654 453.381C92.9355 454.157 93.2231 454.845 93.5108 455.532Z" fill="#5672CC"/>
<path d="M221.762 469.65C220.007 468.722 218.194 467.718 216.461 466.592C213.646 464.763 210.889 462.846 208.093 460.988C207.793 460.789 207.399 460.733 206.93 460.48C207.412 459.788 208.012 459.227 208.751 458.683C211.372 460.543 213.844 462.402 216.353 464.209C216.645 464.419 217.145 464.34 217.549 464.394C218.946 466.103 220.343 467.811 221.762 469.65Z" fill="#5672CC"/>
<path d="M112.616 468.79C112.275 469.019 111.949 469.068 111.525 468.947C111.892 466.81 112.378 464.847 112.82 462.873C114.16 456.884 115.483 450.892 116.812 444.901C117.128 444.923 117.445 444.945 117.86 445.032C116.183 452.934 114.407 460.771 112.616 468.79Z" fill="#171717"/>
<path d="M2.21094 65.7294C4.00032 65.5902 5.84264 65.2989 7.58456 65.5961C14.338 66.7484 20.7866 68.8177 26.5489 72.6682C27.1021 73.0378 27.6033 73.4851 28.1287 73.8963C28.0422 74.0517 27.9557 74.2072 27.8692 74.3626C27.4814 74.2011 27.0493 74.1032 26.7124 73.8685C20.1363 69.2886 12.6529 67.2138 4.87403 65.9859C4.16085 65.8733 3.38389 66.1647 2.49655 66.2842C2.31029 66.1492 2.26402 65.9985 2.21094 65.7294Z" fill="#1C100D"/>
<path d="M275.181 58.922C271.196 58.1123 267.588 59.6066 263.958 60.5783C259.215 61.848 254.677 63.6842 250.681 66.6491C250.438 66.8296 250.13 66.9337 249.837 67.0305C249.752 67.0586 249.618 66.9377 249.117 66.7022C250.549 65.7157 251.744 64.7337 253.077 64.0012C258.878 60.8123 265.142 58.9666 271.646 57.9292C272.721 57.7577 273.88 58.1101 275.149 58.2736C275.282 58.4911 275.267 58.6554 275.181 58.922Z" fill="#1C100D"/>
<path d="M185.308 467.499C184.975 467.31 184.643 467.121 184.244 466.834C184.207 459.471 184.237 452.205 184.266 444.765C184.541 444.568 184.815 444.544 185.223 444.731C185.34 452.461 185.324 459.98 185.308 467.499Z" fill="#222222"/>
<path d="M76.4917 127.24C77.8353 130.788 79.184 134.334 80.5175 137.886C80.7447 138.491 80.9072 139.121 81.0995 139.739C80.7678 139.998 80.4361 140.258 80.1044 140.517C80.0184 140.077 79.9989 139.61 79.8364 139.2C77.5954 133.543 75.333 127.895 73.0872 122.24C73.0221 122.076 73.0811 121.863 73.1348 121.521C73.3136 121.381 73.4399 121.392 73.6623 121.396C74.5891 123.312 75.4199 125.234 76.3773 127.202C76.5039 127.247 76.4917 127.24 76.4917 127.24Z" fill="#080A12"/>
<path d="M111.03 127.433C111.711 126.41 112.367 125.563 113.022 124.716C113.237 124.786 113.451 124.856 113.666 124.926C113.389 126.995 113.152 129.071 112.824 131.132C112.39 133.867 111.823 136.581 111.441 139.322C111.272 140.531 111.416 141.785 111.396 143.168C111.231 142.829 110.967 142.34 110.966 141.851C110.953 137.104 110.985 132.357 111.03 127.433Z" fill="#5774CD"/>
<path d="M217.488 464.281C217.144 464.34 216.644 464.419 216.352 464.209C213.843 462.403 211.371 460.544 208.789 458.569C208.927 458.033 209.163 457.628 209.54 457.213C209.898 456.827 210.118 456.453 210.338 456.078C210.774 456.383 211.306 456.609 211.633 457.004C213.591 459.37 215.501 461.775 217.488 464.281Z" fill="#4854B2"/>
<path d="M99.2939 65.9448C101.552 71.4405 103.671 76.9121 105.791 82.3836C105.476 82.5085 105.162 82.6335 104.848 82.7584C102.751 77.5439 100.654 72.3295 98.4258 67.0398C98.5819 66.6166 98.8688 66.2686 99.2939 65.9448Z" fill="#080A12"/>
<path d="M110.734 119.549C110.617 113.629 110.528 107.727 110.523 101.824C110.521 98.4703 110.655 95.1167 110.865 91.6655C111.153 91.9571 111.436 92.346 111.437 92.7354C111.452 101.32 111.439 109.906 111.417 118.491C111.416 118.793 111.269 119.095 111.057 119.5C110.922 119.602 110.797 119.567 110.734 119.549Z" fill="#010101"/>
<path d="M92.4825 453.293C89.5518 454.353 86.6247 455.424 83.6862 456.462C83.2944 456.6 82.845 456.576 82.3398 456.519C84.9346 454.576 87.6118 452.741 90.5 450.77C90.9637 450.635 91.2165 450.635 91.504 450.773C91.8534 451.704 92.1679 452.498 92.4825 453.293Z" fill="#3342B7"/>
<path d="M269.237 64.9616C262.246 65.7614 255.739 68.1147 249.289 70.6986C255.406 67.0942 261.975 64.8862 269.188 64.3818C269.283 64.5953 269.265 64.7284 269.237 64.9616Z" fill="#1C100D"/>
<path d="M8.20117 71.8389C10.6243 72.0907 13.1395 72.1599 15.4715 72.8491C19.4133 74.0141 23.2435 75.5594 27.1079 76.9794C27.5612 77.146 27.9347 77.5301 28.2126 78.0844C21.8582 75.4194 15.4336 73.1781 8.42628 72.3412C8.24342 72.1887 8.22714 72.0619 8.20117 71.8389Z" fill="#1C100D"/>
<path d="M142.268 8.12109C144.16 8.48939 145.807 9.12835 146.73 10.9468C145.033 11.3856 143.346 11.8218 141.518 12.252C141.634 10.8973 141.892 9.54862 142.268 8.12109Z" fill="#FF9BB3"/>
<path d="M91.4687 450.636C91.2159 450.635 90.9632 450.635 90.5879 450.668C91.152 447.315 91.8386 443.927 92.5509 440.399C92.8811 440.289 93.1856 440.319 93.5462 440.5C92.8911 443.98 92.1799 447.308 91.4687 450.636Z" fill="#171717"/>
<path d="M74.0764 461.802C74.1454 462.158 74.1715 462.811 73.9946 462.872C70.6111 464.03 67.2038 465.117 63.8013 466.22C63.7022 465.91 63.603 465.601 63.5039 465.291C65.9871 464.579 68.4703 463.867 71.0472 463.05C72.0736 462.572 73.0063 462.198 74.0764 461.802Z" fill="#5069C8"/>
<path d="M226.261 473.88C228.179 475.265 230.033 476.536 231.857 477.85C232.258 478.139 232.55 478.579 232.892 478.95C232.721 479.127 232.55 479.304 232.379 479.482C229.606 477.491 226.824 475.512 224.077 473.485C223.872 473.334 223.915 472.845 223.966 472.498C224.787 472.915 225.487 473.348 226.261 473.88Z" fill="#5069C8"/>
<path d="M210.339 455.89C210.119 456.453 209.899 456.827 209.523 457.027C209.364 452.674 209.362 448.497 209.359 444.319C209.578 444.295 209.798 444.272 210.179 444.285C210.34 448.115 210.339 451.908 210.339 455.89Z" fill="#010101"/>
<path d="M24.7099 60.4756C27.0409 61.9905 29.2446 63.5214 31.4484 65.0522C31.2873 65.2826 31.1262 65.5129 30.965 65.7432C28.7835 64.2159 26.602 62.6887 24.3672 61.0376C24.4034 60.773 24.493 60.6323 24.7099 60.4756Z" fill="#1C100D"/>
<path d="M253.169 53.5048C251.019 55.2394 248.823 56.8571 246.628 58.4747C246.448 58.2371 246.268 57.9996 246.088 57.762C248.212 56.2703 250.337 54.7785 252.573 53.2251C252.831 53.2382 252.978 53.313 253.169 53.5048Z" fill="#1C100D"/>
<path d="M205.552 167.376C205.514 164.641 205.514 162.016 205.514 159.391C205.773 159.38 206.033 159.369 206.293 159.358C206.329 159.921 206.387 160.483 206.397 161.046C206.438 163.374 206.464 165.701 206.437 168.175C206.117 168.043 205.854 167.764 205.552 167.376Z" fill="#5774CD"/>
<path d="M97.222 499.731C97.5704 499.74 97.8457 499.783 98.1983 499.893C98.0014 499.991 97.7271 500.023 97.3339 499.983C97.2149 499.913 97.1489 499.765 97.222 499.731Z" fill="#38459E"/>
<path d="M130.808 24.5978C130.862 24.7499 130.82 24.9741 130.692 25.2772C130.641 25.1274 130.677 24.8986 130.808 24.5978Z" fill="#FFB6C8"/>
<path d="M180.728 499.738C180.855 499.754 180.925 499.803 181.034 499.896C181.065 499.951 180.895 500.02 180.822 499.966C180.749 499.913 180.663 499.782 180.728 499.738Z" fill="#38459E"/>
<path d="M232.547 492.734C232.558 492.668 232.672 492.637 232.823 492.665C232.791 492.74 232.72 492.754 232.547 492.734Z" fill="#5875CD"/>
<path d="M237.893 499.875C237.921 499.787 238.074 499.743 238.246 499.767C238.183 499.864 238.1 499.892 237.893 499.875Z" fill="#38459E"/>
<path d="M209.196 444.3C209.36 448.496 209.363 452.674 209.382 457.038C209.163 457.628 208.926 458.033 208.65 458.551C208.01 459.227 207.41 459.788 206.784 460.473C205.775 461.304 204.793 462.011 203.719 462.784C206.1 465.567 207.942 467.738 209.803 469.891C211.762 472.157 213.743 474.403 215.707 476.663C217.454 478.675 219.652 479.869 222.284 480.191C227.784 480.865 233.289 481.491 238.792 482.137C239.109 482.175 239.49 482.124 239.725 482.284C240.031 482.493 240.222 482.871 240.462 483.177C240.165 483.337 239.858 483.652 239.572 483.633C237.983 483.531 236.395 483.372 234.812 483.186C230.513 482.683 226.205 482.229 221.923 481.598C220.507 481.389 219.162 480.7 217.582 480.088C216.28 478.993 215.18 478.041 214.048 477.007C213.88 476.813 213.743 476.703 213.55 476.467C210.08 472.394 206.666 468.445 203.168 464.399C202.499 465.132 201.951 465.732 201.403 466.331C199.169 468.732 196.934 471.133 194.512 473.734C191.507 471.736 188.481 469.724 185.381 467.606C185.323 459.98 185.339 452.461 185.355 444.769C193.248 444.491 201.141 444.386 209.196 444.3Z" fill="#FDFDFE"/>
<path d="M91.5053 450.772C92.1818 447.308 92.893 443.98 93.6409 440.51C101.304 441.823 108.93 443.278 116.684 444.817C115.483 450.892 114.161 456.884 112.821 462.873C112.379 464.847 111.893 466.81 111.427 468.937C108.185 470.143 104.943 471.192 101.588 472.276C100.188 469.352 98.8769 466.613 97.4432 463.632C96.9349 462.539 96.549 461.685 96.0659 460.617C91.2432 463.631 86.5683 466.552 81.8934 469.473C80.5612 470.087 79.229 470.701 77.7653 471.369C73.4189 472.163 69.4411 470.662 65.3731 470.076C62.2895 469.631 59.2374 468.949 56.1917 468.28C55.6649 468.164 55.2397 467.585 54.7676 467.22C55.3323 467.099 55.9321 466.788 56.4564 466.885C62.0892 467.926 67.6833 469.222 73.3484 470.018C75.3617 470.301 77.822 469.925 79.5898 468.958C84.9432 466.028 90.0574 462.662 95.4623 459.344C94.8423 458.071 94.2695 456.894 93.6041 455.625C93.224 454.845 92.9363 454.157 92.5662 453.381C92.1692 452.498 91.8546 451.704 91.5053 450.772Z" fill="#FCFCFD"/>
<path d="M159.45 203.338C158.519 202.7 157.705 202.102 156.77 201.44C155.771 200.746 154.848 200.168 154.041 199.459C153.758 199.212 153.759 198.642 153.631 198.219C154.04 198.228 154.555 198.08 154.842 198.272C157.171 199.83 159.481 201.419 161.733 203.085C162.104 203.359 162.301 204.046 162.342 204.561C162.718 209.317 163.065 214.077 163.351 218.84C163.38 219.332 162.955 219.851 162.741 220.357C162.458 219.885 161.965 219.43 161.923 218.938C161.547 214.438 161.302 209.926 160.875 205.431C160.806 204.712 160.021 204.061 159.45 203.338Z" fill="#FFF4F0"/>
<path d="M142.413 331.333C142.293 331.103 142.176 330.748 142.059 330.393C142.162 330.37 142.265 330.347 142.368 330.323C142.384 330.618 142.4 330.914 142.413 331.333Z" fill="#FC3312"/>
<path d="M76.5083 127.254C76.5723 126.798 76.6325 126.336 76.6954 125.875C78.4854 126.346 85.9073 134.203 85.8975 135.973C82.7153 132.868 79.7066 129.932 76.5951 127.118C76.4924 127.24 76.5046 127.247 76.5083 127.254Z" fill="#080910"/>
<path d="M42.9989 89.3317C42.0607 84.1954 38.3053 80.8949 35.1875 77.1746C39.1914 80.1259 42.5098 83.5683 43.6509 88.7936C43.492 89.0683 43.3026 89.1888 42.9989 89.3317Z" fill="#160D0A"/>
<path d="M216.328 104.943C216.629 103.808 216.913 102.833 217.296 101.519C218.098 103.235 210.175 139.866 208.519 140.976C209.225 137.537 209.93 134.099 210.703 130.331C209.204 131.273 207.922 132.078 206.64 132.884C206.472 132.645 206.303 132.405 206.135 132.166C207.122 131.399 208.05 130.532 209.112 129.888C210.626 128.969 211.399 127.747 211.761 125.985C213.197 119.007 214.782 112.06 216.328 104.943Z" fill="#080A12"/>
<path d="M191.619 76.8506C191.262 76.6789 190.747 76.3212 190.803 76.1392C192.424 70.8729 194.1 65.6238 195.772 60.3733C195.866 60.0784 195.997 59.7953 196.503 59.7402C195.466 65.649 193.502 71.1712 191.619 76.8506Z" fill="#080A12"/>
<path d="M208.706 167.685C208.704 168.22 208.704 168.598 208.704 168.977C206.737 165.586 207.985 161.903 207.864 158.342C208.145 161.405 208.426 164.467 208.706 167.685Z" fill="#5774CD"/>
<path d="M199.297 128.977C199.284 128.956 199.309 128.999 199.297 128.977V128.977Z" fill="#5774CD"/>
<path d="M142.029 334.16C142.19 334.906 142.351 335.65 142.513 336.395C142.352 336.411 142.192 336.427 142.032 336.442C142.032 335.787 142.032 335.131 142.032 334.317C142.033 334.158 142.03 334.16 142.029 334.16Z" fill="#FD521C"/>
<path d="M157.734 253C157.709 253.297 157.681 253.478 157.654 253.659C157.591 253.662 157.529 253.666 157.467 253.669C157.467 253.31 157.465 252.951 157.472 252.592C157.473 252.577 157.588 252.545 157.59 252.55C157.642 252.659 157.686 252.772 157.734 253Z" fill="#FD521C"/>
<path d="M143.582 320.129C143.676 320.284 143.675 320.437 143.663 320.59C143.663 320.595 143.544 320.59 143.48 320.59C143.482 320.436 143.484 320.282 143.582 320.129Z" fill="#FD521C"/>
<path d="M138.71 23.7817C143.211 23.8004 145.379 26.2711 144.569 30.4798C144.301 31.8732 143.557 32.7104 142.005 32.5979C139.069 32.3849 136.579 31.4102 135.107 28.3884C135.288 25.8161 136.886 24.7057 138.71 23.7817Z" fill="#040403"/>
<path d="M163.773 35.8901C160.632 37.6025 157.603 37.3607 154.748 34.906C154.799 33.4457 154.943 32.2566 155.087 31.0675C155.087 31.0675 155.061 31.0617 155.166 31.0027C155.398 30.7214 155.525 30.4992 155.652 30.277C158.773 27.9368 161.293 28.1321 163.677 31.111C163.854 32.7839 163.865 34.2319 163.877 35.6799C163.877 35.6799 163.892 35.6625 163.86 35.6912C163.828 35.7199 163.773 35.8901 163.773 35.8901Z" fill="#040403"/>
<path d="M140.627 21.7925C139.617 21.8868 138.774 21.9469 137.932 22.0069C140.83 19.4692 146.372 20.5251 146.993 23.0223C144.998 22.6155 142.896 22.1869 140.627 21.7925Z" fill="#160D0A"/>
<path d="M149.297 31.0732C149.981 32.7143 150.525 34.3097 151.07 35.9051C150.766 36.0132 150.462 36.1213 150.158 36.2294C149.718 35.092 149.277 33.9547 148.79 32.6962C147.669 33.579 146.573 34.4417 145.478 35.3043C145.268 35.0435 145.058 34.7826 144.848 34.5217C146.284 33.357 147.72 32.1923 149.297 31.0732Z" fill="#160D0A"/>
<path d="M169.506 43.5737C169.327 44.0442 169.133 44.4926 169.246 44.8401C169.444 45.4444 169.833 45.9864 170.141 46.5546C169.987 46.6837 169.833 46.8128 169.679 46.9419C168.82 46.118 167.96 45.2941 166.986 44.3607C167.584 42.918 171.088 40.9906 172.885 41.7702C171.658 42.4246 170.644 42.9653 169.506 43.5737Z" fill="#160D0A"/>
<path d="M157.858 24.9018C161.736 24.8133 164.92 26.7586 164.62 29.3209C162.454 26.7054 159.885 25.4072 156.529 26.1828C156.507 25.9936 156.485 25.8044 156.463 25.6152C156.871 25.3796 157.279 25.144 157.858 24.9018Z" fill="#160D0A"/>
<path d="M129.266 31.7238C129.436 33.8515 128.81 34.4398 126.014 34.3829C126.768 33.8081 127.523 33.2334 128.367 32.59C127.66 31.3223 126.947 30.043 126.233 28.7636C126.519 28.5951 126.805 28.4267 127.091 28.2583C127.792 29.3689 128.494 30.4796 129.266 31.7238Z" fill="#160D0A"/>
<path d="M151.073 41.4779C151.402 41.9976 151.636 42.4253 151.87 42.853C151.732 43.0292 151.594 43.2053 151.456 43.3815C149.538 40.8509 146.884 40.821 144.045 41.0916C145.299 39.1911 148.482 39.4541 151.073 41.4779Z" fill="#160D0A"/>
<path d="M138.539 23.7803C136.887 24.7059 135.289 25.8163 135.075 28.2562C134.505 27.3556 133.985 26.3125 133.248 24.8346C135.217 24.4286 136.792 24.1036 138.539 23.7803Z" fill="#FFF4F0"/>
<path d="M164.015 35.6814C163.865 34.2319 163.853 32.7839 163.771 31.1895C164.563 31.996 165.425 32.9489 166.512 34.1506C165.55 34.7755 164.852 35.2292 164.015 35.6814Z" fill="#FFF4F0"/>
<path d="M154.949 31.041C154.942 32.2564 154.798 33.4455 154.656 34.8141C152.5 33.7426 152.522 33.175 154.949 31.041Z" fill="#FFF4F0"/>
<path d="M155.547 30.3611C155.524 30.4989 155.397 30.7212 155.164 31.0157C155.187 30.8739 155.315 30.6597 155.547 30.3611Z" fill="#FFF4F0"/>
<path d="M163.752 35.8381C163.772 35.8897 163.826 35.7195 163.852 35.6815C163.788 35.6503 163.74 35.6979 163.752 35.8381Z" fill="#FFF4F0"/>
<path d="M251.016 62.2383C250.345 62.7495 249.777 63.1722 248.875 63.8443C250.194 60.0471 261.568 54.8599 265.712 54.9115C260.636 56.9138 255.359 58.5282 251.016 62.2383Z" fill="#1C100D"/>
<path d="M234.1 80.2134C235.409 76.0973 239.777 70.6913 242.672 69.8179C240.759 71.9708 238.806 73.7658 237.366 75.9066C235.965 77.9893 235.091 80.4261 233.734 82.753C233.841 81.9544 233.947 81.1559 234.1 80.2134Z" fill="#160D0A"/>
<path d="M267.731 54.449C267.474 54.6154 267.173 54.7278 266.872 54.8403C266.837 54.7547 266.802 54.669 266.768 54.5833C266.967 54.4979 267.166 54.4126 267.483 54.3059C267.602 54.2846 267.687 54.3952 267.731 54.449Z" fill="white"/>
<path d="M17.3123 63.4274C21.6492 65.0191 25.4707 67.1503 28.4753 70.6403C23.489 66.6673 17.7786 64.21 11.6855 62.5403C11.7614 62.2864 11.8372 62.0326 11.913 61.7788C13.669 62.3044 15.425 62.8299 17.3123 63.4274Z" fill="#1C100D"/>
<path d="M81.9805 469.572C86.5665 466.552 91.2414 463.63 96.0642 460.617C96.5472 461.685 96.9332 462.538 97.3571 463.514C93.4815 465.076 89.5575 466.49 85.6602 467.974C84.4266 468.443 83.2643 469.1 81.9805 469.572Z" fill="#3342B7"/>
<path d="M201.42 466.467C201.952 465.732 202.5 465.132 203.169 464.399C206.668 468.445 210.081 472.394 213.38 476.496C213.034 476.67 212.803 476.69 212.572 476.711C209.277 473.792 205.977 470.879 202.692 467.949C202.235 467.543 201.852 467.054 201.42 466.467Z" fill="#3342B7"/>
<path d="M212.425 476.712C212.803 476.69 213.033 476.67 213.436 476.621C213.744 476.703 213.881 476.813 213.916 477.007C212.786 476.901 212.672 477.42 212.927 478.234C212.922 478.239 212.912 478.25 212.912 478.25C211.898 477.577 210.883 476.904 209.86 476.087C209.851 475.944 209.87 475.919 209.87 475.919C210.673 476.184 211.476 476.449 212.425 476.712Z" fill="#5774CD"/>
<path d="M215.978 480.541C215.37 480.111 214.77 479.676 214.12 479.123C214.07 479.005 214.071 479.001 214.178 478.965C214.853 479.459 215.423 479.99 215.993 480.521C215.993 480.521 215.985 480.537 215.978 480.541Z" fill="#5774CD"/>
<path d="M209.087 475.558C208.777 475.436 208.468 475.314 208.158 475.191C208.22 475.065 208.283 474.938 208.345 474.812C208.587 474.978 208.83 475.143 209.08 475.432C209.089 475.556 209.087 475.558 209.087 475.558Z" fill="#5774CD"/>
<path d="M209.09 475.555C209.307 475.613 209.521 475.674 209.803 475.827C209.87 475.919 209.851 475.944 209.839 475.956C209.621 475.895 209.413 475.823 209.146 475.655C209.087 475.558 209.089 475.556 209.09 475.555Z" fill="#5774CD"/>
<path d="M214.069 479.006C213.855 478.942 213.643 478.877 213.482 478.72C213.713 478.753 213.893 478.877 214.072 479.001C214.072 479.001 214.07 479.005 214.069 479.006Z" fill="#5774CD"/>
<path d="M213.304 478.622C213.175 478.593 213.072 478.526 212.953 478.334C212.912 478.25 212.922 478.239 213.015 478.271C213.218 478.382 213.284 478.488 213.304 478.622Z" fill="#5774CD"/>
<path d="M155.19 9.83868C156.049 10.4707 156.792 11.0264 157.934 11.8805C154.661 11.399 152.086 10.6164 150.159 8.4344C149.918 8.16167 149.925 7.67059 149.816 7.28069C150.269 7.2305 150.84 6.97969 151.154 7.16488C152.501 7.96088 153.774 8.885 155.19 9.83868Z" fill="#FF9BB3"/>
<path d="M213.42 478.626C213.284 478.488 213.219 478.382 213.021 478.267C212.673 477.42 212.787 476.901 213.949 477.09C215.182 478.041 216.282 478.993 217.449 480.053C217.102 480.282 216.687 480.402 216.133 480.522C215.424 479.99 214.855 479.459 214.179 478.965C213.893 478.877 213.714 478.753 213.42 478.626Z" fill="#5875CD"/>
<path d="M207.391 461.17C207.412 461.199 207.33 461.208 207.33 461.208C207.33 461.208 207.371 461.14 207.391 461.17Z" fill="#5672CC"/>
<path d="M49.9473 482.979C50.05 482.984 50.1053 483.035 50.1606 483.086C50.0737 483.065 49.9868 483.045 49.9473 482.979Z" fill="#5C77C7"/>
</svg>
