<svg width="132" height="132" viewBox="0 0 132 132" fill="none" xmlns="http://www.w3.org/2000/svg">
<g filter="url(#filter0_d_580_4308)">
<rect x="16" y="12" width="100" height="100" rx="50" fill="#F2FAFD" shape-rendering="crispEdges"/>
<path d="M57.5625 73.25C46.7063 73.25 37.875 64.4188 37.875 53.5625C37.875 42.7063 46.7063 33.875 57.5625 33.875C68.4188 33.875 77.25 42.7063 77.25 53.5625C77.25 64.4188 68.4188 73.25 57.5625 73.25ZM57.5625 37.625C48.7744 37.625 41.625 44.7744 41.625 53.5625C41.625 62.3506 48.7744 69.5 57.5625 69.5C66.3506 69.5 73.5 62.3506 73.5 53.5625C73.5 44.7744 66.3506 37.625 57.5625 37.625Z" fill="black"/>
<path d="M47.25 55.4375C46.215 55.4375 45.375 54.5994 45.375 53.5625C45.375 46.8425 50.8425 41.375 57.5625 41.375C58.5975 41.375 59.4375 42.2131 59.4375 43.25C59.4375 44.2869 58.5975 45.125 57.5625 45.125C52.9106 45.125 49.125 48.9106 49.125 53.5625C49.125 54.5994 48.285 55.4375 47.25 55.4375Z" fill="#FFB22C"/>
<path d="M88.5003 90.4438C87.0584 90.4438 85.6203 89.8963 84.5234 88.7994L66.9209 71.1969C66.1878 70.4638 66.1878 69.2788 66.9209 68.5457C67.6541 67.8126 68.8391 67.8126 69.5722 68.5457L87.1747 86.1482C87.9078 86.8813 89.0928 86.8813 89.8259 86.1482L90.1484 85.8257C90.8797 85.0944 90.8797 83.9057 90.1484 83.1744L72.5459 65.5719C71.8128 64.8388 71.8128 63.6538 72.5459 62.9207C73.2791 62.1876 74.4641 62.1876 75.1972 62.9207L92.7997 80.5232C94.9934 82.7169 94.9934 86.2832 92.7997 88.4769L92.4772 88.7994C91.3803 89.8963 89.9422 90.4438 88.5003 90.4438Z" fill="#0B0B0B"/>
</g>
<defs>
<filter id="filter0_d_580_4308" x="0" y="0" width="132" height="132" filterUnits="userSpaceOnUse" color-interpolation-filters="sRGB">
<feFlood flood-opacity="0" result="BackgroundImageFix"/>
<feColorMatrix in="SourceAlpha" type="matrix" values="0 0 0 0 0 0 0 0 0 0 0 0 0 0 0 0 0 0 127 0" result="hardAlpha"/>
<feOffset dy="4"/>
<feGaussianBlur stdDeviation="8"/>
<feComposite in2="hardAlpha" operator="out"/>
<feColorMatrix type="matrix" values="0 0 0 0 0.341176 0 0 0 0 0.454902 0 0 0 0 0.803922 0 0 0 0.2 0"/>
<feBlend mode="normal" in2="BackgroundImageFix" result="effect1_dropShadow_580_4308"/>
<feBlend mode="normal" in="SourceGraphic" in2="effect1_dropShadow_580_4308" result="shape"/>
</filter>
</defs>
</svg>
