<svg width="48" height="48" viewBox="0 0 48 48" fill="none" xmlns="http://www.w3.org/2000/svg">
<path d="M42 46.5H6C3.519 46.5 1.5 44.481 1.5 42V19.5C1.5 18.672 2.172 18 3 18C3.828 18 4.5 18.672 4.5 19.5V42C4.5 42.8265 5.1735 43.5 6 43.5H42C42.8265 43.5 43.5 42.8265 43.5 42V19.5C43.5 18.672 44.172 18 45 18C45.828 18 46.5 18.672 46.5 19.5V42C46.5 44.481 44.481 46.5 42 46.5Z" fill="#0B0B0B"/>
<path d="M2.99916 21C2.55516 21 2.11566 20.8035 1.81866 20.427C1.30716 19.776 1.41966 18.834 2.07066 18.321L7.91166 13.731C8.56266 13.218 9.50616 13.332 10.0192 13.9845C10.5307 14.6355 10.4182 15.5775 9.76716 16.0905L3.92616 20.6805C3.65166 20.895 3.32466 21 2.99916 21Z" fill="#0B0B0B"/>
<path d="M16.421 10.455C15.977 10.455 15.5375 10.2585 15.2405 9.88195C14.729 9.23095 14.8415 8.28745 15.4925 7.77595L23.072 1.82095C23.723 1.30945 24.665 1.42045 25.178 2.07295C25.6895 2.72395 25.577 3.66745 24.926 4.17895L17.3465 10.134C17.072 10.35 16.7465 10.455 16.421 10.455Z" fill="#0B0B0B"/>
<path d="M31.2907 10.2301C30.9667 10.2301 30.6397 10.125 30.3652 9.90905L23.0737 4.17905C22.4212 3.66755 22.3087 2.72405 22.8217 2.07305C23.3347 1.41905 24.2782 1.30955 24.9277 1.82105L32.2192 7.55105C32.8717 8.06255 32.9842 9.00605 32.4712 9.65705C32.1742 10.0336 31.7347 10.2301 31.2907 10.2301Z" fill="#0B0B0B"/>
<path d="M45.0002 21C44.6762 21 44.3492 20.895 44.0747 20.679L38.1362 16.0125C37.4837 15.501 37.3712 14.5575 37.8842 13.9065C38.3957 13.254 39.3377 13.14 39.9902 13.6545L45.9287 18.321C46.5812 18.8325 46.6937 19.776 46.1807 20.427C45.8837 20.8035 45.4442 21 45.0002 21Z" fill="#0B0B0B"/>
<path d="M7.5015 42C7.0485 42 6.6015 41.796 6.306 41.4075C5.805 40.7475 5.9325 39.8071 6.591 39.3061L18.681 30.1126C19.341 29.6101 20.2815 29.7391 20.7825 30.3976C21.2835 31.0576 21.156 31.9981 20.4975 32.4991L8.4075 41.6925C8.136 41.901 7.818 42 7.5015 42Z" fill="#0B0B0B"/>
<path d="M40.4978 42C40.1813 42 39.8633 41.901 39.5918 41.694L27.5018 32.5005C26.8433 31.9995 26.7143 31.059 27.2168 30.399C27.7178 29.7405 28.6583 29.6115 29.3183 30.114L41.4083 39.3075C42.0668 39.8085 42.1958 40.749 41.6933 41.409C41.3978 41.796 40.9508 42 40.4978 42Z" fill="#0B0B0B"/>
<path d="M24.0006 36.021C23.6946 36.021 23.3886 35.928 23.1276 35.7405L2.12759 20.7195C1.45409 20.238 1.29809 19.3005 1.77959 18.627C2.26109 17.9535 3.19559 17.796 3.87209 18.279L24.0006 32.676L44.1276 18.279C44.8011 17.796 45.7371 17.9535 46.2201 18.627C46.7016 19.3005 46.5456 20.238 45.8721 20.7195L24.8721 35.7405C24.6126 35.928 24.3066 36.021 24.0006 36.021Z" fill="#0B0B0B"/>
<path d="M39 24.2265C38.172 24.2265 37.5 23.5545 37.5 22.7265V10.5H10.5V22.7265C10.5 23.5545 9.828 24.2265 9 24.2265C8.172 24.2265 7.5 23.5545 7.5 22.7265V10.5C7.5 8.8455 8.8455 7.5 10.5 7.5H37.5C39.1545 7.5 40.5 8.8455 40.5 10.5V22.7265C40.5 23.556 39.828 24.2265 39 24.2265Z" fill="#0B0B0B"/>
<path d="M33 16.5H15C14.172 16.5 13.5 15.828 13.5 15C13.5 14.172 14.172 13.5 15 13.5H33C33.828 13.5 34.5 14.172 34.5 15C34.5 15.828 33.828 16.5 33 16.5Z" fill="#FFB22C"/>
<path d="M33 22.5H15C14.172 22.5 13.5 21.828 13.5 21C13.5 20.172 14.172 19.5 15 19.5H33C33.828 19.5 34.5 20.172 34.5 21C34.5 21.828 33.828 22.5 33 22.5Z" fill="#FFB22C"/>
</svg>
