<svg width="132" height="132" viewBox="0 0 132 132" fill="none" xmlns="http://www.w3.org/2000/svg">
<g filter="url(#filter0_d_660_4964)">
<rect x="16" y="12" width="100" height="100" rx="50" fill="#F2FAFD" shape-rendering="crispEdges"/>
<path d="M92.25 52.625H81C79.9631 52.625 79.125 51.7869 79.125 50.75V41.375C79.125 37.2387 82.4887 33.875 86.625 33.875C90.7613 33.875 94.125 37.2387 94.125 41.375V50.75C94.125 51.7869 93.2869 52.625 92.25 52.625ZM82.875 48.875H90.375V41.375C90.375 39.3069 88.6931 37.625 86.625 37.625C84.5569 37.625 82.875 39.3069 82.875 41.375V48.875Z" fill="black"/>
<path d="M81 90.125H39.75C38.7131 90.125 37.875 89.2869 37.875 88.25V41.375C37.875 37.2387 41.2387 33.875 45.375 33.875H86.625C87.6619 33.875 88.5 34.7131 88.5 35.75C88.5 36.7869 87.6619 37.625 86.625 37.625C84.5569 37.625 82.875 39.3069 82.875 41.375V88.25C82.875 89.2869 82.0369 90.125 81 90.125ZM41.625 86.375H79.125V41.375C79.125 40.01 79.4906 38.7294 80.1319 37.625H45.375C43.3069 37.625 41.625 39.3069 41.625 41.375V86.375Z" fill="#0B0B0B"/>
<path d="M73.5 48.875H47.25C46.2131 48.875 45.375 48.0369 45.375 47C45.375 45.9631 46.2131 45.125 47.25 45.125H73.5C74.5369 45.125 75.375 45.9631 75.375 47C75.375 48.0369 74.5369 48.875 73.5 48.875Z" fill="#FFB22C"/>
<path d="M73.5 56.375H47.25C46.2131 56.375 45.375 55.5369 45.375 54.5C45.375 53.4631 46.2131 52.625 47.25 52.625H73.5C74.5369 52.625 75.375 53.4631 75.375 54.5C75.375 55.5369 74.5369 56.375 73.5 56.375Z" fill="#FFB22C"/>
<path d="M58.5 63.875H47.25C46.2131 63.875 45.375 63.0369 45.375 62C45.375 60.9631 46.2131 60.125 47.25 60.125H58.5C59.5369 60.125 60.375 60.9631 60.375 62C60.375 63.0369 59.5369 63.875 58.5 63.875Z" fill="#FFB22C"/>
<path d="M89.4375 90.125C88.7269 90.125 88.0781 89.7238 87.7594 89.0881L84.9469 83.4631C84.8175 83.2044 84.75 82.9156 84.75 82.625V59.1875C84.75 56.6019 86.8519 54.5 89.4375 54.5C92.0231 54.5 94.125 56.6019 94.125 59.1875V82.625C94.125 82.9156 94.0575 83.2044 93.9281 83.4631L91.1156 89.0881C90.7969 89.7238 90.1481 90.125 89.4375 90.125ZM88.5 82.1825L89.4375 84.0575L90.375 82.1825V59.1875C90.375 58.6719 89.9531 58.25 89.4375 58.25C88.9219 58.25 88.5 58.6719 88.5 59.1875V82.1825Z" fill="#0B0B0B"/>
</g>
<defs>
<filter id="filter0_d_660_4964" x="0" y="0" width="132" height="132" filterUnits="userSpaceOnUse" color-interpolation-filters="sRGB">
<feFlood flood-opacity="0" result="BackgroundImageFix"/>
<feColorMatrix in="SourceAlpha" type="matrix" values="0 0 0 0 0 0 0 0 0 0 0 0 0 0 0 0 0 0 127 0" result="hardAlpha"/>
<feOffset dy="4"/>
<feGaussianBlur stdDeviation="8"/>
<feComposite in2="hardAlpha" operator="out"/>
<feColorMatrix type="matrix" values="0 0 0 0 0.341176 0 0 0 0 0.454902 0 0 0 0 0.803922 0 0 0 0.2 0"/>
<feBlend mode="normal" in2="BackgroundImageFix" result="effect1_dropShadow_660_4964"/>
<feBlend mode="normal" in="SourceGraphic" in2="effect1_dropShadow_660_4964" result="shape"/>
</filter>
</defs>
</svg>
