<svg width="132" height="132" viewBox="0 0 132 132" fill="none" xmlns="http://www.w3.org/2000/svg">
<g filter="url(#filter0_d_660_4960)">
<rect x="16" y="12" width="100" height="100" rx="50" fill="#F2FAFD" shape-rendering="crispEdges"/>
<path d="M90.375 75.125C90.1406 75.125 89.9044 75.0819 89.6775 74.9919C86.2481 73.6194 82.935 71.4144 79.8319 68.4406C79.0856 67.7244 79.0594 66.5375 79.7775 65.7894C80.4937 65.0431 81.6806 65.015 82.4287 65.735C83.955 67.1975 85.53 68.4481 87.1388 69.4738C86.5687 67.52 85.9425 65.0544 85.4738 62.33C85.3631 61.6963 85.5881 61.0531 86.0606 60.6219C88.8431 58.1 90.375 54.9294 90.375 51.6875C90.375 43.9325 81.9637 37.625 71.625 37.625C61.2863 37.625 52.875 43.9325 52.875 51.6875C52.875 51.9163 52.8825 52.1413 52.8975 52.3663C52.965 53.3994 52.1831 54.2919 51.1481 54.3594C50.1038 54.3894 49.2225 53.6431 49.155 52.61C49.1344 52.3062 49.125 51.9969 49.125 51.6875C49.125 41.8663 59.2181 33.875 71.625 33.875C84.0319 33.875 94.125 41.8663 94.125 51.6875C94.125 55.6812 92.4356 59.5438 89.3456 62.6675C90.4031 68.2119 92.1 72.5112 92.1169 72.5544C92.3944 73.2519 92.2312 74.0469 91.6987 74.5756C91.3406 74.9338 90.8625 75.125 90.375 75.125Z" fill="black"/>
<path d="M41.625 90.125C41.1375 90.125 40.6575 89.9338 40.2994 89.5775C39.7687 89.0488 39.6037 88.2537 39.8812 87.5562C39.9 87.5131 41.595 83.2137 42.6525 77.6694C39.5644 74.5419 37.875 70.6812 37.875 66.6875C37.875 56.8663 47.9681 48.875 60.375 48.875C72.7819 48.875 82.875 56.8663 82.875 66.6875C82.875 76.5087 72.7819 84.5 60.375 84.5C57.6038 84.5 54.8962 84.0988 52.3031 83.3075C49.1587 86.3506 45.8063 88.5969 42.3206 89.99C42.0956 90.0819 41.8594 90.125 41.625 90.125ZM60.375 52.625C50.0363 52.625 41.625 58.9325 41.625 66.6875C41.625 69.9275 43.1569 73.1 45.9394 75.6219C46.4138 76.0531 46.6369 76.6963 46.5262 77.33C46.0575 80.0525 45.4331 82.5219 44.8612 84.4756C46.7812 83.2512 48.6506 81.7062 50.4544 79.8594C50.9644 79.3362 51.735 79.1562 52.4231 79.4019C54.9506 80.2962 57.6262 80.75 60.375 80.75C70.7137 80.75 79.125 74.4425 79.125 66.6875C79.125 58.9325 70.7137 52.625 60.375 52.625Z" fill="#0B0B0B"/>
<path d="M47.25 68.5625C46.215 68.5625 45.375 67.7244 45.375 66.6875C45.375 61.7075 51.4031 56.375 60.375 56.375C61.41 56.375 62.25 57.2131 62.25 58.25C62.25 59.2869 61.41 60.125 60.375 60.125C53.5069 60.125 49.125 64.0119 49.125 66.6875C49.125 67.7244 48.285 68.5625 47.25 68.5625Z" fill="#FFB22C"/>
</g>
<defs>
<filter id="filter0_d_660_4960" x="0" y="0" width="132" height="132" filterUnits="userSpaceOnUse" color-interpolation-filters="sRGB">
<feFlood flood-opacity="0" result="BackgroundImageFix"/>
<feColorMatrix in="SourceAlpha" type="matrix" values="0 0 0 0 0 0 0 0 0 0 0 0 0 0 0 0 0 0 127 0" result="hardAlpha"/>
<feOffset dy="4"/>
<feGaussianBlur stdDeviation="8"/>
<feComposite in2="hardAlpha" operator="out"/>
<feColorMatrix type="matrix" values="0 0 0 0 0.341176 0 0 0 0 0.454902 0 0 0 0 0.803922 0 0 0 0.2 0"/>
<feBlend mode="normal" in2="BackgroundImageFix" result="effect1_dropShadow_660_4960"/>
<feBlend mode="normal" in="SourceGraphic" in2="effect1_dropShadow_660_4960" result="shape"/>
</filter>
</defs>
</svg>
