<svg width="73" height="72" viewBox="0 0 73 72" fill="none" xmlns="http://www.w3.org/2000/svg">
<g clip-path="url(#clip0_799_25879)">
<path d="M56.334 35.9857C56.334 36.6125 56.0849 37.1797 55.6665 37.5878C55.2577 38.0057 54.6899 38.2544 54.0521 38.2544H38.6159V53.6782C38.6159 54.9319 37.5896 55.9569 36.334 55.9569C35.7062 55.9569 35.138 55.6982 34.7196 55.29C34.3109 54.8722 34.0521 54.305 34.0521 53.6778V38.2544H18.6159C17.3502 38.2544 16.334 37.2394 16.334 35.9857C16.334 35.3588 16.583 34.7816 17.0015 34.3735C17.4102 33.9653 17.978 33.7066 18.6159 33.7066H34.0518V18.2832C34.0518 17.0294 35.078 16.0144 36.3337 16.0144C36.9615 16.0144 37.5296 16.2732 37.948 16.681C38.3568 17.0891 38.6155 17.6563 38.6155 18.2832V33.7069H54.0515C55.3174 33.7069 56.334 34.7219 56.334 35.9857Z" fill="#D7E5FF" fill-opacity="0.6"/>
</g>
<rect x="0.833984" y="0.5" width="71" height="71" rx="3.5" stroke="#5774CD" stroke-dasharray="2 2"/>
<defs>
<clipPath id="clip0_799_25879">
<rect width="40" height="40" fill="white" transform="translate(16.334 16)"/>
</clipPath>
</defs>
</svg>
