<svg width="50" height="47" viewBox="0 0 50 47" fill="none" xmlns="http://www.w3.org/2000/svg">
<g id="Group">
<g id="Group_2">
<g id="Group_3">
<g id="Group_4">
<path id="Vector" d="M48.9857 33.827H1V5.58573C1 4.46186 1.9075 3.54761 3.0235 3.54761H10.3379V5.04761H3.0235C2.73475 5.04798 2.5 5.28911 2.5 5.58611V32.3274H47.4857V5.58611C47.4857 5.28986 47.2506 5.04836 46.9619 5.04836H28.6915V3.54836H46.9619C48.0783 3.54836 48.9857 4.46261 48.9857 5.58611V33.827Z" fill="#0B0B0B" stroke="black"/>
</g>
<g id="Group_5">
<path id="Vector_2" d="M47.0487 39.3702H3.27453C2.12853 39.3702 1.00391 38.2032 1.00391 37.0141V32.2992H48.9998V37.0789C48.9998 38.2054 48.27 39.3702 47.0487 39.3702ZM2.50391 33.7992V37.0141C2.50391 37.3741 2.95016 37.8702 3.27453 37.8702H47.0487C47.3067 37.8702 47.4998 37.4524 47.4998 37.0789V33.7992H2.50391Z" fill="#0B0B0B" stroke="black"/>
</g>
<g id="Group_6">
<path id="Vector_3" d="M17.9824 45.4557L17.3809 44.0817C17.8766 43.8646 18.288 43.6696 18.5096 43.5469L18.5767 43.5091C18.6697 43.4569 18.7852 43.3928 18.8096 43.3677C18.8246 43.3482 18.8824 43.2451 18.9784 42.7561C19.0909 42.1804 19.0774 41.1458 19.065 40.2327C19.0567 39.6049 19.0489 39.0117 19.0826 38.5909L20.5777 38.7117C20.5492 39.0623 20.5567 39.6211 20.5646 40.2128C20.5785 41.2467 20.5924 42.3154 20.4499 43.0441C20.2324 44.1533 19.9984 44.4331 19.3072 44.8186L19.2401 44.8561C18.8797 45.0563 18.2977 45.3177 17.9824 45.4557Z" fill="#0B0B0B" stroke="black"/>
</g>
<g id="Group_7">
<path id="Vector_4" d="M31.9727 45.461C31.6547 45.3219 31.0675 45.059 30.7056 44.8595L30.6599 44.8337C29.9264 44.4219 29.7355 44.1212 29.5255 43.0445C29.3834 42.3174 29.3969 41.2682 29.41 40.2538C29.4179 39.6695 29.425 39.1179 29.3965 38.7662L30.8912 38.6447C30.9257 39.0669 30.9179 39.6527 30.91 40.2733C30.8984 41.168 30.8852 42.182 30.9974 42.7569C31.0896 43.2294 31.1414 43.3562 31.1635 43.3899C31.1856 43.4094 31.3007 43.4743 31.3937 43.526L31.435 43.5497C31.6555 43.6708 32.0721 43.8684 32.5735 44.0878L31.9727 45.461Z" fill="#0B0B0B" stroke="black"/>
</g>
<g id="Group_8">
<path id="Vector_5" d="M33.6029 43.9392H16.4043V45.4392H33.6029V43.9392Z" fill="#0B0B0B" stroke="black"/>
</g>
</g>
</g>
<g id="Group_9">
<g id="Group_10">
<path id="Vector_6" d="M13.5954 29.5283H6.25586V20.6599H13.5954V29.5283ZM7.75586 28.0283H12.0954V22.1599H7.75586V28.0283Z" fill="#0B0B0B" stroke="black" stroke-width="1.2"/>
</g>
<g id="Group_11">
<path id="Vector_7" d="M23.2253 29.5287H15.8828V10.7559H23.2253V29.5287ZM17.3828 28.0287H21.7253V12.2559H17.3828V28.0287Z" fill="#0B0B0B" stroke="black" stroke-width="1.2"/>
</g>
<g id="Group_12">
<path id="Vector_8" d="M32.8503 29.5283H25.5078V15.4298H32.8503V29.5283ZM27.0074 28.0283H31.3499V16.9298H27.0074V28.0283Z" fill="#0B0B0B" stroke="black" stroke-width="1.2"/>
</g>
<g id="Group_13">
<path id="Vector_9" d="M42.477 29.5283H35.1367V6.75647H42.477V29.5283ZM36.6367 28.0283H40.977V8.25647H36.6367V28.0283Z" fill="#0B0B0B" stroke="black" stroke-width="1.2"/>
</g>
<g id="Group_14">
<path id="Vector_10" d="M20.4743 7.37857L20.3021 7.68009L20.4736 7.37857H20.4743ZM13.2578 2.07532C13.2578 1.99931 13.2686 1.9259 13.2886 1.85648V1.86829C13.2678 1.94104 13.2579 2.01203 13.2578 2.07532ZM18.3528 7.37857H18.353L18.5358 7.699L18.3528 7.37857ZM13.2584 6.62159C13.2593 6.64602 13.2614 6.67121 13.2648 6.69694C13.2615 6.67218 13.2593 6.64705 13.2584 6.62159ZM13.2578 6.59145V6.59183V6.59145ZM25.5664 6.6652C25.5537 6.80114 25.5067 6.92674 25.4344 7.03341C25.5093 6.91905 25.5537 6.78925 25.5664 6.6652ZM25.3399 1.51706C25.391 1.56822 25.4341 1.62486 25.4687 1.68575L25.407 1.60827L25.3778 1.57152L25.3163 1.49436C25.3242 1.50163 25.3319 1.50908 25.3395 1.51671L25.3399 1.51706Z" fill="#FFB22C" stroke="#FFB22C" stroke-width="1.5"/>
</g>
<g id="Group_15">
<g id="Vector_11">
<mask id="path-11-inside-1_1979_6088" fill="white">
<path d="M22.3145 3.62402H16.5137V5.12402H22.3145V3.62402Z"/>
</mask>
<path d="M22.3145 3.62402H16.5137V5.12402H22.3145V3.62402Z" fill="#FFB22C"/>
<path d="M16.5137 3.62402V2.12402H15.0137V3.62402H16.5137ZM22.3145 3.62402H23.8145V2.12402H22.3145V3.62402ZM22.3145 5.12402V6.62402H23.8145V5.12402H22.3145ZM16.5137 5.12402H15.0137V6.62402H16.5137V5.12402ZM16.5137 5.12402H22.3145V2.12402H16.5137V5.12402ZM20.8145 3.62402V5.12402H23.8145V3.62402H20.8145ZM22.3145 3.62402H16.5137V6.62402H22.3145V3.62402ZM18.0137 5.12402V3.62402H15.0137V5.12402H18.0137Z" fill="#FFB22C" mask="url(#path-11-inside-1_1979_6088)"/>
</g>
</g>
<g id="Group_16">
<path id="Vector_12" d="M44.8732 28.0283H5.12695V29.5283H44.8732V28.0283Z" fill="#0B0B0B" stroke="black" stroke-width="1.2"/>
</g>
</g>
</g>
</svg>
