<svg width="200" height="200" viewBox="0 0 200 200" fill="none" xmlns="http://www.w3.org/2000/svg">
<g id="Group">
<g id="Layer 1">
<path id="Vector" d="M77.3969 60.8389C77.3969 60.8389 47.6537 64.9192 36.0868 76.3564C20.6726 91.5815 3.95131 147.531 4.47539 158.901C4.99947 170.271 19.7786 192.786 44.5523 177.311L44.8113 199.589H146.496L146.249 144.522C146.249 144.522 156.577 169.918 169.105 176.52C181.634 183.121 199.268 167.86 194.853 151.861C190.438 135.862 170.98 90.7959 161.349 80.1627C151.718 69.5294 114.878 61.5697 114.878 61.5697L77.3969 60.8389Z" fill="#FD521B"/>
<path id="Vector_2" d="M91.6578 6.99053C91.6578 6.99053 99.1676 2.72747 97.2069 0.541141C95.2463 -1.64519 87.792 3.16596 85.9423 8.29989C85.9423 8.29989 81.3242 5.45583 79.8752 7.89794C78.4263 10.3401 82.6128 10.943 84.0309 10.7237C84.0309 10.7237 77.5323 13.4156 75.923 22.1061C74.3138 30.7966 80.9789 36.1132 80.9789 36.1132L118.787 34.5603C118.787 34.5603 122.696 30.2607 120.334 20.2851C119.471 16.6311 108.983 9.17076 108.983 9.17076L91.6578 6.99053Z" fill="#FFC849"/>
<path id="Vector_3" d="M119.446 29.7433C119.446 29.7433 122.091 26.613 125.113 29.6032C127.795 32.2463 125.113 36.3023 122.529 36.9113C120.118 37.4898 117.332 34.9381 117.332 34.9381L119.446 29.7433Z" fill="#E27756"/>
<path id="Vector_4" d="M119.157 34.2679C119.203 34.2674 119.248 34.2554 119.288 34.233C119.327 34.2106 119.361 34.1786 119.385 34.14C120.618 32.1729 123.565 31.3568 123.59 31.3508C123.623 31.3423 123.655 31.3273 123.682 31.3067C123.71 31.2861 123.733 31.2603 123.75 31.2308C123.767 31.2013 123.778 31.1687 123.782 31.1349C123.787 31.1012 123.784 31.0669 123.775 31.0341C123.756 30.9683 123.712 30.9124 123.652 30.8783C123.592 30.8442 123.521 30.8345 123.454 30.8514C122.851 31.0303 122.265 31.2627 121.703 31.5456C120.587 32.063 119.631 32.8663 118.935 33.872C118.9 33.9314 118.889 34.0018 118.905 34.0687C118.921 34.1356 118.963 34.1938 119.021 34.2313C119.062 34.2546 119.109 34.2672 119.157 34.2679Z" fill="black"/>
<path id="Vector_5" d="M121.864 34.6394C121.902 34.6394 121.94 34.6312 121.975 34.6154C122.01 34.5997 122.042 34.5767 122.067 34.5481C122.111 34.4946 122.131 34.4263 122.124 34.3579C122.117 34.2895 122.084 34.2266 122.03 34.1827L120.347 32.8246C120.292 32.791 120.227 32.7783 120.164 32.7887C120.1 32.7991 120.043 32.832 120.002 32.8812C119.961 32.9304 119.94 32.9926 119.942 33.0561C119.944 33.1197 119.97 33.1802 120.014 33.2265L121.697 34.5846C121.745 34.6198 121.804 34.639 121.864 34.6394Z" fill="black"/>
<path id="Vector_6" d="M88.5937 48.8966C74.5051 48.8661 67.729 58.123 66.8165 62.8611C64.3872 75.5223 107.584 72.4347 107.584 72.4347C107.584 72.4347 130.44 75.5102 126.494 62.0511C122.634 48.8966 103.7 48.927 88.5937 48.8966Z" fill="#FD521B"/>
<path id="Vector_7" d="M103.274 65.8811V41.667H90.1411V62.2149L100.549 68.1283L103.274 65.8811Z" fill="#E27756"/>
<path id="Vector_8" d="M103.28 47.8853V54.7792C97.3858 59.7731 90.1411 53.1349 90.1411 53.1349V47.8853H103.28Z" fill="black"/>
<path id="Vector_9" d="M97.8236 94.0239C97.9318 94.0247 98.0391 94.0043 98.1393 93.964C98.2395 93.9236 98.3306 93.8641 98.4074 93.7888C98.4842 93.7135 98.5452 93.6239 98.5868 93.5253C98.6284 93.4266 98.6498 93.3208 98.6498 93.2139V72.7635C98.6597 72.6508 98.6457 72.5373 98.6089 72.4302C98.572 72.3231 98.513 72.2248 98.4356 72.1414C98.3582 72.0581 98.2641 71.9915 98.1593 71.946C98.0544 71.9005 97.9412 71.877 97.8267 71.877C97.7122 71.877 97.5989 71.9005 97.4941 71.946C97.3893 71.9915 97.2952 72.0581 97.2178 72.1414C97.1404 72.2248 97.0814 72.3231 97.0445 72.4302C97.0076 72.5373 96.9937 72.6508 97.0036 72.7635V93.2139C97.0036 93.4287 97.09 93.6347 97.2437 93.7866C97.3975 93.9385 97.6061 94.0239 97.8236 94.0239Z" fill="black"/>
<path id="Vector_10" d="M104.223 94.0239C104.441 94.0239 104.649 93.9385 104.803 93.7866C104.957 93.6347 105.043 93.4287 105.043 93.2139V72.7635C105.053 72.6508 105.039 72.5373 105.002 72.4302C104.966 72.3231 104.907 72.2248 104.829 72.1414C104.752 72.0581 104.658 71.9915 104.553 71.946C104.448 71.9005 104.335 71.877 104.22 71.877C104.106 71.877 103.992 71.9005 103.888 71.946C103.783 71.9915 103.689 72.0581 103.611 72.1414C103.534 72.2248 103.475 72.3231 103.438 72.4302C103.401 72.5373 103.387 72.6508 103.397 72.7635V93.2139C103.397 93.3208 103.419 93.4266 103.46 93.5253C103.502 93.6239 103.563 93.7135 103.639 93.7888C103.716 93.8641 103.807 93.9236 103.908 93.964C104.008 94.0043 104.115 94.0247 104.223 94.0239Z" fill="black"/>
<path id="Vector_11" d="M99.1493 53.147C110.683 53.147 120.032 43.2466 120.032 31.0339C120.032 18.8212 110.683 8.9209 99.1493 8.9209C87.6158 8.9209 78.2661 18.8212 78.2661 31.0339C78.2661 43.2466 87.6158 53.147 99.1493 53.147Z" fill="#E27756"/>
<path id="Vector_12" d="M93.3536 35.5162C93.3536 35.5162 92.737 22.9463 82.2554 29.9316C82.2862 29.9316 84.623 38.3359 93.3536 35.5162Z" fill="white"/>
<path id="Vector_13" d="M94.1364 24.5904C94.2967 23.7682 92.8663 22.8121 90.9426 22.4467C89.0189 22.0813 87.3357 22.4467 87.1753 23.2749C87.015 24.1032 88.4455 25.0532 90.3692 25.4186C92.2929 25.784 93.9822 25.4126 94.1364 24.5904Z" fill="black"/>
<path id="Vector_14" d="M111.098 25.0475C111.061 24.2132 109.452 23.5981 107.491 23.6773C105.531 23.7564 103.977 24.4933 104.014 25.3216C104.051 26.1498 105.66 26.771 107.615 26.6979C109.569 26.6249 111.098 25.8819 111.098 25.0475Z" fill="black"/>
<path id="Vector_15" d="M61.674 145.564C64.985 150.381 69.8065 152.872 72.4516 151.075C75.0967 149.279 74.5541 143.962 71.2185 139.151C67.8828 134.34 63.2031 132.275 60.5333 134.048C57.8636 135.82 58.3692 140.747 61.674 145.564Z" fill="black"/>
<path id="Vector_16" d="M151.089 117.921C154.172 113.956 155.207 109.614 153.376 108.22C151.545 106.825 147.55 108.908 144.454 112.866C141.359 116.825 140.336 121.167 142.167 122.568C143.998 123.968 147.994 121.886 151.089 117.921Z" fill="black"/>
<path id="Vector_17" d="M100.863 39.1217C100.918 39.1196 100.972 39.1028 101.017 39.073C101.074 39.0317 101.111 38.9701 101.122 38.9016C101.132 38.8331 101.114 38.7634 101.073 38.7076L99.3835 36.4177C99.3618 36.3867 99.3334 36.3607 99.3004 36.3417C99.2674 36.3228 99.2305 36.3113 99.1924 36.3081C99.1547 36.3058 99.1169 36.3118 99.0818 36.3254C99.0466 36.3391 99.0149 36.3602 98.9889 36.3873L97.3859 37.9768C97.3612 38.0006 97.3417 38.029 97.3284 38.0604C97.315 38.0918 97.3081 38.1254 97.3081 38.1595C97.3081 38.1935 97.315 38.2272 97.3284 38.2586C97.3417 38.2899 97.3612 38.3184 97.3859 38.3422C97.4354 38.3898 97.5017 38.4164 97.5708 38.4164C97.6399 38.4164 97.7063 38.3898 97.7558 38.3422L99.1431 36.9658L100.629 39.0121C100.657 39.0471 100.692 39.0752 100.733 39.0942C100.774 39.1132 100.818 39.1226 100.863 39.1217Z" fill="black"/>
<path id="Vector_18" d="M77.9821 28.3971C77.9821 28.3971 75.3309 25.2668 72.3097 28.257C69.6277 30.9001 72.3097 34.9561 74.8932 35.5651C77.3039 36.1375 80.0908 33.5919 80.0908 33.5919L77.9821 28.3971Z" fill="#E27756"/>
<path id="Vector_19" d="M78.2662 32.9161C78.3148 32.9161 78.3622 32.9012 78.4018 32.8735C78.4311 32.856 78.4566 32.8329 78.4768 32.8057C78.497 32.7784 78.5115 32.7474 78.5195 32.7146C78.5276 32.6818 78.5289 32.6477 78.5235 32.6143C78.5181 32.581 78.5061 32.549 78.4881 32.5202C77.7922 31.513 76.8364 30.7078 75.7198 30.1877C75.1576 29.9081 74.5717 29.6778 73.9687 29.4996C73.9017 29.4818 73.8302 29.4911 73.7701 29.5253C73.71 29.5596 73.6661 29.616 73.6481 29.6822C73.6301 29.7485 73.6395 29.819 73.6742 29.8784C73.7089 29.9378 73.766 29.9812 73.8331 29.9989C73.8639 29.9989 76.8296 30.8211 78.0442 32.7882C78.0672 32.8263 78.0996 32.8581 78.1385 32.8805C78.1773 32.9029 78.2213 32.9151 78.2662 32.9161Z" fill="black"/>
<path id="Vector_20" d="M75.5595 33.2689C75.6196 33.2694 75.6781 33.2501 75.7259 33.2141L77.4092 31.8499C77.4377 31.8295 77.4617 31.8035 77.4796 31.7736C77.4976 31.7437 77.5092 31.7105 77.5138 31.676C77.5183 31.6415 77.5157 31.6064 77.5061 31.573C77.4964 31.5395 77.4799 31.5083 77.4577 31.4813C77.4354 31.4544 77.4078 31.4322 77.3766 31.4161C77.3453 31.4001 77.3111 31.3904 77.276 31.3879C77.2409 31.3853 77.2056 31.3899 77.1723 31.4013C77.139 31.4127 77.1084 31.4306 77.0824 31.4541L75.393 32.8122C75.3409 32.857 75.308 32.9197 75.3012 32.9876C75.2943 33.0555 75.3139 33.1235 75.356 33.1776C75.3814 33.2062 75.4127 33.2292 75.4478 33.2449C75.4828 33.2607 75.5209 33.2688 75.5595 33.2689Z" fill="black"/>
<path id="Vector_21" d="M60.268 134.273C60.268 134.273 62.0499 133.097 63.431 129.931C65.0341 126.277 66.5138 116.995 74.412 110.71C82.3103 104.425 81.7492 119.072 81.7492 119.072L88.2848 133.012L66.0329 147.665C66.0329 147.665 59.4541 143.889 60.268 134.273Z" fill="#E27756"/>
<path id="Vector_22" d="M89.3025 13.4824C89.3025 13.4824 88.0694 21.0402 79.0552 24.9805L79.6717 17.4471L89.691 8.62257C89.691 8.62257 92.299 4.83456 100.29 5.33394C108.28 5.83333 115.994 11.1804 121.358 14.6639C124.798 16.8929 129.17 20.1145 124.324 22.039C120.538 23.5432 113.916 21.2107 111.228 18.5555C111.228 18.5555 116.438 21.905 108.675 22.8185C100.912 23.732 95.5915 20.6017 89.3025 13.4824Z" fill="#FFC849"/>
<path id="Vector_23" d="M152.901 107.489C152.901 107.489 151.459 105.485 146.921 97.1906C144.183 92.1907 139.318 92.3186 134.959 91.3381C130.6 90.3576 126.457 89.8277 121.666 92.3917C116.875 94.9556 113.416 98.0798 111.443 99.2734C109.668 100.345 110.703 103.811 112.676 103.957C115.266 104.145 119.342 102.513 123.294 99.0116C125.328 97.1846 126.377 97.6291 129.749 96.6182C133.122 95.6072 137.148 107.988 137.148 107.988L144.22 114.748L152.901 107.489Z" fill="#E27756"/>
<path id="Vector_24" d="M139.541 96.411C136.859 93.366 123.51 97.629 123.51 97.629C123.51 97.629 119.194 104.73 125.569 109.261C131.945 113.792 136.119 112.678 139.59 110.309C144.011 107.264 141.921 104.505 141.921 104.505L139.541 96.411Z" fill="#E27756"/>
<path id="Vector_25" d="M112.59 98.6462C111.357 99.31 111.252 99.7302 111.709 100.571C112.165 101.411 113.01 102.349 114.255 101.679C114.788 101.375 115.191 100.889 115.387 100.313C115.584 99.7366 115.56 99.1093 115.322 98.5487C114.865 97.7083 113.836 97.9763 112.59 98.6462Z" fill="black"/>
<path id="Vector_26" d="M149.899 104.109C150.457 104.317 150.968 104.631 151.403 105.034C151.896 105.832 152.433 106.679 152.969 107.507C154.542 109.815 154.202 112.787 152.593 115.369C149.862 119.79 144.103 121.587 144.091 121.581C143.036 120.138 136.495 113.006 135.354 111.453C134.966 109.48 136.384 108.408 137.272 106.076C139.146 101.1 146.526 102.866 149.899 104.109Z" fill="#E27756"/>
<path id="Vector_27" d="M130.212 90.7476C130.212 90.7476 124.94 91.5332 122.646 100.059C120.353 108.585 129.91 105.875 129.91 105.875L134.158 93.8961L130.212 90.7476Z" fill="#E27756"/>
<path id="Vector_28" d="M136.378 91.8979C136.378 91.8979 131.174 92.5374 129.077 100.613C126.981 108.688 136.378 106.295 136.378 106.295L140.336 94.9795L136.378 91.8979Z" fill="#E27756"/>
<path id="Vector_29" d="M143.012 94.0239C143.012 94.0239 137.037 93.9752 135.046 101.819C133.954 106.137 136.174 107.209 138.394 107.203C140.613 107.197 142.395 106.539 143.647 104.925C144.504 103.817 144.356 101.155 142.309 101.356L145.749 97.0933L143.012 94.0239Z" fill="#E27756"/>
<path id="Vector_30" d="M141.581 103.969C141.621 103.968 141.66 103.957 141.695 103.936C141.729 103.916 141.757 103.887 141.776 103.852C141.796 103.818 141.806 103.779 141.805 103.739C141.804 103.7 141.793 103.661 141.773 103.628C141.662 103.391 141.611 103.132 141.621 102.871C141.632 102.611 141.705 102.357 141.834 102.129C142.245 101.218 142.897 100.434 143.721 99.8578C143.762 99.8717 143.807 99.8739 143.849 99.8642C143.892 99.8545 143.93 99.8333 143.961 99.803C143.982 99.7826 143.999 99.7584 144.01 99.7318C144.021 99.7051 144.027 99.6765 144.027 99.6477C144.027 99.6188 144.021 99.5903 144.01 99.5636C143.999 99.537 143.982 99.5128 143.961 99.4924C143.715 99.2488 143.302 99.5837 143.148 99.7055C142.155 100.503 140.564 102.617 141.396 103.871C141.416 103.902 141.443 103.927 141.476 103.944C141.508 103.961 141.545 103.97 141.581 103.969Z" fill="black"/>
<path id="Vector_31" d="M127.031 106.52C127.234 106.52 127.45 106.52 127.647 106.52C128.433 106.467 129.211 106.328 129.965 106.106C129.993 106.097 130.019 106.083 130.042 106.064C130.064 106.046 130.083 106.023 130.096 105.997C130.109 105.971 130.118 105.943 130.12 105.914C130.123 105.885 130.119 105.856 130.11 105.829C130.101 105.801 130.087 105.776 130.068 105.753C130.049 105.731 130.026 105.713 130 105.7C129.974 105.687 129.946 105.678 129.916 105.676C129.887 105.674 129.858 105.677 129.83 105.686C129.793 105.686 125.921 106.904 123.911 105.162C122.795 104.206 122.443 102.507 122.856 100.119C123.27 97.732 124.379 94.3582 127.172 92.2753C128.123 91.5526 129.228 91.0546 130.403 90.8198C130.462 90.8122 130.515 90.7826 130.551 90.7372C130.588 90.6918 130.606 90.6341 130.601 90.5762C130.591 90.5181 130.56 90.4656 130.513 90.4294C130.466 90.3932 130.407 90.376 130.348 90.3813C129.102 90.6157 127.929 91.1374 126.926 91.9038C123.972 94.0719 122.832 97.5311 122.388 100.046C121.944 102.561 122.351 104.431 123.621 105.497C124.595 106.233 125.806 106.597 127.031 106.52Z" fill="black"/>
<path id="Vector_32" d="M133.652 107.068C134.461 107.066 135.267 106.98 136.057 106.813C136.086 106.806 136.113 106.794 136.137 106.777C136.161 106.76 136.182 106.738 136.197 106.713C136.213 106.688 136.223 106.661 136.228 106.632C136.232 106.603 136.231 106.573 136.223 106.545C136.207 106.489 136.171 106.44 136.12 106.41C136.07 106.379 136.01 106.369 135.952 106.38C135.915 106.38 131.79 107.318 129.916 105.424C128.936 104.437 128.726 102.842 129.299 100.668C130.36 96.5752 132.314 94.4071 133.757 93.3109C134.612 92.6322 135.608 92.1478 136.673 91.8919C136.702 91.8883 136.731 91.8788 136.756 91.8641C136.781 91.8493 136.803 91.8297 136.82 91.8064C136.838 91.783 136.85 91.7564 136.856 91.7282C136.863 91.6999 136.864 91.6707 136.858 91.6422C136.855 91.6135 136.845 91.5858 136.83 91.5609C136.815 91.536 136.795 91.5143 136.772 91.4972C136.748 91.4801 136.721 91.4679 136.693 91.4615C136.664 91.455 136.634 91.4543 136.606 91.4595C135.476 91.7119 134.421 92.2184 133.523 92.9394C132.012 94.0783 129.978 96.3255 128.88 100.558C128.263 102.891 128.522 104.632 129.62 105.735C130.717 106.837 132.29 107.068 133.652 107.068Z" fill="black"/>
<path id="Vector_33" d="M138.375 107.428C140.798 107.428 142.574 106.642 143.807 105.059C144.135 104.622 144.342 104.108 144.409 103.568C144.476 103.028 144.401 102.48 144.189 101.977C143.93 101.496 143.345 100.936 142.037 101.027C142.005 101.022 141.971 101.024 141.939 101.032C141.907 101.041 141.878 101.057 141.853 101.078C141.827 101.099 141.807 101.125 141.793 101.155C141.779 101.185 141.772 101.217 141.772 101.25C141.772 101.282 141.779 101.315 141.793 101.344C141.807 101.374 141.827 101.4 141.853 101.421C141.878 101.443 141.907 101.458 141.939 101.467C141.971 101.475 142.005 101.477 142.037 101.472C142.365 101.402 142.707 101.433 143.017 101.56C143.326 101.688 143.589 101.905 143.77 102.184C143.943 102.612 144.001 103.077 143.939 103.533C143.878 103.99 143.698 104.423 143.419 104.791C142.278 106.259 140.619 106.977 138.344 106.983C137.826 107.023 137.305 106.949 136.819 106.764C136.334 106.58 135.896 106.291 135.539 105.918C134.861 105.059 134.75 103.701 135.218 101.868C136.223 97.897 138.406 95.8994 140.058 94.925C141.081 94.3085 142.224 93.9102 143.412 93.7557C143.442 93.7542 143.47 93.747 143.496 93.7345C143.523 93.722 143.546 93.7045 143.566 93.683C143.585 93.6615 143.6 93.6364 143.61 93.6092C143.62 93.582 143.624 93.5531 143.622 93.5243C143.617 93.4656 143.589 93.4111 143.545 93.3724C143.5 93.3337 143.441 93.3139 143.382 93.3173C142.123 93.4667 140.912 93.8822 139.83 94.5353C138.104 95.5523 135.829 97.629 134.78 101.752C134.281 103.719 134.417 105.205 135.187 106.173C135.582 106.615 136.076 106.958 136.63 107.176C137.184 107.394 137.781 107.48 138.375 107.428Z" fill="black"/>
<path id="Vector_34" d="M138.462 111.301C139.123 111.295 139.781 111.226 140.429 111.094C140.457 111.088 140.485 111.077 140.509 111.061C140.533 111.045 140.554 111.025 140.571 111C140.587 110.976 140.598 110.949 140.604 110.921C140.61 110.893 140.61 110.863 140.604 110.835C140.599 110.807 140.587 110.78 140.571 110.756C140.555 110.732 140.534 110.711 140.51 110.695C140.485 110.679 140.458 110.667 140.429 110.662C140.401 110.656 140.371 110.656 140.342 110.662C137.734 111.173 135.675 110.692 134.22 109.224C133.559 108.554 133.071 107.738 132.795 106.843C132.789 106.814 132.777 106.787 132.759 106.764C132.742 106.74 132.72 106.72 132.695 106.704C132.67 106.689 132.642 106.679 132.612 106.674C132.583 106.67 132.553 106.671 132.524 106.679C132.468 106.694 132.419 106.731 132.39 106.781C132.36 106.831 132.351 106.89 132.364 106.947C132.738 108.243 133.543 109.378 134.649 110.168C135.755 110.957 137.098 111.357 138.462 111.301Z" fill="black"/>
<path id="Vector_35" d="M42.2337 111.496H42.3077C42.3745 111.476 42.4307 111.431 42.4642 111.371C42.4976 111.31 42.5056 111.239 42.4865 111.173C42.4125 110.942 35.433 88.1525 30.9875 81.4535C30.9499 81.3961 30.8908 81.3559 30.8231 81.3416C30.7555 81.3273 30.6849 81.3402 30.6268 81.3773C30.5688 81.4145 30.528 81.4729 30.5136 81.5397C30.4991 81.6065 30.5121 81.6763 30.5497 81.7336C34.952 88.3779 41.9131 111.094 41.9871 111.325C42.0051 111.376 42.0385 111.419 42.0827 111.45C42.1269 111.48 42.1797 111.496 42.2337 111.496Z" fill="black"/>
<path id="Vector_36" d="M40.1252 180.04C40.1637 180.049 40.2039 180.049 40.2424 180.04C44.3684 177.886 48.3218 175.425 52.0681 172.677C55.1577 170.452 57.9812 167.888 60.4843 165.034C63.0985 161.946 64.5845 158.944 64.9174 156.185L71.6442 151.495C71.6851 151.466 71.7167 151.426 71.7352 151.38C71.7538 151.333 71.7586 151.283 71.749 151.234C71.741 151.184 71.7178 151.138 71.6825 151.102C71.6472 151.066 71.6015 151.042 71.5517 151.033C69.1044 150.406 66.8019 149.32 64.7694 147.835C63.0206 146.565 61.6285 144.876 60.7247 142.927C59.6642 140.401 59.4356 137.61 60.0712 134.949C60.0794 134.899 60.0733 134.848 60.0537 134.802C60.0341 134.756 60.0017 134.716 59.9602 134.687C59.9174 134.658 59.867 134.643 59.8153 134.643C59.7637 134.643 59.7132 134.658 59.6704 134.687L54.3741 138.018C53.9178 137.354 52.3394 135.582 48.3687 134.888C45.5942 134.431 42.203 134.626 38.3002 135.497C33.4416 136.556 27.7507 138.639 21.3877 141.678C21.3327 141.713 21.2924 141.766 21.2745 141.827C21.2565 141.889 21.2621 141.955 21.2903 142.013C21.3185 142.071 21.3672 142.117 21.4272 142.141C21.4872 142.166 21.5544 142.168 21.6158 142.147C27.911 139.133 33.5341 137.074 38.3433 136.014C42.1784 135.174 45.4955 134.967 48.2084 135.405C49.8953 135.616 51.5008 136.245 52.8758 137.232C53.3502 137.579 53.7539 138.011 54.0658 138.505C54.0822 138.537 54.1048 138.565 54.1323 138.588C54.1598 138.611 54.1917 138.629 54.2261 138.639C54.2617 138.649 54.2988 138.65 54.335 138.644C54.3712 138.638 54.4056 138.624 54.4357 138.603L59.4793 135.412C58.966 138.003 59.245 140.687 60.2808 143.122C61.2247 145.151 62.6761 146.909 64.4981 148.231C66.4236 149.644 68.5888 150.706 70.8919 151.368L64.529 155.807C64.4983 155.828 64.4725 155.855 64.4533 155.887C64.4342 155.918 64.4221 155.953 64.418 155.99C64.1282 158.7 62.6731 161.623 60.102 164.674C57.6245 167.497 54.8299 170.033 51.7722 172.232C48.0511 174.963 44.1222 177.406 40.0204 179.54C39.9899 179.556 39.9628 179.577 39.9406 179.603C39.9185 179.629 39.9018 179.659 39.8914 179.691C39.8811 179.723 39.8774 179.757 39.8805 179.791C39.8836 179.825 39.8934 179.857 39.9094 179.887C39.927 179.93 39.9566 179.968 39.9948 179.995C40.0331 180.022 40.0783 180.037 40.1252 180.04Z" fill="black"/>
<path id="Vector_37" d="M30.2847 138.518C30.3366 138.515 30.3868 138.498 30.429 138.468C30.4711 138.438 30.5034 138.397 30.5218 138.349C30.5402 138.301 30.5439 138.248 30.5324 138.198C30.521 138.148 30.4949 138.102 30.4574 138.067L25.4508 133.67C25.3993 133.624 25.3314 133.6 25.262 133.603C25.1927 133.607 25.1275 133.637 25.0809 133.688C25.0343 133.739 25.01 133.806 25.0135 133.875C25.017 133.943 25.0479 134.008 25.0994 134.054L30.1121 138.457C30.1602 138.497 30.2216 138.519 30.2847 138.518Z" fill="black"/>
<path id="Vector_38" d="M125.162 81.5815H75.2322C74.4966 81.5815 73.9004 82.1705 73.9004 82.897V143.591C73.9004 144.317 74.4966 144.906 75.2322 144.906H125.162C125.897 144.906 126.494 144.317 126.494 143.591V82.897C126.494 82.1705 125.897 81.5815 125.162 81.5815Z" fill="black"/>
<path id="Vector_39" d="M125.162 83.7192H75.2322C74.4966 83.7192 73.9004 84.3082 73.9004 85.0347V143.591C73.9004 144.317 74.4966 144.906 75.2322 144.906H125.162C125.897 144.906 126.494 144.317 126.494 143.591V85.0347C126.494 84.3082 125.897 83.7192 125.162 83.7192Z" fill="#7DBCF5"/>
<path id="Vector_40" d="M85.252 87.002H77.7668C77.0313 87.002 76.4351 87.5909 76.4351 88.3174V94.7851C76.4351 95.5116 77.0313 96.1005 77.7668 96.1005H85.252C85.9875 96.1005 86.5838 95.5116 86.5838 94.7851V88.3174C86.5838 87.5909 85.9875 87.002 85.252 87.002Z" fill="black"/>
<path id="Vector_41" d="M146.366 144.717C146.414 144.717 146.462 144.703 146.501 144.675C146.531 144.657 146.556 144.634 146.576 144.607C146.596 144.58 146.611 144.549 146.619 144.516C146.627 144.483 146.628 144.449 146.623 144.416C146.618 144.382 146.606 144.35 146.588 144.322C145.844 142.956 145.341 141.475 145.102 139.943C144.627 137.348 144.448 133.128 146.286 127.763C146.3 127.725 146.305 127.684 146.3 127.643C146.295 127.603 146.279 127.564 146.255 127.531L142.95 122.818C145.003 122.032 146.94 120.977 148.709 119.681C150.311 118.533 151.669 117.085 152.704 115.418C153.686 113.795 154.186 111.931 154.147 110.041L158.315 115.607C158.342 115.642 158.377 115.67 158.418 115.689C158.459 115.707 158.504 115.714 158.549 115.71C159.366 115.687 160.183 115.769 160.978 115.954C163.266 116.478 165.451 117.369 167.446 118.591C170.932 120.729 174.069 123.378 176.75 126.447C181.009 131.321 184.67 136.675 187.657 142.397C187.673 142.427 187.694 142.454 187.721 142.476C187.747 142.498 187.777 142.514 187.81 142.524C187.842 142.535 187.877 142.538 187.911 142.535C187.945 142.532 187.978 142.523 188.009 142.507C188.07 142.473 188.115 142.417 188.135 142.351C188.154 142.285 188.147 142.214 188.114 142.154C185.101 136.38 181.406 130.979 177.108 126.064C174.386 122.955 171.201 120.273 167.662 118.11C162.729 115.229 159.394 115.156 158.654 115.181L154.042 109.03C154.009 108.982 153.96 108.948 153.904 108.931C153.849 108.915 153.789 108.917 153.735 108.938C153.68 108.959 153.635 108.998 153.606 109.048C153.577 109.097 153.565 109.155 153.573 109.212C153.795 111.278 153.334 113.358 152.26 115.144C151.259 116.754 149.95 118.157 148.407 119.273C146.587 120.609 144.583 121.681 142.457 122.458C142.418 122.472 142.384 122.494 142.355 122.522C142.326 122.551 142.304 122.585 142.29 122.623C142.278 122.66 142.275 122.701 142.281 122.74C142.288 122.779 142.303 122.816 142.327 122.848L145.749 127.72C143.899 133.152 144.103 137.434 144.59 140.071C144.839 141.658 145.364 143.192 146.144 144.602C146.167 144.638 146.2 144.668 146.239 144.689C146.278 144.709 146.322 144.719 146.366 144.717Z" fill="black"/>
<path id="Vector_42" d="M61.5941 154.285C61.6436 154.283 61.6919 154.269 61.7333 154.242C61.7747 154.215 61.8076 154.177 61.8284 154.132C61.843 154.102 61.8514 154.069 61.8531 154.035C61.8548 154.002 61.8498 153.968 61.8383 153.937C61.8269 153.905 61.8092 153.876 61.7863 153.851C61.7635 153.826 61.7359 153.806 61.7051 153.791C59.7052 152.926 57.9239 151.635 56.4889 150.009C55.518 148.873 54.8296 147.528 54.4789 146.081C54.1196 144.66 54.1196 143.173 54.4789 141.751C54.4993 141.686 54.4926 141.615 54.4602 141.555C54.4279 141.494 54.3725 141.449 54.3062 141.428C54.24 141.408 54.1684 141.415 54.1071 141.447C54.0458 141.479 53.9999 141.534 53.9794 141.599C53.5895 143.11 53.5895 144.693 53.9794 146.203C54.35 147.725 55.074 149.141 56.0943 150.338C57.5788 152.021 59.4209 153.361 61.4892 154.26C61.5227 154.274 61.5581 154.282 61.5941 154.285Z" fill="black"/>
<path id="Vector_43" d="M150.559 95.9178C150.608 95.9179 150.656 95.9042 150.697 95.8783C150.739 95.8524 150.772 95.8155 150.793 95.7717L159.678 78.1957C159.709 78.1344 159.714 78.0633 159.692 77.9982C159.67 77.9331 159.623 77.8793 159.561 77.8486C159.498 77.8179 159.427 77.8129 159.361 77.8346C159.295 77.8563 159.24 77.9029 159.209 77.9643L150.324 95.5403C150.294 95.6018 150.29 95.6725 150.311 95.7374C150.333 95.8023 150.38 95.8561 150.442 95.8874C150.478 95.9059 150.518 95.9163 150.559 95.9178Z" fill="black"/>
<path id="Vector_44" d="M91.3249 114.906C93.1006 112.543 98.5264 109.687 102.361 109.687C106.197 109.687 107.362 114.139 107.362 117.086C107.362 120.034 99.1861 124.778 95.3511 124.778C91.516 124.778 88.9449 118.055 91.3249 114.906Z" fill="#DEE9EC"/>
<path id="Vector_45" d="M78.3027 140.101C83.6063 139.674 88.739 138.046 93.3038 135.345C97.256 132.982 99.5188 131.454 100.77 130.546C101.181 130.234 101.469 129.791 101.588 129.293C101.707 128.796 101.649 128.272 101.424 127.812C101.329 127.598 101.192 127.404 101.021 127.243C100.85 127.082 100.648 126.955 100.428 126.872C100.207 126.788 99.9715 126.748 99.735 126.755C99.4986 126.761 99.2658 126.814 99.0503 126.91C96.7936 127.946 92.527 129.773 89.1852 130.443C84.4499 131.393 78.3027 140.101 78.3027 140.101Z" fill="#E27756"/>
<path id="Vector_46" d="M78.5684 134.973C78.5684 134.973 88.8897 133.286 96.3379 128.914C100.531 126.447 102.935 125.162 104.131 124.291C104.84 123.78 104.964 122.556 104.575 121.758C104.339 121.255 103.92 120.858 103.402 120.645C102.884 120.432 102.304 120.418 101.776 120.607C97.9471 122.032 89.309 125.162 85.6651 125.881C80.8867 126.831 78.5684 134.973 78.5684 134.973Z" fill="#E27756"/>
<path id="Vector_47" d="M78.8086 129.608C78.8086 129.608 89.7157 127.489 97.4598 122.714C101.85 120.004 104.316 118.53 105.549 117.599C105.884 117.269 106.101 116.839 106.165 116.376C106.23 115.913 106.139 115.442 105.907 115.035C105.651 114.532 105.215 114.142 104.684 113.939C104.153 113.737 103.565 113.736 103.034 113.938C99.0937 115.522 89.876 119.133 85.9855 120.028C80.9851 121.161 78.8086 129.608 78.8086 129.608Z" fill="#E27756"/>
<path id="Vector_48" d="M74.332 124.931C74.332 124.931 85.0973 122.854 92.7427 118.201C97.293 115.436 99.6915 113.981 100.857 113.098C101.147 112.814 101.337 112.444 101.399 112.045C101.46 111.645 101.389 111.237 101.196 110.881C100.922 110.35 100.461 109.937 99.8999 109.719C99.3387 109.502 98.7162 109.495 98.1501 109.699C94.1917 111.265 85.2391 114.73 81.4349 115.582C76.4839 116.703 74.332 124.931 74.332 124.931Z" fill="#E27756"/>
<path id="Vector_49" d="M104.933 35.5162C104.933 35.5162 105.549 22.9463 116.031 29.9316C116.031 29.9316 113.676 38.3359 104.933 35.5162Z" fill="white"/>
<path id="Vector_50" d="M105.944 32.3493C105.944 31.2574 106.383 30.2103 107.165 29.4382C107.946 28.6662 109.006 28.2324 110.112 28.2324C111.217 28.2324 112.277 28.6662 113.059 29.4382C113.841 30.2103 114.28 31.2574 114.28 32.3493C114.28 32.6799 114.238 33.0093 114.157 33.3298C113.469 34.1937 112.592 34.8916 111.591 35.3707C110.59 35.8497 109.492 36.0974 108.379 36.0947C107.653 35.766 107.038 35.2384 106.606 34.5745C106.174 33.9106 105.944 33.1383 105.944 32.3493Z" fill="black"/>
<path id="Vector_51" d="M88.2853 28.2325C88.8767 28.2326 89.4613 28.357 90.0002 28.5975C90.5392 28.838 91.0202 29.1889 91.4113 29.6271C91.6951 29.997 91.9429 30.3926 92.1511 30.8086C92.3493 31.2988 92.4519 31.8216 92.4533 32.3494C92.45 33.1418 92.2157 33.9164 91.7783 34.5807C91.3409 35.2449 90.719 35.7706 89.987 36.0948C88.8924 36.1126 87.8079 35.8864 86.8141 35.433C85.8202 34.9796 84.9427 34.3107 84.2467 33.4761C84.1401 33.1098 84.0861 32.7305 84.0864 32.3494C84.0864 31.8062 84.1952 31.2684 84.4066 30.7669C84.618 30.2654 84.9278 29.8102 85.3181 29.4275C85.7084 29.0448 86.1715 28.7422 86.6808 28.5371C87.19 28.332 87.7353 28.2285 88.2853 28.2325Z" fill="black"/>
<path id="Vector_52" d="M101.85 76.6789H101.893C102.09 76.6485 121.858 74.8519 127.061 64.5597L126.525 64.3344C123.874 69.5718 117.505 71.8069 112.56 73.7374C109.113 74.9991 105.511 75.8039 101.85 76.1308C88.7787 75.126 80.0605 71.4902 75.0416 68.6096C69.6035 65.4915 67.2297 62.5683 67.205 62.5195L66.7241 62.8423C66.8228 62.9641 69.1904 65.8873 74.6963 69.0359C79.7769 71.9531 88.6061 75.6497 101.825 76.6546L101.85 76.6789Z" fill="black"/>
<path id="Vector_53" d="M81.4541 56.8053L81.1733 57.271L104.462 70.9673L104.743 70.5016L81.4541 56.8053Z" fill="black"/>
<path id="Vector_54" d="M112.747 57.9289L100.184 68.0171L100.53 68.4377L113.093 58.3494L112.747 57.9289Z" fill="black"/>
<path id="Vector_55" d="M82.5447 139.498L72.2541 143.542L71.021 117.665C74.3691 117.374 77.6761 116.731 80.8861 115.747C86.3982 114.09 88.3589 137.208 82.5447 139.498Z" fill="#E27756"/>
<path id="Vector_56" d="M80.7386 89.7787C80.7609 90.0887 80.6882 90.398 80.5299 90.6666C80.3717 90.9351 80.1352 91.1503 79.8513 91.2842C79.5675 91.4181 79.2494 91.4645 78.9384 91.4173C78.6275 91.37 78.3382 91.2314 78.1082 91.0195C77.8782 90.8076 77.7181 90.5321 77.6488 90.229C77.5795 89.9259 77.6042 89.6093 77.7198 89.3203C77.8353 89.0313 78.0363 88.7833 78.2965 88.6087C78.5567 88.4342 78.8641 88.341 79.1786 88.3415C79.5779 88.3299 79.9656 88.4744 80.2576 88.7435C80.5497 89.0126 80.7225 89.3846 80.7386 89.7787Z" fill="#A3A3A3"/>
<path id="Vector_57" d="M85.5413 91.898C85.5636 92.208 85.4909 92.5174 85.3326 92.7859C85.1744 93.0544 84.9379 93.2696 84.654 93.4035C84.3702 93.5374 84.0521 93.5838 83.7412 93.5366C83.4302 93.4894 83.1409 93.3508 82.9109 93.1388C82.6809 92.9269 82.5208 92.6514 82.4515 92.3483C82.3823 92.0453 82.407 91.7286 82.5225 91.4396C82.638 91.1506 82.839 90.9027 83.0992 90.7281C83.3594 90.5535 83.6668 90.4603 83.9814 90.4608C84.3811 90.4476 84.7697 90.5915 85.0621 90.861C85.3545 91.1304 85.5268 91.5033 85.5413 91.898Z" fill="#A3A3A3"/>
<path id="Vector_58" d="M80.7386 93.6767C80.7609 93.9866 80.6882 94.296 80.5299 94.5645C80.3717 94.833 80.1352 95.0483 79.8513 95.1822C79.5675 95.3161 79.2494 95.3624 78.9384 95.3152C78.6275 95.268 78.3382 95.1294 78.1082 94.9174C77.8782 94.7055 77.7181 94.4301 77.6488 94.127C77.5795 93.8239 77.6042 93.5072 77.7198 93.2182C77.8353 92.9292 78.0363 92.6813 78.2965 92.5067C78.5567 92.3321 78.8641 92.239 79.1786 92.2394C79.5779 92.2279 79.9656 92.3723 80.2576 92.6414C80.5497 92.9105 80.7225 93.2825 80.7386 93.6767Z" fill="#A3A3A3"/>
<path id="Vector_59" d="M81.5401 122.75H81.5956C86.8189 121.449 91.8094 119.364 96.3933 116.569C96.4232 116.552 96.4493 116.529 96.47 116.502C96.4907 116.475 96.5055 116.444 96.5136 116.411C96.5217 116.378 96.5228 116.343 96.517 116.31C96.5111 116.276 96.4984 116.244 96.4796 116.216C96.4619 116.187 96.4386 116.162 96.411 116.142C96.3833 116.122 96.352 116.107 96.3188 116.099C96.2855 116.091 96.251 116.09 96.2172 116.095C96.1834 116.101 96.1511 116.113 96.122 116.13C91.5802 118.888 86.6376 120.942 81.4661 122.22C81.3975 122.235 81.3375 122.276 81.2994 122.334C81.2612 122.392 81.248 122.463 81.2627 122.531C81.2719 122.596 81.3057 122.654 81.3573 122.695C81.4089 122.736 81.4743 122.756 81.5401 122.75Z" fill="black"/>
<path id="Vector_60" d="M85.2022 128.652C85.2265 128.658 85.2519 128.658 85.2762 128.652C90.8894 126.786 96.2374 124.217 101.19 121.009C101.246 120.969 101.285 120.91 101.298 120.843C101.31 120.775 101.296 120.706 101.258 120.649C101.239 120.621 101.215 120.596 101.186 120.576C101.157 120.557 101.125 120.544 101.091 120.537C101.057 120.53 101.023 120.53 100.989 120.537C100.955 120.544 100.922 120.557 100.894 120.576C95.9865 123.759 90.686 126.308 85.1221 128.158C85.0889 128.169 85.0581 128.185 85.0314 128.208C85.0048 128.23 84.9828 128.257 84.9668 128.287C84.9507 128.318 84.941 128.351 84.938 128.386C84.935 128.42 84.9389 128.454 84.9495 128.487C84.9696 128.537 85.0046 128.579 85.0497 128.609C85.0949 128.638 85.1481 128.653 85.2022 128.652Z" fill="black"/>
<path id="Vector_61" d="M86.9782 133.682C87.0046 133.687 87.0319 133.687 87.0584 133.682C91.9147 132.183 96.4949 129.921 100.623 126.983C100.669 126.939 100.698 126.88 100.704 126.817C100.71 126.754 100.692 126.691 100.654 126.64C100.617 126.589 100.562 126.553 100.499 126.538C100.437 126.524 100.371 126.533 100.315 126.563C96.2319 129.476 91.6991 131.717 86.8919 133.201C86.8589 133.211 86.8282 133.227 86.8016 133.248C86.775 133.27 86.7531 133.296 86.737 133.327C86.721 133.357 86.7111 133.389 86.708 133.423C86.705 133.457 86.7088 133.491 86.7193 133.524C86.7391 133.574 86.7752 133.617 86.8219 133.646C86.8686 133.674 86.9235 133.687 86.9782 133.682Z" fill="black"/>
<g id="Group_2" style="mix-blend-mode:overlay">
<path id="Vector_62" d="M102.367 125.174C102.907 125.165 103.43 124.986 103.859 124.663C104.834 123.95 105.167 122.751 104.599 121.989C104.449 121.795 104.255 121.639 104.032 121.533C103.809 121.427 103.564 121.375 103.317 121.38C102.766 121.382 102.231 121.562 101.794 121.892C101.345 122.206 101.013 122.658 100.851 123.177C100.77 123.407 100.747 123.653 100.781 123.894C100.815 124.136 100.907 124.366 101.048 124.565C101.198 124.761 101.393 124.918 101.617 125.024C101.842 125.13 102.088 125.182 102.337 125.174H102.367ZM103.28 121.904C103.446 121.898 103.612 121.93 103.764 121.997C103.916 122.065 104.05 122.166 104.155 122.294C104.556 122.83 104.266 123.707 103.539 124.249C103.187 124.52 102.752 124.664 102.306 124.657C102.14 124.664 101.975 124.633 101.823 124.565C101.672 124.497 101.54 124.395 101.436 124.267C101.343 124.131 101.284 123.975 101.262 123.812C101.241 123.65 101.258 123.484 101.313 123.329C101.445 122.918 101.709 122.561 102.065 122.312C102.415 122.051 102.841 121.908 103.28 121.904Z" fill="black"/>
</g>
<g id="Group_3" style="mix-blend-mode:overlay">
<path id="Vector_63" d="M103.465 118.427C103.971 118.422 104.467 118.285 104.902 118.031C106.061 117.367 106.579 116.106 106.055 115.211C105.915 114.984 105.722 114.792 105.493 114.653C105.264 114.513 105.004 114.429 104.735 114.407C104.132 114.348 103.525 114.481 103.003 114.785C101.85 115.449 101.332 116.709 101.85 117.604C101.992 117.831 102.186 118.022 102.416 118.162C102.646 118.301 102.906 118.386 103.176 118.408C103.272 118.421 103.368 118.427 103.465 118.427ZM104.44 114.907H104.668C104.856 114.921 105.038 114.978 105.201 115.073C105.363 115.168 105.502 115.299 105.605 115.455C105.981 116.106 105.549 117.05 104.643 117.574C104.22 117.823 103.727 117.932 103.237 117.885C103.05 117.869 102.869 117.812 102.707 117.717C102.546 117.622 102.409 117.492 102.306 117.336C101.924 116.685 102.355 115.741 103.268 115.223C103.623 115.017 104.027 114.907 104.44 114.907Z" fill="black"/>
</g>
<g id="Group_4" style="mix-blend-mode:overlay">
<path id="Vector_64" d="M98.8224 114.267C99.3037 114.263 99.7756 114.135 100.191 113.895C100.728 113.599 101.144 113.127 101.369 112.562C101.478 112.304 101.526 112.025 101.509 111.746C101.492 111.468 101.41 111.196 101.27 110.954C100.709 109.985 99.3095 109.736 98.1504 110.406C97.6107 110.699 97.1935 111.171 96.9727 111.739C96.8637 111.997 96.8159 112.276 96.833 112.555C96.8501 112.833 96.9316 113.104 97.0714 113.347C97.2145 113.588 97.4117 113.794 97.6479 113.948C97.8842 114.102 98.1531 114.201 98.434 114.236C98.5622 114.259 98.6923 114.269 98.8224 114.267ZM99.5191 110.546C99.7759 110.534 100.031 110.589 100.26 110.705C100.488 110.822 100.682 110.996 100.82 111.21C100.917 111.388 100.973 111.585 100.984 111.787C100.994 111.99 100.96 112.192 100.882 112.379C100.693 112.83 100.359 113.208 99.9305 113.452C99.5024 113.697 99.0045 113.795 98.5142 113.731C98.3109 113.704 98.1162 113.633 97.9445 113.522C97.7727 113.412 97.6282 113.264 97.5215 113.091C97.4227 112.914 97.3658 112.716 97.3552 112.514C97.3445 112.311 97.3803 112.109 97.4598 111.922C97.6403 111.466 97.9761 111.087 98.4093 110.85C98.7448 110.651 99.1279 110.544 99.5191 110.54V110.546Z" fill="black"/>
</g>
<g id="Group_5" style="mix-blend-mode:overlay">
<path id="Vector_65" d="M99.2783 128.372C99.592 128.125 99.9683 127.968 100.366 127.917C100.764 127.867 101.168 127.925 101.535 128.085C101.614 128.336 101.651 128.597 101.646 128.859L101.609 128.81C101.501 128.676 101.363 128.569 101.205 128.499C101.048 128.428 100.875 128.395 100.703 128.402C100.298 128.411 99.9068 128.547 99.5866 128.792C99.2448 129.03 98.9948 129.376 98.8775 129.772C98.8186 129.935 98.8032 130.11 98.8327 130.28C98.8622 130.45 98.9356 130.61 99.046 130.744C99.1563 130.878 99.2997 130.982 99.4625 131.046C99.6252 131.109 99.8017 131.13 99.975 131.106L99.3584 131.538C99.0531 131.446 98.7853 131.261 98.5939 131.009C98.454 130.811 98.362 130.584 98.3246 130.345C98.2872 130.106 98.3054 129.863 98.3781 129.632C98.5295 129.126 98.8459 128.682 99.2783 128.372Z" fill="black"/>
</g>
<path id="Vector_66" d="M105.37 43.5127C105.37 43.5127 101.122 43.1473 93.0757 43.33C93.0757 43.33 95.9859 45.9426 99.2414 46.1862C102.774 46.4542 105.37 43.5127 105.37 43.5127Z" fill="black"/>
<path id="Vector_67" d="M101.233 43.3239C99.2231 43.2752 96.504 43.2569 93.1006 43.3239C93.1006 43.3239 96.0108 45.9366 99.2663 46.1802C101.109 46.2467 102.913 45.642 104.334 44.481C103.404 43.8669 102.343 43.4711 101.233 43.3239Z" fill="#FD521B"/>
<path id="Vector_68" d="M199.755 199.997H0.245438C0.215326 200.002 0.184436 200.001 0.154932 199.993C0.125429 199.985 0.0980274 199.971 0.0746437 199.951C0.05126 199.932 0.0324651 199.908 0.0195688 199.88C0.00667252 199.853 0 199.823 0 199.793C0 199.763 0.00667252 199.733 0.0195688 199.706C0.0324651 199.678 0.05126 199.654 0.0746437 199.635C0.0980274 199.615 0.125429 199.601 0.154932 199.593C0.184436 199.585 0.215326 199.584 0.245438 199.589H199.755C199.785 199.584 199.816 199.585 199.845 199.593C199.875 199.601 199.902 199.615 199.925 199.635C199.949 199.654 199.967 199.678 199.98 199.706C199.993 199.733 200 199.763 200 199.793C200 199.823 199.993 199.853 199.98 199.88C199.967 199.908 199.949 199.932 199.925 199.951C199.902 199.971 199.875 199.985 199.845 199.993C199.816 200.001 199.785 200.002 199.755 199.997Z" fill="black"/>
</g>
</g>
</svg>
